<svg width="57" height="56" viewBox="0 0 57 56" fill="none" xmlns="http://www.w3.org/2000/svg">
<path d="M0.5 12C0.5 5.37258 5.87258 0 12.5 0H44.5C51.1274 0 56.5 5.37258 56.5 12V44C56.5 50.6274 51.1274 56 44.5 56H12.5C5.87258 56 0.5 50.6274 0.5 44V12Z" fill="#E27B00" fill-opacity="0.12"/>
<path d="M17.8334 25.3327C17.8334 20.3044 17.8334 17.7902 19.3955 16.2281C20.9576 14.666 23.4717 14.666 28.5 14.666C33.5284 14.666 36.0425 14.666 37.6046 16.2281C39.1667 17.7902 39.1667 20.3044 39.1667 25.3327V30.666C39.1667 35.6943 39.1667 38.2085 37.6046 39.7706C36.0425 41.3327 33.5284 41.3327 28.5 41.3327C23.4717 41.3327 20.9576 41.3327 19.3955 39.7706C17.8334 38.2085 17.8334 35.6943 17.8334 30.666V25.3327Z" stroke="#E27B00" stroke-width="1.5"/>
<path opacity="0.5" d="M32.5 37.334H24.5" stroke="#E27B00" stroke-width="1.5" stroke-linecap="round"/>
<path opacity="0.5" d="M34.831 15.1699L34.7188 15.3381C33.7107 16.8503 33.2067 17.6063 32.4705 18.0638C32.3241 18.1548 32.172 18.2362 32.0151 18.3075C31.2261 18.6663 30.3174 18.6663 28.5 18.6663C26.6827 18.6663 25.774 18.6663 24.985 18.3075C24.8281 18.2362 24.6759 18.1548 24.5296 18.0638C23.7933 17.6063 23.2893 16.8503 22.2812 15.3381L22.1691 15.1699" stroke="#E27B00" stroke-width="1.5" stroke-linecap="round"/>
</svg>
