<svg width="33" height="32" viewBox="0 0 33 32" fill="none" xmlns="http://www.w3.org/2000/svg">
<path d="M3.16663 15.9997C3.16663 10.9714 3.16663 8.4572 4.72872 6.89511C6.29082 5.33301 8.80498 5.33301 13.8333 5.33301H19.1666C24.1949 5.33301 26.7091 5.33301 28.2712 6.89511C29.8333 8.4572 29.8333 10.9714 29.8333 15.9997V18.6663C29.8333 23.6947 29.8333 26.2088 28.2712 27.7709C26.7091 29.333 24.1949 29.333 19.1666 29.333H13.8333C8.80498 29.333 6.29082 29.333 4.72872 27.7709C3.16663 26.2088 3.16663 23.6947 3.16663 18.6663V15.9997Z" stroke="#696576" stroke-width="1.5"/>
<path opacity="0.5" d="M9.83337 5.33301V3.33301" stroke="#696576" stroke-width="1.5" stroke-linecap="round"/>
<path opacity="0.5" d="M23.1666 5.33301V3.33301" stroke="#696576" stroke-width="1.5" stroke-linecap="round"/>
<path opacity="0.5" d="M3.83337 12H29.1667" stroke="#696576" stroke-width="1.5" stroke-linecap="round"/>
<path d="M24.5 22.6667C24.5 23.403 23.9031 24 23.1667 24C22.4303 24 21.8334 23.403 21.8334 22.6667C21.8334 21.9303 22.4303 21.3333 23.1667 21.3333C23.9031 21.3333 24.5 21.9303 24.5 22.6667Z" fill="#696576"/>
<path d="M24.5 17.3333C24.5 18.0697 23.9031 18.6667 23.1667 18.6667C22.4303 18.6667 21.8334 18.0697 21.8334 17.3333C21.8334 16.597 22.4303 16 23.1667 16C23.9031 16 24.5 16.597 24.5 17.3333Z" fill="#696576"/>
<path d="M17.8333 22.6667C17.8333 23.403 17.2363 24 16.5 24C15.7636 24 15.1666 23.403 15.1666 22.6667C15.1666 21.9303 15.7636 21.3333 16.5 21.3333C17.2363 21.3333 17.8333 21.9303 17.8333 22.6667Z" fill="#696576"/>
<path d="M17.8333 17.3333C17.8333 18.0697 17.2363 18.6667 16.5 18.6667C15.7636 18.6667 15.1666 18.0697 15.1666 17.3333C15.1666 16.597 15.7636 16 16.5 16C17.2363 16 17.8333 16.597 17.8333 17.3333Z" fill="#696576"/>
<path d="M11.1667 22.6667C11.1667 23.403 10.5697 24 9.83333 24C9.09695 24 8.5 23.403 8.5 22.6667C8.5 21.9303 9.09695 21.3333 9.83333 21.3333C10.5697 21.3333 11.1667 21.9303 11.1667 22.6667Z" fill="#696576"/>
<path d="M11.1667 17.3333C11.1667 18.0697 10.5697 18.6667 9.83333 18.6667C9.09695 18.6667 8.5 18.0697 8.5 17.3333C8.5 16.597 9.09695 16 9.83333 16C10.5697 16 11.1667 16.597 11.1667 17.3333Z" fill="#696576"/>
</svg>
