<svg width="17" height="16" viewBox="0 0 17 16" fill="none" xmlns="http://www.w3.org/2000/svg">
<path d="M13.1667 12.0007H13.9167H13.1667ZM3.83337 9.72329H4.58337C4.58337 9.42518 4.40682 9.15538 4.13365 9.03602L3.83337 9.72329ZM13.1667 9.72329L12.8664 9.03602C12.5933 9.15538 12.4167 9.42518 12.4167 9.72329H13.1667ZM10.75 4.66732C10.75 5.08153 11.0858 5.41732 11.5 5.41732C11.9143 5.41732 12.25 5.08153 12.25 4.66732H10.75ZM4.75004 4.66732C4.75004 5.08153 5.08583 5.41732 5.50004 5.41732C5.91425 5.41732 6.25004 5.08153 6.25004 4.66732H4.75004ZM5.16671 3.33398V2.58398C2.91154 2.58398 1.08337 4.41216 1.08337 6.66732H1.83337H2.58337C2.58337 5.24058 3.73997 4.08398 5.16671 4.08398V3.33398ZM11.8334 3.33398V4.08398C13.2601 4.08398 14.4167 5.24058 14.4167 6.66732H15.1667H15.9167C15.9167 4.41216 14.0885 2.58398 11.8334 2.58398V3.33398ZM10.5 14.6673V13.9173H6.50004V14.6673V15.4173H10.5V14.6673ZM6.50004 14.6673V13.9173C5.8503 13.9173 5.43844 13.9157 5.13695 13.8752C4.85703 13.8376 4.78691 13.7791 4.75423 13.7465L4.2239 14.2768L3.69357 14.8071C4.05141 15.165 4.49082 15.3018 4.93708 15.3618C5.36175 15.4189 5.8927 15.4173 6.50004 15.4173V14.6673ZM3.83337 12.0007H3.08337C3.08337 12.608 3.08178 13.1389 3.13888 13.5636C3.19887 14.0099 3.33573 14.4493 3.69357 14.8071L4.2239 14.2768L4.75423 13.7465C4.72154 13.7138 4.66314 13.6437 4.6255 13.3637C4.58497 13.0623 4.58337 12.6504 4.58337 12.0007H3.83337ZM13.1667 12.0007H12.4167C12.4167 12.6504 12.4151 13.0623 12.3746 13.3637C12.3369 13.6437 12.2785 13.7138 12.2459 13.7465L12.7762 14.2768L13.3065 14.8071C13.6644 14.4493 13.8012 14.0099 13.8612 13.5636C13.9183 13.1389 13.9167 12.608 13.9167 12.0007H13.1667ZM10.5 14.6673V15.4173C11.1074 15.4173 11.6383 15.4189 12.063 15.3618C12.5093 15.3018 12.9487 15.165 13.3065 14.8071L12.7762 14.2768L12.2459 13.7465C12.2132 13.7791 12.1431 13.8376 11.8631 13.8752C11.5616 13.9157 11.1498 13.9173 10.5 13.9173V14.6673ZM5.16671 3.33398V4.08398C5.2969 4.08398 5.42439 4.09356 5.54862 4.11192L5.65828 3.36998L5.76795 2.62804C5.57134 2.59898 5.37054 2.58398 5.16671 2.58398V3.33398ZM8.50004 1.33398V0.583984C6.84934 0.583984 5.44959 1.65006 4.94801 3.12911L5.65828 3.36998L6.36855 3.61084C6.66998 2.72198 7.51148 2.08398 8.50004 2.08398V1.33398ZM5.65828 3.36998L4.94801 3.12911C4.81945 3.50823 4.75004 3.91378 4.75004 4.33398H5.50004H6.25004C6.25004 4.07974 6.29192 3.83683 6.36855 3.61084L5.65828 3.36998ZM11.8334 3.33398V2.58398C11.6295 2.58398 11.4287 2.59898 11.2321 2.62804L11.3418 3.36998L11.4515 4.11192C11.5757 4.09356 11.7032 4.08398 11.8334 4.08398V3.33398ZM8.50004 1.33398V2.08398C9.4886 2.08398 10.3301 2.72198 10.6315 3.61084L11.3418 3.36998L12.0521 3.12911C11.5505 1.65006 10.1507 0.583984 8.50004 0.583984V1.33398ZM11.3418 3.36998L10.6315 3.61084C10.7082 3.83683 10.75 4.07974 10.75 4.33398H11.5H12.25C12.25 3.91378 12.1806 3.50823 12.0521 3.12911L11.3418 3.36998ZM3.83337 12.0007H4.58337V9.72329H3.83337H3.08337V12.0007H3.83337ZM3.83337 9.72329L4.13365 9.03602C3.2197 8.6367 2.58337 7.72548 2.58337 6.66732H1.83337H1.08337C1.08337 8.34291 2.09251 9.78113 3.5331 10.4106L3.83337 9.72329ZM13.1667 9.72329H12.4167L12.4167 12.0007H13.1667H13.9167L13.9167 9.72329L13.1667 9.72329ZM15.1667 6.66732H14.4167C14.4167 7.72548 13.7804 8.6367 12.8664 9.03602L13.1667 9.72329L13.467 10.4106C14.9076 9.78113 15.9167 8.34291 15.9167 6.66732H15.1667ZM11.5 4.33398H10.75V4.66732H11.5H12.25V4.33398H11.5ZM5.50004 4.33398H4.75004V4.66732H5.50004H6.25004V4.33398H5.50004Z" fill="#F2F2F3"/>
<path opacity="0.5" d="M3.83337 12H13.1667" stroke="#F2F2F3" stroke-width="1.5" stroke-linecap="round" stroke-linejoin="round"/>
</svg>
