<svg width="40" height="40" viewBox="0 0 40 40" fill="none" xmlns="http://www.w3.org/2000/svg">
<path d="M0 16C0 7.16344 7.16344 0 16 0H24C32.8366 0 40 7.16344 40 16V24C40 32.8366 32.8366 40 24 40H16C7.16344 40 0 32.8366 0 24V16Z" fill="#1A191D"/>
<path d="M15.1 26.3C14.7134 26.6866 14.0866 26.6866 13.7 26.3C13.3134 25.9134 13.3134 25.2866 13.7 24.9L18.6 20L13.7 15.1C13.3134 14.7134 13.3134 14.0866 13.7 13.7C14.0866 13.3134 14.7134 13.3134 15.1 13.7L20 18.6L24.9 13.7C25.2866 13.3134 25.9134 13.3134 26.3 13.7C26.6866 14.0866 26.6866 14.7134 26.3 15.1L21.4 20L26.3 24.9C26.6866 25.2866 26.6866 25.9134 26.3 26.3C25.9134 26.6866 25.2866 26.6866 24.9 26.3L20 21.4L15.1 26.3Z" fill="#F2F2F3"/>
</svg>
