<svg width="36" height="36" viewBox="0 0 36 36" fill="none" xmlns="http://www.w3.org/2000/svg">
<path d="M0 12C0 5.37258 5.37258 0 12 0H24C30.6274 0 36 5.37258 36 12V24C36 30.6274 30.6274 36 24 36H12C5.37258 36 0 30.6274 0 24V12Z" fill="#E27B00" fill-opacity="0.12"/>
<g clip-path="url(#clip0_5025_34191)">
<path d="M20.8275 11.3774L20.3258 11.9349L20.8275 11.3774ZM24.1265 14.3465L23.6248 14.9039V14.9039L24.1265 14.3465ZM26.0451 16.4611L25.36 16.7662L25.36 16.7662L26.0451 16.4611ZM10.6431 25.3564L11.1734 24.826L11.1734 24.826L10.6431 25.3564ZM25.3571 25.3564L24.8268 24.826L24.8268 24.826L25.3571 25.3564ZM19.6667 26.3327V25.5827H16.3334V26.3327V27.0827H19.6667V26.3327ZM9.66675 19.666H10.4167V16.3327H9.66675H8.91675V19.666H9.66675ZM26.3334 19.3018H25.5834V19.666H26.3334H27.0834V19.3018H26.3334ZM20.8275 11.3774L20.3258 11.9349L23.6248 14.9039L24.1265 14.3465L24.6282 13.789L21.3293 10.8199L20.8275 11.3774ZM26.3334 19.3018H27.0834C27.0834 17.9058 27.0986 16.983 26.7302 16.156L26.0451 16.4611L25.36 16.7662C25.5683 17.234 25.5834 17.7733 25.5834 19.3018H26.3334ZM24.1265 14.3465L23.6248 14.9039C24.7609 15.9264 25.1516 16.2985 25.36 16.7662L26.0451 16.4611L26.7302 16.156C26.3619 15.3289 25.6658 14.7228 24.6282 13.789L24.1265 14.3465ZM16.3582 9.66602V10.416C17.6859 10.416 18.1557 10.4276 18.5724 10.5875L18.8411 9.88728L19.1098 9.18707C18.3733 8.90444 17.5723 8.91602 16.3582 8.91602V9.66602ZM20.8275 11.3774L21.3293 10.8199C20.4312 10.0117 19.8462 9.46965 19.1098 9.18707L18.8411 9.88728L18.5724 10.5875C18.9892 10.7474 19.3441 11.0513 20.3258 11.9349L20.8275 11.3774ZM16.3334 26.3327V25.5827C14.7409 25.5827 13.6219 25.5811 12.7758 25.4673C11.9512 25.3565 11.499 25.1516 11.1734 24.826L10.6431 25.3564L10.1127 25.8867C10.7635 26.5374 11.585 26.8207 12.5759 26.954C13.5452 27.0843 14.7833 27.0827 16.3334 27.0827V26.3327ZM9.66675 19.666H8.91675C8.91675 21.2162 8.91516 22.4542 9.04547 23.4235C9.1787 24.4144 9.462 25.236 10.1127 25.8867L10.6431 25.3564L11.1734 24.826C10.8478 24.5005 10.643 24.0482 10.5321 23.2237C10.4183 22.3775 10.4167 21.2586 10.4167 19.666H9.66675ZM19.6667 26.3327V27.0827C21.2169 27.0827 22.455 27.0843 23.4243 26.954C24.4151 26.8207 25.2367 26.5374 25.8874 25.8867L25.3571 25.3564L24.8268 24.826C24.5012 25.1516 24.0489 25.3565 23.2244 25.4673C22.3783 25.5811 21.2593 25.5827 19.6667 25.5827V26.3327ZM26.3334 19.666H25.5834C25.5834 21.2586 25.5818 22.3775 25.4681 23.2237C25.3572 24.0482 25.1524 24.5005 24.8268 24.826L25.3571 25.3564L25.8874 25.8867C26.5382 25.236 26.8215 24.4144 26.9547 23.4235C27.085 22.4542 27.0834 21.2162 27.0834 19.666H26.3334ZM9.66675 16.3327H10.4167C10.4167 14.7401 10.4183 13.6212 10.5321 12.775C10.643 11.9505 10.8478 11.4982 11.1734 11.1727L10.6431 10.6423L10.1127 10.112C9.462 10.7627 9.1787 11.5843 9.04547 12.5752C8.91516 13.5445 8.91675 14.7825 8.91675 16.3327H9.66675ZM16.3582 9.66602V8.91602C14.7997 8.91602 13.5557 8.91444 12.5826 9.04468C11.5884 9.17774 10.764 9.46068 10.1127 10.112L10.6431 10.6423L11.1734 11.1727C11.4984 10.8477 11.952 10.6424 12.7815 10.5314C13.6321 10.4176 14.7575 10.416 16.3582 10.416V9.66602Z" fill="#E27B00"/>
<path opacity="0.5" d="M13 20.084H19.6667" stroke="#E27B00" stroke-width="1.5" stroke-linecap="round"/>
<path opacity="0.5" d="M13 23H17.5833" stroke="#E27B00" stroke-width="1.5" stroke-linecap="round"/>
<path opacity="0.5" d="M18.8333 10.084V12.1673C18.8333 14.1315 18.8333 15.1136 19.4434 15.7238C20.0536 16.334 21.0357 16.334 22.9999 16.334H26.3333" stroke="#E27B00" stroke-width="1.5"/>
</g>
<defs>
<clipPath id="clip0_5025_34191">
<rect width="20" height="20" fill="white" transform="translate(8 8)"/>
</clipPath>
</defs>
</svg>
