<svg width="14" height="14" viewBox="0 0 14 14" fill="none" xmlns="http://www.w3.org/2000/svg">
<g clip-path="url(#clip0_9235_29604)">
<path d="M7.54867 6.13271L7.29316 6.5587L7.54867 6.13271ZM7.23944 4.67971L7.73467 4.74862C7.76792 4.47449 7.57315 4.2214 7.29964 4.18334L7.23944 4.67971ZM7.18451 5.62617L6.701 5.74129L7.18451 5.62617ZM9.38682 5.93262L9.82682 6.17626L9.38682 5.93262ZM8.91391 6.32269L9.05932 6.80446L9.05932 6.80446L8.91391 6.32269ZM9.40095 2.30701L9.65646 1.88102L9.40095 2.30701ZM9.76511 2.81355L10.2486 2.69842L10.2486 2.69842L9.76511 2.81355ZM8.03571 2.11703L7.8903 1.63525L8.03571 2.11703ZM7.39014 3.43717L7.32994 3.93353C7.60345 3.97159 7.85212 3.78021 7.88537 3.50608L7.39014 3.43717ZM7.5628 2.50709L7.1228 2.26346L7.1228 2.26346L7.5628 2.50709ZM1.6519 5.31216L1.3964 5.73815L1.6519 5.31216ZM1.28774 4.80561L0.804231 4.92074L1.28774 4.80561ZM3.66271 4.182L3.72291 3.68563C3.44941 3.64757 3.20073 3.83895 3.16748 4.11308L3.66271 4.182ZM3.49005 5.11207L3.93005 5.35571L3.49005 5.11207ZM3.01714 5.50214L3.16255 5.98391L3.01714 5.50214ZM3.50418 1.48646L3.75969 1.06047L3.50418 1.48646ZM3.81341 2.93946L3.31818 2.87055C3.28494 3.14468 3.4797 3.39776 3.75321 3.43582L3.81341 2.93946ZM3.86834 1.993L4.35186 1.87787L3.86834 1.993ZM2.13894 1.29648L1.99353 0.814703L2.13894 1.29648ZM1.66604 1.68654L1.22604 1.44291L1.66604 1.68654ZM9.7353 3.55292L9.24007 3.48401L9.03913 5.14072L9.53436 5.20964L10.0296 5.27855L10.2305 3.62183L9.7353 3.55292ZM8.22364 6.29075L8.28384 5.79439C8.09644 5.76831 7.98242 5.75213 7.89751 5.73395C7.85805 5.7255 7.83434 5.71849 7.82004 5.71339C7.81323 5.71096 7.80909 5.70915 7.80691 5.70812C7.80581 5.7076 7.80511 5.70724 7.80472 5.70703C7.80435 5.70683 7.80418 5.70673 7.80418 5.70672L7.54867 6.13271L7.29316 6.5587C7.42997 6.64296 7.57143 6.68534 7.7054 6.71403C7.83428 6.74162 7.99051 6.76305 8.16344 6.78712L8.22364 6.29075ZM7.23944 4.67971L6.74421 4.61079C6.72118 4.80072 6.69582 5.00901 6.68187 5.19053C6.6699 5.3463 6.65741 5.56823 6.701 5.74129L7.18451 5.62617L7.66802 5.51104C7.67301 5.53082 7.66866 5.52419 7.66833 5.47033C7.66805 5.42358 7.67074 5.36166 7.67667 5.2845C7.68859 5.12939 7.71089 4.94466 7.73467 4.74862L7.23944 4.67971ZM7.54867 6.13271L7.80418 5.70672C7.74429 5.66983 7.6911 5.60267 7.66802 5.51104L7.18451 5.62617L6.701 5.74129C6.78566 6.07744 6.99447 6.3747 7.29316 6.5587L7.54867 6.13271ZM9.53436 5.20964L9.03913 5.14072C9.01496 5.34006 8.99941 5.46627 8.98165 5.56145C8.9646 5.65281 8.95125 5.68073 8.94681 5.68898L9.38682 5.93262L9.82682 6.17626C9.89972 6.04048 9.93673 5.89989 9.96242 5.76225C9.98739 5.62844 10.007 5.46517 10.0296 5.27855L9.53436 5.20964ZM8.22364 6.29075L8.16344 6.78712C8.33637 6.81118 8.49253 6.83322 8.62371 6.84181C8.76008 6.85074 8.90696 6.84849 9.05932 6.80446L8.91391 6.32269L8.7685 5.84091C8.76849 5.84091 8.76831 5.84097 8.7679 5.84106C8.76748 5.84115 8.76671 5.84132 8.76552 5.84152C8.76317 5.84191 8.75874 5.84253 8.75158 5.84302C8.73653 5.84403 8.71194 5.84432 8.67177 5.84169C8.58534 5.83603 8.47125 5.82047 8.28384 5.79439L8.22364 6.29075ZM9.38682 5.93262L8.94681 5.68898C8.90264 5.77126 8.8352 5.82164 8.7685 5.84091L8.91391 6.32269L9.05932 6.80446C9.392 6.70833 9.66478 6.47808 9.82682 6.17626L9.38682 5.93262ZM8.72598 2.14896L8.66578 2.64532C8.85318 2.6714 8.9672 2.68758 9.05211 2.70576C9.09157 2.71421 9.11528 2.72122 9.12958 2.72633C9.13639 2.72875 9.14053 2.73057 9.14271 2.73159C9.14381 2.73211 9.14452 2.73248 9.1449 2.73268C9.14527 2.73289 9.14544 2.73299 9.14544 2.73299L9.40095 2.30701L9.65646 1.88102C9.51965 1.79675 9.37819 1.75438 9.24422 1.72569C9.11534 1.69809 8.95911 1.67666 8.78618 1.6526L8.72598 2.14896ZM9.7353 3.55292L10.2305 3.62183C10.2532 3.43521 10.2732 3.272 10.281 3.1358C10.289 2.9957 10.2867 2.84965 10.2486 2.69842L9.76511 2.81355L9.2816 2.92868C9.28391 2.93787 9.29016 2.96852 9.28485 3.06151C9.27932 3.15839 9.26424 3.28467 9.24007 3.48401L9.7353 3.55292ZM9.40095 2.30701L9.14544 2.73299C9.20533 2.76988 9.25851 2.83704 9.2816 2.92868L9.76511 2.81355L10.2486 2.69842C10.164 2.36227 9.95515 2.06501 9.65646 1.88102L9.40095 2.30701ZM8.72598 2.14896L8.78618 1.6526C8.61325 1.62854 8.45709 1.60649 8.32591 1.5979C8.18954 1.58897 8.04266 1.59122 7.8903 1.63525L8.03571 2.11703L8.18112 2.5988C8.18113 2.5988 8.18131 2.59875 8.18172 2.59866C8.18214 2.59856 8.18291 2.5984 8.1841 2.5982C8.18645 2.5978 8.19088 2.59719 8.19805 2.5967C8.21309 2.59568 8.23768 2.59539 8.27785 2.59802C8.36428 2.60368 8.47837 2.61925 8.66578 2.64532L8.72598 2.14896ZM7.39014 3.43717L7.88537 3.50608C7.90915 3.31004 7.93165 3.12533 7.95712 2.97211C7.9698 2.89589 7.98196 2.83529 7.99339 2.79017C8.00655 2.73819 8.01234 2.73297 8.00281 2.75073L7.5628 2.50709L7.1228 2.26346C7.03938 2.41884 6.99852 2.63683 6.97293 2.7907C6.94311 2.97002 6.91795 3.17834 6.89491 3.36826L7.39014 3.43717ZM8.03571 2.11703L7.8903 1.63525C7.55763 1.73139 7.28484 1.96164 7.1228 2.26346L7.5628 2.50709L8.00281 2.75073C8.04698 2.66845 8.11441 2.61808 8.18112 2.5988L8.03571 2.11703ZM1.31756 4.06625L1.81279 4.13516L2.01372 2.47844L1.51849 2.40953L1.02326 2.34062L0.822328 3.99733L1.31756 4.06625ZM2.32688 5.4702L2.38708 4.97384C2.19967 4.94776 2.08566 4.93158 2.00075 4.9134C1.96128 4.90495 1.93758 4.89794 1.92327 4.89284C1.91646 4.89041 1.91233 4.8886 1.91015 4.88757C1.90904 4.88705 1.90834 4.88669 1.90796 4.88648C1.90758 4.88628 1.90742 4.88618 1.90741 4.88617L1.6519 5.31216L1.3964 5.73815C1.5332 5.82241 1.67467 5.86479 1.80864 5.89348C1.93751 5.92107 2.09375 5.9425 2.26668 5.96656L2.32688 5.4702ZM1.31756 4.06625L0.822328 3.99733C0.799694 4.18396 0.779661 4.34716 0.771887 4.48336C0.76389 4.62346 0.766142 4.76952 0.804231 4.92074L1.28774 4.80561L1.77126 4.69049C1.76894 4.68129 1.76269 4.65064 1.768 4.55766C1.77353 4.46077 1.78861 4.3345 1.81279 4.13516L1.31756 4.06625ZM1.6519 5.31216L1.90741 4.88617C1.84752 4.84928 1.79434 4.78212 1.77126 4.69049L1.28774 4.80561L0.804231 4.92074C0.888896 5.25689 1.0977 5.55415 1.3964 5.73815L1.6519 5.31216ZM3.66271 4.182L3.16748 4.11308C3.14371 4.30913 3.12121 4.49383 3.09573 4.64705C3.08305 4.72328 3.07089 4.78388 3.05946 4.829C3.0463 4.88098 3.04051 4.8862 3.05005 4.86843L3.49005 5.11207L3.93005 5.35571C4.01347 5.20032 4.05433 4.98233 4.07992 4.82846C4.10974 4.64915 4.13491 4.44083 4.15794 4.25091L3.66271 4.182ZM2.32688 5.4702L2.26668 5.96656C2.43961 5.99063 2.59576 6.01267 2.72695 6.02126C2.86331 6.03019 3.01019 6.02794 3.16255 5.98391L3.01714 5.50214L2.87173 5.02036C2.87173 5.02036 2.87155 5.02042 2.87113 5.02051C2.87072 5.0206 2.86995 5.02077 2.86876 5.02097C2.8664 5.02136 2.86197 5.02198 2.85481 5.02246C2.83976 5.02348 2.81517 5.02377 2.775 5.02114C2.68857 5.01548 2.57448 4.99992 2.38708 4.97384L2.32688 5.4702ZM3.49005 5.11207L3.05005 4.86843C3.00587 4.95071 2.93844 5.00108 2.87173 5.02036L3.01714 5.50214L3.16255 5.98391C3.49523 5.88778 3.76801 5.65753 3.93005 5.35571L3.49005 5.11207ZM2.82921 1.32841L2.76901 1.82477C2.95641 1.85085 3.07043 1.86703 3.15534 1.88521C3.19481 1.89366 3.21851 1.90067 3.23281 1.90577C3.23962 1.9082 3.24376 1.91002 3.24594 1.91104C3.24704 1.91156 3.24775 1.91193 3.24813 1.91213C3.24851 1.91234 3.24867 1.91244 3.24868 1.91244L3.50418 1.48646L3.75969 1.06047C3.62288 0.9762 3.48142 0.933826 3.34745 0.905138C3.21857 0.877541 3.06234 0.856113 2.88941 0.832049L2.82921 1.32841ZM3.81341 2.93946L4.30864 3.00837C4.33168 2.81845 4.35704 2.61016 4.37098 2.42863C4.38295 2.27287 4.39544 2.05093 4.35186 1.87787L3.86834 1.993L3.38483 2.10813C3.37984 2.08834 3.3842 2.09497 3.38452 2.14883C3.38481 2.19558 3.38211 2.2575 3.37618 2.33466C3.36427 2.48977 3.34196 2.6745 3.31818 2.87055L3.81341 2.93946ZM3.50418 1.48646L3.24868 1.91244C3.30857 1.94933 3.36175 2.01649 3.38483 2.10813L3.86834 1.993L4.35186 1.87787C4.26719 1.54172 4.05839 1.24446 3.75969 1.06047L3.50418 1.48646ZM2.82921 1.32841L2.88941 0.832049C2.71648 0.807986 2.56032 0.785944 2.42914 0.777353C2.29277 0.768422 2.1459 0.770674 1.99353 0.814703L2.13894 1.29648L2.28435 1.77825C2.28436 1.77825 2.28454 1.7782 2.28495 1.77811C2.28537 1.77801 2.28614 1.77785 2.28733 1.77765C2.28968 1.77725 2.29412 1.77663 2.30128 1.77615C2.31632 1.77513 2.34091 1.77484 2.38109 1.77747C2.46751 1.78313 2.5816 1.7987 2.76901 1.82477L2.82921 1.32841ZM1.51849 2.40953L2.01372 2.47844C2.03789 2.2791 2.05344 2.15289 2.07121 2.05771C2.08826 1.96636 2.10161 1.93844 2.10604 1.93018L1.66604 1.68654L1.22604 1.44291C1.15314 1.57869 1.11612 1.71927 1.09043 1.85691C1.06546 1.99072 1.0459 2.15399 1.02326 2.34062L1.51849 2.40953ZM2.13894 1.29648L1.99353 0.814703C1.66086 0.910838 1.38808 1.14109 1.22604 1.44291L1.66604 1.68654L2.10604 1.93018C2.15021 1.8479 2.21765 1.79753 2.28435 1.77825L2.13894 1.29648ZM3.81341 2.93946L3.75321 3.43582L7.32994 3.93353L7.39014 3.43717L7.45034 2.94081L3.87361 2.4431L3.81341 2.93946ZM7.23944 4.67971L7.29964 4.18334L3.72291 3.68563L3.66271 4.182L3.60251 4.67836L7.17924 5.17607L7.23944 4.67971Z" fill="#696576"/>
<path opacity="0.5" d="M6.60946 12.2568L6.91395 12.6453L6.60946 12.2568ZM6.73661 10.7727L6.25602 10.9107C6.189 10.6428 6.34985 10.3639 6.61528 10.2877L6.73661 10.7727ZM6.90789 11.7031L7.39972 11.751L6.90789 11.7031ZM4.76275 12.3188L4.35916 12.6236L4.76275 12.3188ZM5.27966 12.6384L5.19733 13.138L5.27966 12.6384ZM4.30119 8.727L3.9967 8.33847L4.30119 8.727ZM4.00276 9.28067L3.51094 9.23281L4.00276 9.28067ZM5.63099 8.34533L5.71332 7.84578L5.63099 8.34533ZM6.43386 9.56245L6.55519 10.0475C6.28977 10.1237 6.02027 9.96827 5.95326 9.70038L6.43386 9.56245ZM6.1479 8.66499L6.55149 8.36014L6.1479 8.66499ZM12.3532 10.6083L12.6577 10.9968L12.6577 10.9968L12.3532 10.6083ZM12.6516 10.0546L13.1434 10.1025L12.6516 10.0546ZM10.2205 9.77282L10.0992 9.28777C10.3646 9.21159 10.6341 9.367 10.7011 9.63489L10.2205 9.77282ZM10.5065 10.6703L10.1029 10.9751L10.5065 10.6703ZM11.0234 10.9899L10.941 11.4895L11.0234 10.9899ZM10.0449 7.0785L9.74041 6.68997L10.0449 7.0785ZM9.91774 8.56254L10.3983 8.4246C10.4654 8.69249 10.3045 8.97141 10.0391 9.04759L9.91774 8.56254ZM9.74646 7.63217L9.25464 7.58431L9.25464 7.58431L9.74646 7.63217ZM11.3747 6.69683L11.457 6.19728L11.457 6.19728L11.3747 6.69683ZM11.8916 7.0165L12.2952 6.71164L11.8916 7.0165ZM4.12358 10.0093L4.60417 9.87139L5.00785 11.4851L4.52726 11.623L4.04666 11.761L3.64298 10.1473L4.12358 10.0093ZM5.95992 12.509L5.83858 12.024C6.02105 11.9716 6.13229 11.9394 6.21443 11.9092C6.25265 11.8952 6.2755 11.8848 6.2893 11.8776C6.29588 11.8742 6.29989 11.8717 6.30206 11.8703C6.30415 11.8689 6.30495 11.8683 6.30497 11.8682L6.60946 12.2568L6.91395 12.6453C6.78926 12.7478 6.65483 12.8096 6.52589 12.8569C6.40177 12.9024 6.24978 12.9457 6.08126 12.9941L5.95992 12.509ZM6.73661 10.7727L7.21721 10.6348C7.26348 10.8198 7.31436 11.0227 7.35062 11.2008C7.38169 11.3535 7.42166 11.5724 7.39972 11.751L6.90789 11.7031L6.41607 11.6552C6.41351 11.6761 6.41705 11.6693 6.41075 11.616C6.40528 11.5698 6.39499 11.509 6.37961 11.4334C6.34868 11.2815 6.30379 11.1017 6.25602 10.9107L6.73661 10.7727ZM6.60946 12.2568L6.30497 11.8682C6.36059 11.8225 6.40464 11.7483 6.41607 11.6552L6.90789 11.7031L7.39972 11.751C7.35716 12.0972 7.1865 12.4213 6.91395 12.6453L6.60946 12.2568ZM4.52726 11.623L5.00785 11.4851C5.05644 11.6793 5.08738 11.802 5.11668 11.8937C5.14478 11.9816 5.16128 12.0068 5.16634 12.0139L4.76275 12.3188L4.35916 12.6236C4.2698 12.4989 4.21557 12.3643 4.17304 12.2312C4.1317 12.1019 4.09212 11.9427 4.04666 11.761L4.52726 11.623ZM5.95992 12.509L6.08126 12.9941C5.91275 13.0424 5.76089 13.0863 5.63216 13.1134C5.49842 13.1415 5.35315 13.16 5.19733 13.138L5.27966 12.6384L5.36199 12.1389C5.36202 12.1389 5.36302 12.139 5.36546 12.1391C5.368 12.1392 5.37262 12.1391 5.37992 12.1386C5.39525 12.1375 5.41989 12.1342 5.45953 12.1259C5.54473 12.108 5.65612 12.0763 5.83858 12.024L5.95992 12.509ZM4.76275 12.3188L5.16634 12.0139C5.21967 12.0884 5.29248 12.1291 5.36199 12.1389L5.27966 12.6384L5.19733 13.138C4.85672 13.09 4.55766 12.9007 4.35916 12.6236L4.76275 12.3188ZM4.95073 8.47475L5.07207 8.9598C4.8896 9.01217 4.77836 9.04441 4.69622 9.07454C4.658 9.08856 4.63515 9.09895 4.62135 9.10617C4.61477 9.10961 4.61076 9.11207 4.60859 9.11348C4.6065 9.11484 4.6057 9.11551 4.60568 9.11553L4.30119 8.727L3.9967 8.33847C4.12139 8.23598 4.25582 8.17419 4.38476 8.12689C4.50888 8.08137 4.66088 8.03806 4.82939 7.98969L4.95073 8.47475ZM4.12358 10.0093L3.64298 10.1473C3.59752 9.96554 3.55747 9.80643 3.53292 9.67232C3.50765 9.53432 3.49177 9.3887 3.51094 9.23281L4.00276 9.28067L4.49458 9.32853C4.49349 9.33737 4.49101 9.36811 4.5077 9.45926C4.52511 9.55431 4.55559 9.67716 4.60417 9.87139L4.12358 10.0093ZM4.30119 8.727L4.60568 9.11553C4.55006 9.16124 4.50601 9.23551 4.49458 9.32853L4.00276 9.28067L3.51094 9.23281C3.55349 8.88654 3.72415 8.56248 3.9967 8.33847L4.30119 8.727ZM4.95073 8.47475L4.82939 7.98969C4.99791 7.94133 5.14976 7.89743 5.27849 7.87038C5.41224 7.84228 5.5575 7.82381 5.71332 7.84578L5.63099 8.34533L5.54866 8.84488C5.54863 8.84488 5.54763 8.84473 5.54519 8.84467C5.54265 8.84461 5.53803 8.84463 5.53073 8.84517C5.51541 8.84631 5.49076 8.84955 5.45112 8.85788C5.36592 8.87578 5.25453 8.90743 5.07207 8.9598L4.95073 8.47475ZM6.43386 9.56245L5.95326 9.70038C5.90548 9.5094 5.86041 9.32962 5.81628 9.18149C5.79433 9.10779 5.77483 9.04959 5.758 9.00666C5.73859 8.95714 5.73237 8.95319 5.74431 8.96985L6.1479 8.66499L6.55149 8.36014C6.65383 8.503 6.72143 8.71404 6.76576 8.86286C6.81749 9.03651 6.86818 9.23955 6.91445 9.42451L6.43386 9.56245ZM5.63099 8.34533L5.71332 7.84578C6.05394 7.89381 6.35299 8.08306 6.55149 8.36014L6.1479 8.66499L5.74431 8.96985C5.69098 8.89541 5.61817 8.85468 5.54866 8.84488L5.63099 8.34533ZM12.5308 9.32595L12.0502 9.46389L11.6465 7.85017L12.1271 7.71224L12.6077 7.5743L13.0114 9.18801L12.5308 9.32595ZM11.7036 10.8605L11.5823 10.3755C11.7648 10.3231 11.876 10.2909 11.9581 10.2607C11.9964 10.2467 12.0192 10.2363 12.033 10.2291C12.0396 10.2257 12.0436 10.2232 12.0458 10.2218C12.0479 10.2204 12.0487 10.2198 12.0487 10.2197L12.3532 10.6083L12.6577 10.9968C12.533 11.0993 12.3985 11.1611 12.2696 11.2084C12.1455 11.2539 11.9935 11.2972 11.825 11.3456L11.7036 10.8605ZM12.5308 9.32595L13.0114 9.18801C13.0568 9.36973 13.0969 9.52885 13.1214 9.66295C13.1467 9.80096 13.1626 9.94657 13.1434 10.1025L12.6516 10.0546L12.1598 10.0067C12.1609 9.9979 12.1633 9.96717 12.1467 9.87601C12.1292 9.78096 12.0988 9.65811 12.0502 9.46389L12.5308 9.32595ZM12.3532 10.6083L12.0487 10.2197C12.1043 10.174 12.1483 10.0998 12.1598 10.0067L12.6516 10.0546L13.1434 10.1025C13.1009 10.4487 12.9302 10.7728 12.6577 10.9968L12.3532 10.6083ZM10.2205 9.77282L10.7011 9.63489C10.7489 9.82588 10.7939 10.0057 10.8381 10.1538C10.86 10.2275 10.8795 10.2857 10.8964 10.3286C10.9158 10.3781 10.922 10.3821 10.91 10.3654L10.5065 10.6703L10.1029 10.9751C10.0005 10.8323 9.93292 10.6212 9.88859 10.4724C9.83686 10.2988 9.78617 10.0957 9.7399 9.91076L10.2205 9.77282ZM11.7036 10.8605L11.825 11.3456C11.6564 11.3939 11.5046 11.4378 11.3759 11.4649C11.2421 11.493 11.0969 11.5115 10.941 11.4895L11.0234 10.9899L11.1057 10.4904C11.1057 10.4904 11.1067 10.4905 11.1092 10.4906C11.1117 10.4907 11.1163 10.4906 11.1236 10.4901C11.1389 10.489 11.1636 10.4857 11.2032 10.4774C11.2884 10.4595 11.3998 10.4278 11.5823 10.3755L11.7036 10.8605ZM10.5065 10.6703L10.91 10.3654C10.9634 10.4399 11.0362 10.4806 11.1057 10.4904L11.0234 10.9899L10.941 11.4895C10.6004 11.4415 10.3014 11.2522 10.1029 10.9751L10.5065 10.6703ZM10.6944 6.82625L10.8158 7.3113C10.6333 7.36367 10.5221 7.39591 10.4399 7.42604C10.4017 7.44006 10.3789 7.45046 10.3651 7.45767C10.3585 7.46111 10.3545 7.46357 10.3523 7.46498C10.3502 7.46635 10.3494 7.46701 10.3494 7.46703L10.0449 7.0785L9.74041 6.68997C9.86509 6.58749 9.99953 6.52569 10.1285 6.47839C10.2526 6.43287 10.4046 6.38956 10.5731 6.34119L10.6944 6.82625ZM9.91774 8.56254L9.43714 8.70048C9.39087 8.51552 9.33999 8.31253 9.30374 8.13444C9.27266 7.98181 9.2327 7.76284 9.25464 7.58431L9.74646 7.63217L10.2383 7.68003C10.2408 7.65921 10.2373 7.66597 10.2436 7.71925C10.2491 7.76544 10.2594 7.82629 10.2747 7.90186C10.3057 8.05379 10.3506 8.23362 10.3983 8.4246L9.91774 8.56254ZM10.0449 7.0785L10.3494 7.46703C10.2938 7.51274 10.2497 7.58701 10.2383 7.68003L9.74646 7.63217L9.25464 7.58431C9.2972 7.23804 9.46785 6.91398 9.74041 6.68997L10.0449 7.0785ZM10.6944 6.82625L10.5731 6.34119C10.7416 6.29283 10.8935 6.24893 11.0222 6.22188C11.1559 6.19379 11.3012 6.17531 11.457 6.19728L11.3747 6.69683L11.2924 7.19639C11.2923 7.19638 11.2913 7.19623 11.2889 7.19617C11.2864 7.19611 11.2817 7.19613 11.2744 7.19667C11.2591 7.19781 11.2345 7.20105 11.1948 7.20938C11.1096 7.22728 10.9982 7.25893 10.8158 7.3113L10.6944 6.82625ZM12.1271 7.71224L11.6465 7.85017C11.5979 7.65594 11.567 7.53323 11.5377 7.44159C11.5096 7.35371 11.4931 7.32842 11.488 7.32135L11.8916 7.0165L12.2952 6.71164C12.3846 6.83639 12.4388 6.971 12.4813 7.10405C12.5226 7.23333 12.5622 7.39258 12.6077 7.5743L12.1271 7.71224ZM11.3747 6.69683L11.457 6.19728C11.7976 6.24531 12.0967 6.43456 12.2952 6.71164L11.8916 7.0165L11.488 7.32135C11.4347 7.24691 11.3619 7.20619 11.2924 7.19639L11.3747 6.69683ZM9.91774 8.56254L10.0391 9.04759L6.55519 10.0475L6.43386 9.56245L6.31252 9.0774L9.7964 8.07749L9.91774 8.56254ZM6.73661 10.7727L6.61528 10.2877L10.0992 9.28777L10.2205 9.77282L10.3418 10.2579L6.85795 11.2578L6.73661 10.7727Z" fill="#696576"/>
</g>
<defs>
<clipPath id="clip0_9235_29604">
<rect width="14" height="14" fill="white"/>
</clipPath>
</defs>
</svg>
