<svg width="16" height="16" viewBox="0 0 16 16" fill="none" xmlns="http://www.w3.org/2000/svg">
<path d="M11.4898 11.2322L11.2028 11.9251L11.4898 11.2322ZM10.6667 9.00033H11.4167C11.4167 8.58611 11.0809 8.25033 10.6667 8.25033V9.00033ZM10.7682 10.5106L10.0753 10.7976V10.7976L10.7682 10.5106ZM14.5652 10.5106L15.2581 10.7976V10.7976L14.5652 10.5106ZM13.8436 11.2322L13.5566 10.5393L13.8436 11.2322ZM13.8436 4.76849L13.5566 5.4614V5.4614L13.8436 4.76849ZM14.5652 5.49008L15.2581 5.20307L14.5652 5.49008ZM11.4898 4.76849L11.2028 4.07558L11.2028 4.07558L11.4898 4.76849ZM10.6667 7.00033V7.75033C11.0809 7.75033 11.4167 7.41454 11.4167 7.00033H10.6667ZM10.7682 5.49008L10.0753 5.20307L10.7682 5.49008ZM2.15646 11.2322L1.86945 11.9251L2.15646 11.2322ZM1.43487 10.5106L0.741958 10.7976H0.741958L1.43487 10.5106ZM5.33337 9.00033V8.25033C4.91916 8.25033 4.58337 8.58611 4.58337 9.00033H5.33337ZM5.23188 10.5106L5.92479 10.7976V10.7976L5.23188 10.5106ZM4.51029 11.2322L4.7973 11.9251L4.51029 11.2322ZM4.51029 4.76849L4.7973 4.07558L4.7973 4.07558L4.51029 4.76849ZM5.33337 7.00033H4.58337C4.58337 7.41454 4.91916 7.75033 5.33337 7.75033V7.00033ZM5.23188 5.49008L5.92479 5.20307L5.23188 5.49008ZM2.15646 4.76849L1.86945 4.07558L2.15646 4.76849ZM1.43487 5.49008L0.741958 5.20307L1.43487 5.49008ZM14.6667 6.66699H13.9167V9.33366H14.6667H15.4167V6.66699H14.6667ZM12.6667 11.3337V10.5837C12.3458 10.5837 12.1427 10.5833 11.9882 10.5727C11.8405 10.5626 11.7927 10.5458 11.7768 10.5393L11.4898 11.2322L11.2028 11.9251C11.4319 12.02 11.662 12.0539 11.8861 12.0692C12.1035 12.0841 12.3663 12.0837 12.6667 12.0837V11.3337ZM10.6667 9.00033H9.91671C9.91671 9.30601 9.91654 9.64136 9.93023 9.93183C9.9371 10.0777 9.94797 10.2249 9.96642 10.36C9.98339 10.4844 10.0127 10.6465 10.0753 10.7976L10.7682 10.5106L11.4611 10.2236C11.473 10.2521 11.4642 10.2419 11.4526 10.1571C11.4425 10.0832 11.4344 9.98464 11.4286 9.86124C11.4169 9.61315 11.4167 9.3159 11.4167 9.00033H10.6667ZM11.4898 11.2322L11.7768 10.5393C11.6339 10.4801 11.5203 10.3665 11.4611 10.2236L10.7682 10.5106L10.0753 10.7976C10.2867 11.3081 10.6923 11.7136 11.2028 11.9251L11.4898 11.2322ZM14.6667 9.33366H13.9167C13.9167 9.65455 13.9163 9.85765 13.9058 10.0121C13.8957 10.1599 13.8789 10.2077 13.8723 10.2236L14.5652 10.5106L15.2581 10.7976C15.353 10.5684 15.387 10.3384 15.4023 10.1143C15.4171 9.89686 15.4167 9.63402 15.4167 9.33366H14.6667ZM12.6667 11.3337V12.0837C12.9671 12.0837 13.2299 12.0841 13.4473 12.0692C13.6714 12.0539 13.9015 12.02 14.1306 11.9251L13.8436 11.2322L13.5566 10.5393C13.5407 10.5458 13.493 10.5626 13.3452 10.5727C13.1907 10.5833 12.9876 10.5837 12.6667 10.5837V11.3337ZM14.5652 10.5106L13.8723 10.2236C13.8131 10.3665 13.6995 10.4801 13.5566 10.5393L13.8436 11.2322L14.1306 11.9251C14.6411 11.7136 15.0467 11.3081 15.2581 10.7976L14.5652 10.5106ZM12.6667 4.66699V5.41699C12.9876 5.41699 13.1907 5.4174 13.3452 5.42794C13.493 5.43802 13.5407 5.45481 13.5566 5.4614L13.8436 4.76849L14.1306 4.07558C13.9015 3.98067 13.6714 3.94671 13.4473 3.93142C13.2299 3.91659 12.9671 3.91699 12.6667 3.91699V4.66699ZM14.6667 6.66699H15.4167C15.4167 6.36663 15.4171 6.10379 15.4023 5.8864C15.387 5.66227 15.353 5.4322 15.2581 5.20307L14.5652 5.49008L13.8723 5.77709C13.8789 5.79299 13.8957 5.84075 13.9058 5.9885C13.9163 6.143 13.9167 6.3461 13.9167 6.66699H14.6667ZM13.8436 4.76849L13.5566 5.4614C13.6995 5.5206 13.8131 5.63416 13.8723 5.77709L14.5652 5.49008L15.2581 5.20307C15.0467 4.69259 14.6411 4.28702 14.1306 4.07558L13.8436 4.76849ZM12.6667 4.66699V3.91699C12.3663 3.91699 12.1035 3.91659 11.8861 3.93142C11.662 3.94671 11.4319 3.98067 11.2028 4.07558L11.4898 4.76849L11.7768 5.4614C11.7927 5.45481 11.8405 5.43802 11.9882 5.42794C12.1427 5.4174 12.3458 5.41699 12.6667 5.41699V4.66699ZM10.6667 7.00033H11.4167C11.4167 6.68476 11.4169 6.3875 11.4286 6.13941C11.4344 6.01601 11.4425 5.91745 11.4526 5.84352C11.4642 5.75877 11.473 5.7485 11.4611 5.77709L10.7682 5.49008L10.0753 5.20307C10.0127 5.35417 9.98339 5.51629 9.96642 5.64061C9.94797 5.77575 9.9371 5.92295 9.93023 6.06882C9.91654 6.35929 9.91671 6.69464 9.91671 7.00033H10.6667ZM11.4898 4.76849L11.2028 4.07558C10.6923 4.28702 10.2867 4.69259 10.0753 5.20307L10.7682 5.49008L11.4611 5.77709C11.5203 5.63416 11.6339 5.5206 11.7768 5.4614L11.4898 4.76849ZM1.33337 9.33366H2.08337V6.66699H1.33337H0.583374V9.33366H1.33337ZM3.33337 11.3337V10.5837C3.01248 10.5837 2.80938 10.5833 2.65489 10.5727C2.50713 10.5626 2.45937 10.5458 2.44348 10.5393L2.15646 11.2322L1.86945 11.9251C2.09858 12.02 2.32865 12.0539 2.55278 12.0692C2.77017 12.0841 3.03301 12.0837 3.33337 12.0837V11.3337ZM1.33337 9.33366H0.583374C0.583374 9.63402 0.582968 9.89686 0.5978 10.1143C0.613093 10.3384 0.647049 10.5684 0.741958 10.7976L1.43487 10.5106L2.12778 10.2236C2.12119 10.2077 2.1044 10.1599 2.09432 10.0121C2.08378 9.85765 2.08337 9.65455 2.08337 9.33366H1.33337ZM2.15646 11.2322L2.44348 10.5393C2.30054 10.4801 2.18698 10.3665 2.12778 10.2236L1.43487 10.5106L0.741958 10.7976C0.953404 11.3081 1.35897 11.7136 1.86945 11.9251L2.15646 11.2322ZM5.33337 9.00033H4.58337C4.58337 9.3159 4.58321 9.61315 4.57152 9.86124C4.5657 9.98464 4.55754 10.0832 4.54745 10.1571C4.53588 10.2419 4.52713 10.2521 4.53897 10.2236L5.23188 10.5106L5.92479 10.7976C5.98738 10.6465 6.01669 10.4844 6.03366 10.36C6.05211 10.2249 6.06298 10.0777 6.06986 9.93183C6.08354 9.64136 6.08337 9.30601 6.08337 9.00033H5.33337ZM3.33337 11.3337V12.0837C3.63374 12.0837 3.89658 12.0841 4.11397 12.0692C4.3381 12.0539 4.56817 12.02 4.7973 11.9251L4.51029 11.2322L4.22327 10.5393C4.20738 10.5458 4.15962 10.5626 4.01186 10.5727C3.85737 10.5833 3.65426 10.5837 3.33337 10.5837V11.3337ZM5.23188 10.5106L4.53897 10.2236C4.47977 10.3665 4.36621 10.4801 4.22327 10.5393L4.51029 11.2322L4.7973 11.9251C5.30777 11.7136 5.71334 11.3081 5.92479 10.7976L5.23188 10.5106ZM3.33337 4.66699V5.41699C3.65426 5.41699 3.85737 5.4174 4.01186 5.42794C4.15962 5.43802 4.20738 5.45481 4.22327 5.4614L4.51029 4.76849L4.7973 4.07558C4.56817 3.98067 4.3381 3.94671 4.11397 3.93142C3.89658 3.91659 3.63374 3.91699 3.33337 3.91699V4.66699ZM5.33337 7.00033H6.08337C6.08337 6.69464 6.08354 6.35929 6.06986 6.06882C6.06298 5.92295 6.05211 5.77575 6.03366 5.64061C6.01669 5.51629 5.98738 5.35417 5.92479 5.20307L5.23188 5.49008L4.53897 5.77709C4.52713 5.7485 4.53588 5.75877 4.54745 5.84352C4.55754 5.91745 4.5657 6.01601 4.57152 6.13941C4.58321 6.3875 4.58337 6.68476 4.58337 7.00033H5.33337ZM4.51029 4.76849L4.22327 5.4614C4.36621 5.5206 4.47977 5.63416 4.53897 5.77709L5.23188 5.49008L5.92479 5.20307C5.71334 4.69259 5.30777 4.28702 4.7973 4.07558L4.51029 4.76849ZM3.33337 4.66699V3.91699C3.03301 3.91699 2.77017 3.91659 2.55278 3.93142C2.32865 3.94671 2.09858 3.98067 1.86945 4.07558L2.15646 4.76849L2.44348 5.4614C2.45937 5.45481 2.50713 5.43802 2.65489 5.42794C2.80938 5.4174 3.01248 5.41699 3.33337 5.41699V4.66699ZM1.33337 6.66699H2.08337C2.08337 6.3461 2.08378 6.143 2.09432 5.9885C2.1044 5.84075 2.12119 5.79299 2.12778 5.77709L1.43487 5.49008L0.741958 5.20307C0.647049 5.4322 0.613093 5.66227 0.5978 5.8864C0.582968 6.10379 0.583374 6.36663 0.583374 6.66699H1.33337ZM2.15646 4.76849L1.86945 4.07558C1.35898 4.28702 0.953404 4.69259 0.741958 5.20307L1.43487 5.49008L2.12778 5.77709C2.18698 5.63416 2.30054 5.5206 2.44348 5.4614L2.15646 4.76849ZM5.33337 7.00033V7.75033H10.6667V7.00033V6.25033H5.33337V7.00033ZM10.6667 9.00033V8.25033H5.33337V9.00033V9.75033H10.6667V9.00033Z" fill="#F2F2F3"/>
</svg>
