<svg width="24" height="24" viewBox="0 0 24 24" fill="none" xmlns="http://www.w3.org/2000/svg">
<path d="M0 12C0 5.37258 5.37258 0 12 0C18.6274 0 24 5.37258 24 12C24 18.6274 18.6274 24 12 24C5.37258 24 0 18.6274 0 12Z" fill="#E27B00"/>
<g clip-path="url(#clip0_9235_9663)">
<path d="M14.1435 7.57589L13.68 8.03933L9.41941 12.2999L9.4194 12.3C9.13083 12.5885 8.98654 12.7328 8.86245 12.8919C8.71607 13.0796 8.59057 13.2827 8.48817 13.4975C8.40137 13.6797 8.33684 13.8732 8.20778 14.2604L7.6609 15.901L7.52722 16.3021C7.46371 16.4926 7.5133 16.7027 7.65532 16.8447C7.79733 16.9867 8.00739 17.0363 8.19792 16.9728L8.59896 16.8391L10.2396 16.2922L10.2396 16.2922C10.6268 16.1632 10.8203 16.0986 11.0025 16.0118C11.2173 15.9094 11.4204 15.7839 11.6081 15.6376C11.7672 15.5135 11.9115 15.3692 12.2 15.0806L12.2001 15.0806L16.4607 10.82L16.9241 10.3565C17.692 9.58868 17.692 8.34374 16.9241 7.57589C16.1563 6.80804 14.9113 6.80804 14.1435 7.57589Z" stroke="#F2F2F3" stroke-width="1.5"/>
<path opacity="0.5" d="M13.68 8.03906C13.68 8.03906 13.7379 9.02387 14.6069 9.89282C15.4758 10.7618 16.4607 10.8197 16.4607 10.8197M8.59894 16.8388L7.66089 15.9008" stroke="#F2F2F3" stroke-width="1.5"/>
</g>
<defs>
<clipPath id="clip0_9235_9663">
<rect width="12" height="12" fill="white" transform="translate(6.5 6)"/>
</clipPath>
</defs>
</svg>
