<svg width="16" height="16" viewBox="0 0 16 16" fill="none" xmlns="http://www.w3.org/2000/svg">
<path opacity="0.5" d="M2.1833 10.1974C1.61668 9.46131 1.33337 9.09324 1.33337 8.00033C1.33337 6.90741 1.61668 6.53934 2.1833 5.80321C3.31468 4.33336 5.21212 2.66699 8.00004 2.66699C10.788 2.66699 12.6854 4.33336 13.8168 5.80321C14.3834 6.53934 14.6667 6.90741 14.6667 8.00033C14.6667 9.09324 14.3834 9.46131 13.8168 10.1974C12.6854 11.6673 10.788 13.3337 8.00004 13.3337C5.21212 13.3337 3.31468 11.6673 2.1833 10.1974Z" stroke="#F2F2F3" stroke-width="1.5"/>
<path d="M10 8C10 9.10457 9.10457 10 8 10C6.89543 10 6 9.10457 6 8C6 6.89543 6.89543 6 8 6C9.10457 6 10 6.89543 10 8Z" stroke="#F2F2F3" stroke-width="1.5"/>
</svg>
