<svg width="49" height="49" viewBox="0 0 49 49" fill="none" xmlns="http://www.w3.org/2000/svg">
<g clip-path="url(#clip0_9204_33859)">
<path d="M39.9688 15.9688C39.9688 7.42559 33.0432 0.5 24.5 0.5C15.9568 0.5 9.03125 7.42559 9.03125 15.9688C9.03125 23.3858 14.2519 29.5826 21.2188 31.0876V35.375H16.0625C15.2859 35.375 14.6562 36.0046 14.6562 36.7812V40.5312C14.6562 41.3079 15.2859 41.9375 16.0625 41.9375H21.2188V47.0938C21.2188 47.8704 21.8484 48.5 22.625 48.5H26.375C27.1516 48.5 27.7812 47.8704 27.7812 47.0938V41.9375H32.9375C33.7141 41.9375 34.3438 41.3079 34.3438 40.5312V36.7812C34.3438 36.0046 33.7141 35.375 32.9375 35.375H27.7812V31.0876C34.7481 29.5826 39.9688 23.3858 39.9688 15.9688ZM15.5938 15.9688C15.5938 11.05 19.5812 7.0625 24.5 7.0625C29.4188 7.0625 33.4062 11.05 33.4062 15.9688C33.4062 20.8875 29.4188 24.875 24.5 24.875C19.5812 24.875 15.5938 20.8875 15.5938 15.9688Z" fill="#F2F2F3"/>
</g>
<defs>
<clipPath id="clip0_9204_33859">
<rect width="48" height="48" fill="white" transform="translate(0.5 0.5)"/>
</clipPath>
</defs>
</svg>
