<svg width="30" height="30" viewBox="0 0 30 30" fill="none" xmlns="http://www.w3.org/2000/svg">
<path d="M0 12C0 5.37258 5.37258 0 12 0H18C24.6274 0 30 5.37258 30 12V18C30 24.6274 24.6274 30 18 30H12C5.37258 30 0 24.6274 0 18V12Z" fill="#E27B00" fill-opacity="0.12"/>
<g clip-path="url(#clip0_7039_33711)">
<path d="M20.25 19.5L21 19.5L21 19.5L20.25 19.5ZM9.75 16.938H10.5C10.5 16.6399 10.3234 16.3701 10.0503 16.2507L9.75 16.938ZM20.25 16.938L19.9497 16.2507C19.6765 16.3701 19.5 16.6399 19.5 16.938L20.25 16.938ZM17.625 11.25C17.625 11.6642 17.9608 12 18.375 12C18.7892 12 19.125 11.6642 19.125 11.25H17.625ZM10.875 11.25C10.875 11.6642 11.2108 12 11.625 12C12.0392 12 12.375 11.6642 12.375 11.25H10.875ZM11.25 9.75V9C8.76472 9 6.75 11.0147 6.75 13.5H7.5H8.25C8.25 11.8431 9.59315 10.5 11.25 10.5V9.75ZM18.75 9.75V10.5C20.4069 10.5 21.75 11.8431 21.75 13.5H22.5H23.25C23.25 11.0147 21.2353 9 18.75 9V9.75ZM17.25 22.5V21.75H12.75V22.5V23.25H17.25V22.5ZM12.75 22.5V21.75C12.0217 21.75 11.5509 21.7484 11.204 21.7018C10.8787 21.658 10.7768 21.5874 10.7197 21.5303L10.1893 22.0607L9.65901 22.591C10.0413 22.9732 10.5125 23.1223 11.0042 23.1884C11.4742 23.2516 12.0641 23.25 12.75 23.25V22.5ZM9.75 19.5H9C9 20.1859 8.99841 20.7758 9.06161 21.2458C9.1277 21.7375 9.27676 22.2087 9.65901 22.591L10.1893 22.0607L10.7197 21.5303C10.6626 21.4732 10.592 21.3713 10.5482 21.046C10.5016 20.6991 10.5 20.2283 10.5 19.5H9.75ZM20.25 19.5H19.5C19.5 20.2283 19.4984 20.6991 19.4518 21.046C19.408 21.3713 19.3374 21.4732 19.2803 21.5303L19.8107 22.0607L20.341 22.591C20.7232 22.2087 20.8723 21.7375 20.9384 21.2458C21.0016 20.7758 21 20.1859 21 19.5H20.25ZM17.25 22.5V23.25C17.9359 23.25 18.5258 23.2516 18.9958 23.1884C19.4875 23.1223 19.9587 22.9732 20.341 22.591L19.8107 22.0607L19.2803 21.5303C19.2232 21.5874 19.1213 21.658 18.796 21.7018C18.4491 21.7484 17.9783 21.75 17.25 21.75V22.5ZM11.25 9.75V10.5C11.4011 10.5 11.5491 10.5111 11.6934 10.5324L11.803 9.79049L11.9127 9.04855C11.696 9.01653 11.4747 9 11.25 9V9.75ZM15 7.5V6.75C13.1843 6.75 11.6445 7.92258 11.0928 9.54963L11.803 9.79049L12.5133 10.0314C12.8649 8.9945 13.8465 8.25 15 8.25V7.5ZM11.803 9.79049L11.0928 9.54963C10.9514 9.96657 10.875 10.4126 10.875 10.875H11.625H12.375C12.375 10.5786 12.4238 10.2952 12.5133 10.0314L11.803 9.79049ZM18.75 9.75V9C18.5253 9 18.304 9.01653 18.0873 9.04855L18.197 9.79049L18.3066 10.5324C18.4509 10.5111 18.5989 10.5 18.75 10.5V9.75ZM15 7.5V8.25C16.1535 8.25 17.1351 8.9945 17.4867 10.0314L18.197 9.79049L18.9072 9.54963C18.3555 7.92258 16.8157 6.75 15 6.75V7.5ZM18.197 9.79049L17.4867 10.0314C17.5762 10.2952 17.625 10.5786 17.625 10.875H18.375H19.125C19.125 10.4126 19.0486 9.96657 18.9072 9.54963L18.197 9.79049ZM9.75 19.5H10.5V16.938H9.75H9V19.5H9.75ZM9.75 16.938L10.0503 16.2507C8.98917 15.7871 8.25 14.729 8.25 13.5H7.5H6.75C6.75 15.3465 7.86198 16.9315 9.44972 17.6252L9.75 16.938ZM20.25 16.938L19.5 16.938L19.5 19.5L20.25 19.5L21 19.5L21 16.938L20.25 16.938ZM22.5 13.5H21.75C21.75 14.729 21.0108 15.7871 19.9497 16.2507L20.25 16.938L20.5503 17.6252C22.138 16.9315 23.25 15.3465 23.25 13.5H22.5ZM18.375 10.875H17.625V11.25H18.375H19.125V10.875H18.375ZM11.625 10.875H10.875V11.25H11.625H12.375V10.875H11.625Z" fill="#E27B00"/>
<path opacity="0.5" d="M9.75 19.5H20.25" stroke="#E27B00" stroke-width="1.5" stroke-linecap="round" stroke-linejoin="round"/>
</g>
<defs>
<clipPath id="clip0_7039_33711">
<rect width="18" height="18" fill="white" transform="translate(6 6)"/>
</clipPath>
</defs>
</svg>
