<svg width="40" height="40" viewBox="0 0 40 40" fill="none" xmlns="http://www.w3.org/2000/svg">
<path d="M0 16C0 7.16344 7.16344 0 16 0H24C32.8366 0 40 7.16344 40 16V24C40 32.8366 32.8366 40 24 40H16C7.16344 40 0 32.8366 0 24V16Z" fill="#242328"/>
<path opacity="0.5" d="M30 25.5V19C30 15.2288 30 13.3431 28.8284 12.1716C27.6569 11 25.7712 11 22 11H18C14.2288 11 12.3431 11 11.1716 12.1716C10 13.3431 10 15.2288 10 19V21C10 24.7712 10 26.6569 11.1716 27.8284C12.3431 29 14.2288 29 18 29H19H26" stroke="#F2F2F3" stroke-width="1.5"/>
<path d="M21 25C21 23.1144 21 22.1716 21.5858 21.5858C22.1716 21 23.1144 21 25 21H26C27.8856 21 28.8284 21 29.4142 21.5858C30 22.1716 30 23.1144 30 25C30 26.8856 30 27.8284 29.4142 28.4142C28.8284 29 27.8856 29 26 29H25C23.1144 29 22.1716 29 21.5858 28.4142C21 27.8284 21 26.8856 21 25Z" stroke="#F2F2F3" stroke-width="1.5"/>
<path d="M15.5 15.5V18.5M15.5 15.5H18.5M15.5 15.5L19.5 19.5" stroke="#F2F2F3" stroke-width="1.5" stroke-linecap="round" stroke-linejoin="round"/>
</svg>
