<svg width="30" height="30" viewBox="0 0 30 30" fill="none" xmlns="http://www.w3.org/2000/svg">
<path d="M0 12C0 5.37258 5.37258 0 12 0H18C24.6274 0 30 5.37258 30 12V18C30 24.6274 24.6274 30 18 30H12C5.37258 30 0 24.6274 0 18V12Z" fill="#E27B00" fill-opacity="0.12"/>
<g clip-path="url(#clip0_7039_34264)">
<circle cx="15" cy="15" r="7.5" stroke="#E27B00" stroke-width="1.5"/>
<circle cx="15" cy="15" r="2.25" stroke="#E27B00" stroke-width="1.5"/>
<path opacity="0.5" d="M7.5 15.75C7.5 15.75 9.15064 17.25 10.5 17.25C11.409 17.25 12.4547 16.5693 13.0404 16.125" stroke="#F2F2F3" stroke-width="1.5"/>
<path opacity="0.5" d="M16.5 16.6677C16.8535 16.9792 17.3156 17.25 17.854 17.25C19.1211 17.25 19.1211 15.75 20.3882 15.75C21.1963 15.75 21.8327 16.3602 22.1876 16.8022" stroke="#F2F2F3" stroke-width="1.5"/>
<path d="M16.875 11.25L18 9.75" stroke="#F2F2F3" stroke-width="1.5" stroke-linecap="round"/>
<path opacity="0.5" d="M20.25 11.25L21 10.5" stroke="#F2F2F3" stroke-width="1.5" stroke-linecap="round"/>
<path d="M15 9.75L14.25 9" stroke="#F2F2F3" stroke-width="1.5" stroke-linecap="round"/>
<path opacity="0.5" d="M13.875 11.25L12.8505 11.5245" stroke="#F2F2F3" stroke-width="1.5" stroke-linecap="round"/>
<path opacity="0.5" d="M18.4874 12.7323L18.5372 13.7918" stroke="#F2F2F3" stroke-width="1.5" stroke-linecap="round"/>
<path d="M21.5083 13.5638L20.2497 14.6722" stroke="#F2F2F3" stroke-width="1.5" stroke-linecap="round"/>
<path opacity="0.5" d="M11.25 9.75L10.5 9" stroke="#F2F2F3" stroke-width="1.5" stroke-linecap="round"/>
<path d="M11.0943 12.8585L10.6554 11.8929" stroke="#F2F2F3" stroke-width="1.5" stroke-linecap="round"/>
<path d="M10.2487 15.4815L10.8751 14.6256" stroke="#F2F2F3" stroke-width="1.5" stroke-linecap="round"/>
<path opacity="0.5" d="M8.76204 13.7621L8.70305 12.7031" stroke="#F2F2F3" stroke-width="1.5" stroke-linecap="round"/>
</g>
<defs>
<clipPath id="clip0_7039_34264">
<rect width="18" height="18" fill="white" transform="translate(6 6)"/>
</clipPath>
</defs>
</svg>
