<svg width="33" height="20" viewBox="0 0 33 20" fill="none" xmlns="http://www.w3.org/2000/svg">
<path d="M9.77027 15.5054L10.3006 14.9751L10.3006 14.9751L9.77027 15.5054ZM10.9938 16.729L10.4635 17.2593L10.9938 16.729ZM14.0528 16.729L13.5224 17.2593V17.2593L14.0528 16.729ZM14.6646 17.3408L15.1949 16.8105L14.6646 17.3408ZM18.6712 16.1472L17.9467 15.9531L17.9467 15.9531L18.6712 16.1472ZM17.7235 14.2819L17.1932 14.8122V14.8122L17.7235 14.2819ZM18.6712 15.4754L17.9467 15.6695L17.9467 15.6695L18.6712 15.4754ZM16.5299 18.2885L16.3358 17.564L16.3358 17.564L16.5299 18.2885ZM15.8581 18.2885L16.0522 17.564L15.8581 18.2885ZM8.2108 9.96935L8.93525 10.1635V10.1635L8.2108 9.96935ZM9.15849 11.8347L8.62815 12.365L9.15849 11.8347ZM8.2108 10.6411L7.48636 10.8352V10.8352L8.2108 10.6411ZM10.3521 7.8281L10.5462 8.55254H10.5462L10.3521 7.8281ZM12.2174 8.77578L11.6871 9.30611H11.6871L12.2174 8.77578ZM11.0238 7.8281L11.218 7.10365H11.218L11.0238 7.8281ZM22.6478 12.1706L22.4537 11.4462L22.4537 11.4462L22.6478 12.1706ZM20.7824 11.2229L20.2521 11.7533L20.2521 11.7533L20.7824 11.2229ZM21.976 12.1706L22.1701 11.4462L22.1701 11.4462L21.976 12.1706ZM24.789 10.0293L24.0646 9.83524L24.0646 9.83523L24.789 10.0293ZM24.789 9.35756L24.0646 9.55168L24.0646 9.55168L24.789 9.35756ZM16.4699 1.71024L16.2758 0.985793V0.985792L16.4699 1.71024ZM18.3353 2.65792L17.8049 3.18825L18.3353 2.65792ZM17.1417 1.71024L16.9476 2.43468L16.9476 2.43468L17.1417 1.71024ZM14.3287 3.85149L13.6042 3.65737V3.65737L14.3287 3.85149ZM15.2763 5.71685L14.746 6.24718H14.746L15.2763 5.71685ZM14.3287 4.52328L15.0531 4.32916V4.32916L14.3287 4.52328ZM12.4419 14.0574C12.7347 14.3503 12.7347 14.8252 12.4419 15.1181C12.149 15.411 11.6741 15.411 11.3812 15.1181L12.4419 14.0574ZM21.6186 4.88062C21.9115 5.17352 21.9115 5.64839 21.6186 5.94128C21.3258 6.23418 20.8509 6.23418 20.558 5.94128L21.6186 4.88062ZM16.8058 13.3642L17.3361 12.8338H17.3361L16.8058 13.3642ZM19.8647 10.3052L20.3951 9.77491L19.8647 10.3052ZM13.1351 9.69346L13.6654 9.16313V9.16313L13.1351 9.69346ZM16.194 6.63453L16.7244 6.1042V6.1042L16.194 6.63453ZM9.77027 15.5054L10.3006 14.9751L11.5242 16.1987L10.9938 16.729L10.4635 17.2593L9.23994 16.0358L9.77027 15.5054ZM23.2296 4.49327L22.6992 5.0236L21.4757 3.80003L22.006 3.2697L22.5363 2.73937L23.7599 3.96294L23.2296 4.49327ZM23.2296 6.94042L22.6992 6.41009C23.0026 6.1067 23.1757 5.93138 23.2822 5.79179C23.3755 5.66951 23.3448 5.66612 23.3448 5.71685H24.0948L24.8448 5.71685C24.8448 6.12595 24.6698 6.44595 24.4747 6.70166C24.2928 6.94006 24.0333 7.19734 23.7599 7.47075L23.2296 6.94042ZM23.2296 4.49327L23.7599 3.96294C24.0333 4.23635 24.2928 4.49363 24.4747 4.73203C24.6698 4.98774 24.8448 5.30774 24.8448 5.71685L24.0948 5.71685H23.3448C23.3448 5.76758 23.3755 5.76419 23.2822 5.6419C23.1757 5.50232 23.0026 5.327 22.6992 5.0236L23.2296 4.49327ZM10.9938 16.729L11.5242 16.1987C11.8276 16.5021 12.0029 16.6751 12.1425 16.7816C12.2648 16.8749 12.2681 16.8442 12.2174 16.8442L12.2174 17.5942L12.2174 18.3442C11.8083 18.3442 11.4883 18.1693 11.2326 17.9742C10.9942 17.7923 10.7369 17.5327 10.4635 17.2593L10.9938 16.729ZM13.441 16.729L13.9713 17.2593C13.6979 17.5327 13.4406 17.7923 13.2022 17.9742C12.9465 18.1693 12.6265 18.3442 12.2174 18.3442L12.2174 17.5942L12.2174 16.8442C12.1667 16.8442 12.1701 16.8749 12.2924 16.7816C12.4319 16.6751 12.6073 16.5021 12.9107 16.1987L13.441 16.729ZM9.77027 13.0583L10.3006 13.5886C9.99721 13.892 9.82414 14.0673 9.71764 14.2069C9.62434 14.3292 9.65508 14.3326 9.65508 14.2819L8.90508 14.2819L8.15508 14.2819C8.15508 13.8727 8.33001 13.5527 8.52511 13.297C8.707 13.0586 8.96654 12.8014 9.23994 12.5279L9.77027 13.0583ZM9.77027 15.5054L9.23994 16.0358C8.96654 15.7623 8.707 15.5051 8.52511 15.2667C8.33001 15.011 8.15508 14.691 8.15508 14.2819L8.90508 14.2819L9.65508 14.2819C9.65508 14.2311 9.62434 14.2345 9.71764 14.3568C9.82414 14.4964 9.99721 14.6717 10.3006 14.9751L9.77027 15.5054ZM19.5588 3.2697L19.0285 2.73937C19.3019 2.46597 19.5592 2.20643 19.7976 2.02454C20.0533 1.82944 20.3733 1.65451 20.7824 1.65451L20.7824 2.40451V3.15451C20.8332 3.15451 20.8298 3.12377 20.7075 3.21707C20.5679 3.32358 20.3926 3.49664 20.0892 3.80003L19.5588 3.2697ZM22.006 3.2697L21.4757 3.80003C21.1723 3.49664 20.997 3.32358 20.8574 3.21707C20.7351 3.12377 20.7317 3.15451 20.7824 3.15451V2.40451L20.7824 1.65451C21.1915 1.65451 21.5115 1.82944 21.7672 2.02454C22.0056 2.20644 22.2629 2.46597 22.5363 2.73937L22.006 3.2697ZM14.0528 16.729L14.5831 16.1987L15.1949 16.8105L14.6646 17.3408L14.1342 17.8711L13.5224 17.2593L14.0528 16.729ZM17.7235 17.3408L17.1932 16.8105C17.4888 16.5148 17.6746 16.328 17.802 16.1752C17.9227 16.0304 17.9415 15.9725 17.9467 15.9531L18.6712 16.1472L19.3956 16.3413C19.3108 16.6578 19.1417 16.9108 18.954 17.1358C18.773 17.3529 18.53 17.595 18.2538 17.8711L17.7235 17.3408ZM17.7235 14.2819L18.2538 13.7515C18.53 14.0277 18.773 14.2697 18.954 14.4868C19.1417 14.7119 19.3108 14.9648 19.3956 15.2813L18.6712 15.4754L17.9467 15.6695C17.9415 15.6501 17.9227 15.5922 17.802 15.4474C17.6746 15.2946 17.4888 15.1078 17.1932 14.8122L17.7235 14.2819ZM18.6712 16.1472L17.9467 15.9531C17.9716 15.8602 17.9716 15.7624 17.9467 15.6695L18.6712 15.4754L19.3956 15.2813C19.4886 15.6285 19.4887 15.9941 19.3956 16.3413L18.6712 16.1472ZM17.7235 17.3408L18.2538 17.8711C17.9777 18.1472 17.7356 18.3903 17.5185 18.5713C17.2935 18.759 17.0405 18.9281 16.724 19.0129L16.5299 18.2885L16.3358 17.564C16.3552 17.5588 16.4131 17.54 16.5579 17.4193C16.7107 17.2919 16.8975 17.1061 17.1932 16.8105L17.7235 17.3408ZM14.6646 17.3408L15.1949 16.8105C15.4905 17.1061 15.6773 17.2919 15.8301 17.4193C15.9749 17.54 16.0328 17.5588 16.0522 17.564L15.8581 18.2885L15.664 19.0129C15.3475 18.9281 15.0946 18.759 14.8695 18.5713C14.6524 18.3903 14.4104 18.1472 14.1342 17.8711L14.6646 17.3408ZM16.5299 18.2885L16.724 19.0129C16.3768 19.1059 16.0112 19.1059 15.664 19.0129L15.8581 18.2885L16.0522 17.564C16.1451 17.5889 16.2429 17.5889 16.3358 17.564L16.5299 18.2885ZM9.15849 8.77578L9.68882 9.30611C9.39316 9.60176 9.20739 9.78855 9.08001 9.94132C8.95926 10.0861 8.94045 10.1441 8.93525 10.1635L8.2108 9.96935L7.48636 9.77523C7.57116 9.45875 7.7403 9.20578 7.92794 8.98073C8.10896 8.76363 8.35202 8.52158 8.62815 8.24545L9.15849 8.77578ZM9.15849 11.8347L8.62815 12.365C8.35202 12.0889 8.10896 11.8469 7.92794 11.6298C7.7403 11.4047 7.57116 11.1517 7.48636 10.8352L8.2108 10.6411L8.93525 10.447C8.94045 10.4664 8.95926 10.5244 9.08001 10.6692C9.20739 10.8219 9.39316 11.0087 9.68882 11.3044L9.15849 11.8347ZM8.2108 9.96935L8.93525 10.1635C8.91036 10.2563 8.91036 10.3541 8.93525 10.447L8.2108 10.6411L7.48636 10.8352C7.39333 10.488 7.39332 10.1224 7.48636 9.77523L8.2108 9.96935ZM9.15849 8.77578L8.62815 8.24545C8.90429 7.96931 9.14634 7.72625 9.36343 7.54523C9.58848 7.35759 9.84146 7.18845 10.1579 7.10365L10.3521 7.8281L10.5462 8.55254C10.5268 8.55774 10.4688 8.57656 10.324 8.6973C10.1713 8.82468 9.98447 9.01045 9.68882 9.30611L9.15849 8.77578ZM12.2174 8.77578L11.6871 9.30611C11.3914 9.01045 11.2046 8.82468 11.0519 8.6973C10.9071 8.57656 10.8491 8.55774 10.8297 8.55254L11.0238 7.8281L11.218 7.10365C11.5344 7.18845 11.7874 7.35759 12.0125 7.54523C12.2296 7.72625 12.4716 7.96932 12.7477 8.24545L12.2174 8.77578ZM10.3521 7.8281L10.1579 7.10365C10.5052 7.01062 10.8707 7.01062 11.218 7.10365L11.0238 7.8281L10.8297 8.55254C10.7368 8.52765 10.6391 8.52765 10.5462 8.55254L10.3521 7.8281ZM23.2296 7.55221L23.7599 7.02187L24.3717 7.63366L23.8414 8.16399L23.311 8.69432L22.6992 8.08254L23.2296 7.55221ZM23.8414 11.2229L24.3717 11.7533C24.0955 12.0294 23.8535 12.2724 23.6364 12.4535C23.4114 12.6411 23.1584 12.8102 22.8419 12.895L22.6478 12.1706L22.4537 11.4462C22.4731 11.441 22.531 11.4221 22.6758 11.3014C22.8286 11.174 23.0154 10.9882 23.311 10.6926L23.8414 11.2229ZM20.7824 11.2229L21.3128 10.6926C21.6084 10.9882 21.7952 11.174 21.948 11.3014C22.0928 11.4221 22.1507 11.441 22.1701 11.4462L21.976 12.1706L21.7819 12.895C21.4654 12.8102 21.2124 12.6411 20.9874 12.4535C20.7703 12.2724 20.5282 12.0294 20.2521 11.7533L20.7824 11.2229ZM22.6478 12.1706L22.8419 12.895C22.4947 12.9881 22.1291 12.9881 21.7819 12.895L21.976 12.1706L22.1701 11.4462C22.263 11.471 22.3608 11.471 22.4537 11.4462L22.6478 12.1706ZM23.8414 11.2229L23.311 10.6926C23.6067 10.3969 23.7924 10.2101 23.9198 10.0574C24.0406 9.91256 24.0594 9.85465 24.0646 9.83524L24.789 10.0293L25.5135 10.2235C25.4287 10.5399 25.2595 10.7929 25.0719 11.018C24.8909 11.2351 24.6478 11.4771 24.3717 11.7533L23.8414 11.2229ZM23.8414 8.16399L24.3717 7.63366C24.6478 7.90979 24.8909 8.15184 25.0719 8.36894C25.2595 8.59399 25.4287 8.84696 25.5135 9.16345L24.789 9.35756L24.0646 9.55168C24.0594 9.53227 24.0406 9.47435 23.9198 9.32953C23.7924 9.17676 23.6067 8.98997 23.311 8.69432L23.8414 8.16399ZM24.789 10.0293L24.0646 9.83523C24.0895 9.74235 24.0895 9.64456 24.0646 9.55168L24.789 9.35756L25.5135 9.16345C25.6065 9.51066 25.6065 9.87625 25.5135 10.2235L24.789 10.0293ZM15.2763 2.65792L14.746 2.12759C15.0221 1.85145 15.2642 1.60839 15.4813 1.42737C15.7063 1.23973 15.9593 1.07059 16.2758 0.985793L16.4699 1.71024L16.664 2.43468C16.6446 2.43988 16.5867 2.4587 16.4419 2.57944C16.2891 2.70682 16.1023 2.89259 15.8067 3.18825L15.2763 2.65792ZM18.3353 2.65792L17.8049 3.18825C17.5093 2.89259 17.3225 2.70682 17.1697 2.57944C17.0249 2.4587 16.967 2.43988 16.9476 2.43468L17.1417 1.71024L17.3358 0.985793C17.6523 1.07059 17.9053 1.23973 18.1303 1.42737C18.3474 1.60839 18.5895 1.85145 18.8656 2.12759L18.3353 2.65792ZM16.4699 1.71024L16.2758 0.985792C16.623 0.892757 16.9886 0.892757 17.3358 0.985793L17.1417 1.71024L16.9476 2.43468C16.8547 2.40979 16.7569 2.40979 16.664 2.43468L16.4699 1.71024ZM15.2763 2.65792L15.8067 3.18825C15.511 3.4839 15.3252 3.67069 15.1979 3.82346C15.0771 3.96827 15.0583 4.02619 15.0531 4.0456L14.3287 3.85149L13.6042 3.65737C13.689 3.34089 13.8582 3.08792 14.0458 2.86287C14.2268 2.64577 14.4699 2.40372 14.746 2.12759L15.2763 2.65792ZM15.2763 5.71685L14.746 6.24718C14.4699 5.97104 14.2268 5.729 14.0458 5.5119C13.8582 5.28685 13.689 5.03387 13.6042 4.71739L14.3287 4.52328L15.0531 4.32916C15.0583 4.34857 15.0771 4.40649 15.1979 4.55131C15.3252 4.70407 15.511 4.89086 15.8067 5.18652L15.2763 5.71685ZM14.3287 3.85149L15.0531 4.0456C15.0282 4.13848 15.0282 4.23628 15.0531 4.32916L14.3287 4.52328L13.6042 4.71739C13.5112 4.37018 13.5112 4.00459 13.6042 3.65737L14.3287 3.85149ZM9.15849 11.8347L9.68882 11.3044L12.4419 14.0574L11.9115 14.5877L11.3812 15.1181L8.62815 12.365L9.15849 11.8347ZM18.3353 2.65792L18.8656 2.12759L21.6186 4.88062L21.0883 5.41095L20.558 5.94128L17.8049 3.18825L18.3353 2.65792ZM17.7235 14.2819L17.1932 14.8122L16.2755 13.8945L16.8058 13.3642L17.3361 12.8338L18.2538 13.7515L17.7235 14.2819ZM20.7824 11.2229L20.2521 11.7533L19.3344 10.8356L19.8647 10.3052L20.3951 9.77491L21.3128 10.6926L20.7824 11.2229ZM16.8058 13.3642L16.2755 13.8945L12.6048 10.2238L13.1351 9.69346L13.6654 9.16313L17.3361 12.8338L16.8058 13.3642ZM13.1351 9.69346L12.6048 10.2238L11.6871 9.30611L12.2174 8.77578L12.7477 8.24545L13.6654 9.16313L13.1351 9.69346ZM19.8647 10.3052L19.3344 10.8356L15.6637 7.16486L16.194 6.63453L16.7244 6.1042L20.3951 9.77491L19.8647 10.3052ZM16.194 6.63453L15.6637 7.16486L14.746 6.24718L15.2763 5.71685L15.8067 5.18652L16.7244 6.1042L16.194 6.63453ZM23.2296 7.55221L22.6992 8.08254C22.2374 7.6207 22.2374 6.87192 22.6992 6.41009L23.2296 6.94042L23.7599 7.47075C23.8838 7.3468 23.8838 7.14583 23.7599 7.02187L23.2296 7.55221ZM14.0528 16.729L13.5224 17.2593C13.6464 17.3833 13.8474 17.3833 13.9713 17.2593L13.441 16.729L12.9107 16.1987C13.3725 15.7368 14.1213 15.7368 14.5831 16.1987L14.0528 16.729Z" fill="#696576"/>
<path opacity="0.5" d="M16.8058 13.3644L19.8647 10.3055M13.1351 9.6937L16.194 6.63477" stroke="#696576" stroke-width="1.5" stroke-linecap="round"/>
</svg>
