<svg width="49" height="49" viewBox="0 0 49 49" fill="none" xmlns="http://www.w3.org/2000/svg">
<path d="M47.0938 0.5H32.5625C31.7859 0.5 31.1562 1.12962 31.1562 1.90625V5.65625C31.1562 6.43288 31.7859 7.0625 32.5625 7.0625H37.2971L29.1781 15.1814C26.2263 13.1367 22.644 11.9375 18.7812 11.9375C8.68475 11.9375 0.5 20.1222 0.5 30.2188C0.5 40.3152 8.68475 48.5 18.7812 48.5C28.8778 48.5 37.0625 40.3152 37.0625 30.2188C37.0625 26.3559 35.8633 22.7737 33.8186 19.8218L41.9375 11.7028V16.4375C41.9375 17.2141 42.5671 17.8438 43.3438 17.8438H47.0938C47.8704 17.8438 48.5 17.2141 48.5 16.4375V1.90625C48.5 1.12962 47.8704 0.5 47.0938 0.5ZM18.7812 41.9375C12.3091 41.9375 7.0625 36.6908 7.0625 30.2188C7.0625 23.7466 12.3091 18.5 18.7812 18.5C25.2534 18.5 30.5 23.7466 30.5 30.2188C30.5 36.6908 25.2534 41.9375 18.7812 41.9375Z" fill="#F2F2F3"/>
</svg>
