<svg width="65" height="64" viewBox="0 0 65 64" fill="none" xmlns="http://www.w3.org/2000/svg">
<path d="M0.25 32C0.25 14.3269 14.5769 0 32.25 0C49.9231 0 64.25 14.3269 64.25 32C64.25 49.6731 49.9231 64 32.25 64C14.5769 64 0.25 49.6731 0.25 32Z" fill="#E27B00"/>
<path d="M19.428 34.3908C18.8333 30.1727 18.5359 28.0637 19.7997 26.6986C21.0635 25.3335 23.3134 25.3335 27.8132 25.3335H36.6868C41.1865 25.3335 43.4364 25.3335 44.7002 26.6986C45.964 28.0637 45.6667 30.1727 45.0719 34.3908L44.508 38.3908C44.0416 41.6986 43.8084 43.3526 42.6122 44.343C41.4159 45.3335 39.6516 45.3335 36.1228 45.3335H28.3771C24.8484 45.3335 23.084 45.3335 21.8877 44.343C20.6915 43.3526 20.4583 41.6986 19.9919 38.3908L19.428 34.3908Z" stroke="#F2F2F3" stroke-width="1.5"/>
<path opacity="0.5" d="M42.3323 25.3332C42.6371 23.5935 41.2984 21.9998 39.5322 21.9998H24.9671C23.2009 21.9998 21.8623 23.5935 22.1671 25.3332M39.5832 21.9998C39.621 21.6544 39.64 21.4816 39.6403 21.339C39.6432 19.9741 38.6152 18.8274 37.2582 18.6817C37.1163 18.6665 36.9425 18.6665 36.595 18.6665H27.9046C27.5571 18.6665 27.3833 18.6665 27.2415 18.6817C25.8844 18.8274 24.8564 19.9741 24.8593 21.339C24.8597 21.4816 24.8786 21.6544 24.9164 21.9998" stroke="#F2F2F3" stroke-width="1.5"/>
<ellipse opacity="0.5" cx="38.25" cy="31.3335" rx="2" ry="2" stroke="#F2F2F3" stroke-width="1.5"/>
<path opacity="0.5" d="M42.9165 42.6665L39.0709 39.8017C37.8308 38.8779 35.9839 38.7859 34.6189 39.58L34.2631 39.7869C33.3145 40.3387 32.0239 40.2462 31.2041 39.5676L26.0865 35.3317C25.0651 34.4862 23.4266 34.4411 22.3395 35.2284L20.5742 36.5069" stroke="#F2F2F3" stroke-width="1.5" stroke-linecap="round"/>
</svg>
