<svg width="65" height="64" viewBox="0 0 65 64" fill="none" xmlns="http://www.w3.org/2000/svg">
<path d="M0.75 32C0.75 14.3269 15.0769 0 32.75 0C50.4231 0 64.75 14.3269 64.75 32C64.75 49.6731 50.4231 64 32.75 64C15.0769 64 0.75 49.6731 0.75 32Z" fill="#E27B00"/>
<ellipse cx="32.75" cy="33.3335" rx="4" ry="4" stroke="#F2F2F3" stroke-width="1.5"/>
<path opacity="0.5" d="M29.787 44H35.7129C39.8743 44 41.955 44 43.4496 43.0195C44.0967 42.595 44.6522 42.0495 45.0846 41.4142C46.0833 39.9467 46.0833 37.9039 46.0833 33.8182C46.0833 29.7325 46.0833 27.6896 45.0846 26.2221C44.6522 25.5868 44.0967 25.0414 43.4496 24.6169C42.4892 23.9868 41.2868 23.7616 39.446 23.6811C38.5675 23.6811 37.8111 23.0276 37.6388 22.1818C37.3804 20.9132 36.2459 20 34.9282 20H30.5717C29.254 20 28.1195 20.9132 27.8611 22.1818C27.6888 23.0276 26.9324 23.6811 26.054 23.6811C24.2131 23.7616 23.0107 23.9868 22.0503 24.6169C21.4032 25.0414 20.8477 25.5868 20.4153 26.2221C19.4166 27.6896 19.4166 29.7325 19.4166 33.8182C19.4166 37.9039 19.4166 39.9467 20.4153 41.4142C20.8477 42.0495 21.4032 42.595 22.0503 43.0195C23.5449 44 25.6256 44 29.787 44Z" stroke="#F2F2F3" stroke-width="1.5"/>
<path d="M42.0833 29.3335H40.75" stroke="#F2F2F3" stroke-width="1.5" stroke-linecap="round"/>
</svg>
