<svg width="21" height="20" viewBox="0 0 21 20" fill="none" xmlns="http://www.w3.org/2000/svg">
<path d="M17.2349 2.51463L17.261 3.26417L17.2349 2.51463ZM14.25 2.90604L14.0349 2.18755L14.25 2.90604ZM11.8948 4.00213L11.5191 3.353V3.353L11.8948 4.00213ZM3.81863 2.56224L3.77262 3.31083L3.81863 2.56224ZM6.33329 2.90604L6.52465 2.18086L6.33329 2.90604ZM9.0685 4.06272L8.71792 4.72573L9.0685 4.06272ZM11.8563 16.7242L12.2091 17.386L11.8563 16.7242ZM14.6666 15.5276L14.4753 14.8025L14.6666 15.5276ZM17.1542 15.1855L17.2011 15.9341L17.1542 15.1855ZM9.14364 16.7242L8.79084 17.386H8.79084L9.14364 16.7242ZM6.33329 15.5276L6.52465 14.8025L6.33329 15.5276ZM3.84567 15.1855L3.79886 15.9341H3.79886L3.84567 15.1855ZM2.16663 13.4528H2.91663V4.16467H2.16663H1.41663V13.4528H2.16663ZM18.8333 13.4528H19.5833V4.11083H18.8333H18.0833V13.4528H18.8333ZM17.2349 2.51463L17.2088 1.76508C16.2586 1.79818 15.005 1.8971 14.0349 2.18755L14.25 2.90604L14.4651 3.62453C15.2397 3.39262 16.3303 3.29659 17.261 3.26417L17.2349 2.51463ZM14.25 2.90604L14.0349 2.18755C13.1911 2.44015 12.2481 2.93115 11.5191 3.353L11.8948 4.00213L12.2705 4.65126C12.9774 4.24216 13.7961 3.8248 14.4651 3.62453L14.25 2.90604ZM3.81863 2.56224L3.77262 3.31083C4.57588 3.3602 5.47747 3.45588 6.14193 3.63122L6.33329 2.90604L6.52465 2.18086C5.71159 1.96631 4.68867 1.8643 3.86464 1.81366L3.81863 2.56224ZM6.33329 2.90604L6.14193 3.63122C6.92918 3.83896 7.90547 4.29613 8.71792 4.72573L9.0685 4.06272L9.41909 3.3997C8.58797 2.96023 7.48608 2.43457 6.52465 2.18086L6.33329 2.90604ZM11.8563 16.7242L12.2091 17.386C13.0335 16.9466 14.0457 16.4672 14.858 16.2528L14.6666 15.5276L14.4753 14.8025C13.4852 15.0637 12.3449 15.6139 11.5035 16.0624L11.8563 16.7242ZM14.6666 15.5276L14.858 16.2528C15.5148 16.0795 16.4039 15.9839 17.2011 15.9341L17.1542 15.1855L17.1074 14.437C16.2889 14.4882 15.2796 14.5902 14.4753 14.8025L14.6666 15.5276ZM9.14364 16.7242L9.49644 16.0624C8.65507 15.6139 7.51476 15.0637 6.52465 14.8025L6.33329 15.5276L6.14193 16.2528C6.95425 16.4672 7.96641 16.9466 8.79084 17.386L9.14364 16.7242ZM6.33329 15.5276L6.52465 14.8025C5.72033 14.5902 4.71101 14.4882 3.89249 14.437L3.84567 15.1855L3.79886 15.9341C4.59605 15.9839 5.48507 16.0795 6.14193 16.2528L6.33329 15.5276ZM18.8333 13.4528H18.0833C18.0833 13.9534 17.666 14.402 17.1074 14.437L17.1542 15.1855L17.2011 15.9341C18.4905 15.8534 19.5833 14.8039 19.5833 13.4528H18.8333ZM18.8333 4.11083H19.5833C19.5833 2.82627 18.559 1.71805 17.2088 1.76508L17.2349 2.51463L17.261 3.26417C17.6972 3.24898 18.0833 3.60798 18.0833 4.11083H18.8333ZM2.16663 13.4528H1.41663C1.41663 14.8039 2.5094 15.8534 3.79886 15.9341L3.84567 15.1855L3.89249 14.437C3.33393 14.402 2.91663 13.9534 2.91663 13.4528H2.16663ZM11.8563 16.7242L11.5035 16.0624C10.88 16.3947 10.1199 16.3947 9.49644 16.0624L9.14364 16.7242L8.79084 17.386C9.85535 17.9535 11.1446 17.9535 12.2091 17.386L11.8563 16.7242ZM11.8948 4.00213L11.5191 3.353C10.8741 3.72631 10.0712 3.7445 9.41909 3.3997L9.0685 4.06272L8.71792 4.72573C9.83339 5.31557 11.185 5.27947 12.2705 4.65126L11.8948 4.00213ZM2.16663 4.16467H2.91663C2.91663 3.65052 3.32134 3.2831 3.77262 3.31083L3.81863 2.56224L3.86464 1.81366C2.48908 1.72912 1.41663 2.84854 1.41663 4.16467H2.16663Z" fill="#696576"/>
<path opacity="0.5" d="M10.5 4.87891V17.5005" stroke="#696576" stroke-width="1.5"/>
<path opacity="0.5" d="M4.66663 7.5L7.99996 8.33333" stroke="#696576" stroke-width="1.5" stroke-linecap="round"/>
<path opacity="0.5" d="M4.66663 10.834L7.99996 11.6673" stroke="#696576" stroke-width="1.5" stroke-linecap="round"/>
<path opacity="0.5" d="M16.3334 10.834L13 11.6673" stroke="#696576" stroke-width="1.5" stroke-linecap="round"/>
<path d="M16.3333 4.58398V7.9259C16.3333 8.15554 16.3333 8.27037 16.2543 8.31678C16.1752 8.36319 16.0671 8.31184 15.8509 8.20914L14.8157 7.71741C14.7426 7.68266 14.706 7.66529 14.6667 7.66529C14.6273 7.66529 14.5907 7.68266 14.5176 7.71741L13.4824 8.20914C13.2662 8.31184 13.1581 8.36319 13.079 8.31678C13 8.27037 13 8.15554 13 7.9259V5.79234" stroke="#696576" stroke-width="1.5" stroke-linecap="round"/>
</svg>
