<svg width="21" height="20" viewBox="0 0 21 20" fill="none" xmlns="http://www.w3.org/2000/svg">
<circle cx="10.5" cy="9.99935" r="8.33333" stroke="url(#paint0_linear_9402_27783)" stroke-width="1.5"/>
<circle cx="10.5" cy="10" r="2.5" stroke="url(#paint1_linear_9402_27783)" stroke-width="1.5"/>
<path opacity="0.5" d="M2.16663 10.834C2.16663 10.834 4.00067 12.5007 5.49996 12.5007C6.50995 12.5007 7.67186 11.7443 8.32267 11.2507" stroke="url(#paint2_linear_9402_27783)" stroke-width="1.5"/>
<path opacity="0.5" d="M12.1666 11.8537C12.5594 12.1998 13.0729 12.5007 13.6711 12.5007C15.0789 12.5007 15.0789 10.834 16.4868 10.834C17.3848 10.834 18.0918 11.512 18.4862 12.0031" stroke="url(#paint3_linear_9402_27783)" stroke-width="1.5"/>
<path d="M12.5834 5.83268L13.8334 4.16602" stroke="url(#paint4_linear_9402_27783)" stroke-width="1.5" stroke-linecap="round"/>
<path opacity="0.5" d="M16.3334 5.83333L17.1667 5" stroke="url(#paint5_linear_9402_27783)" stroke-width="1.5" stroke-linecap="round"/>
<path d="M10.5 4.16732L9.66667 3.33398" stroke="url(#paint6_linear_9402_27783)" stroke-width="1.5" stroke-linecap="round"/>
<path opacity="0.5" d="M9.25004 5.83268L8.11169 6.1377" stroke="url(#paint7_linear_9402_27783)" stroke-width="1.5" stroke-linecap="round"/>
<path opacity="0.5" d="M14.3749 7.48124L14.4303 8.65845" stroke="url(#paint8_linear_9402_27783)" stroke-width="1.5" stroke-linecap="round"/>
<path d="M17.7314 8.40483L16.333 9.63637" stroke="url(#paint9_linear_9402_27783)" stroke-width="1.5" stroke-linecap="round"/>
<path opacity="0.5" d="M6.33337 4.16732L5.50004 3.33398" stroke="url(#paint10_linear_9402_27783)" stroke-width="1.5" stroke-linecap="round"/>
<path d="M6.16041 7.62012L5.67272 6.54725" stroke="url(#paint11_linear_9402_27783)" stroke-width="1.5" stroke-linecap="round"/>
<path d="M5.2208 10.5346L5.91683 9.58358" stroke="url(#paint12_linear_9402_27783)" stroke-width="1.5" stroke-linecap="round"/>
<path opacity="0.5" d="M3.56894 8.62503L3.50339 7.44834" stroke="url(#paint13_linear_9402_27783)" stroke-width="1.5" stroke-linecap="round"/>
<defs>
<linearGradient id="paint0_linear_9402_27783" x1="5.02377" y1="3.39221" x2="14.3095" y2="15.9517" gradientUnits="userSpaceOnUse">
<stop stop-color="#FDAF20"/>
<stop offset="1" stop-color="#794201"/>
</linearGradient>
<linearGradient id="paint1_linear_9402_27783" x1="8.85714" y1="8.01786" x2="11.6429" y2="11.7857" gradientUnits="userSpaceOnUse">
<stop stop-color="#FDAF20"/>
<stop offset="1" stop-color="#794201"/>
</linearGradient>
<linearGradient id="paint2_linear_9402_27783" x1="3.22195" y1="11.0066" x2="3.59579" y2="12.8743" gradientUnits="userSpaceOnUse">
<stop stop-color="#FDAF20"/>
<stop offset="1" stop-color="#794201"/>
</linearGradient>
<linearGradient id="paint3_linear_9402_27783" x1="13.25" y1="11.0066" x2="13.6149" y2="12.8779" gradientUnits="userSpaceOnUse">
<stop stop-color="#FDAF20"/>
<stop offset="1" stop-color="#794201"/>
</linearGradient>
<linearGradient id="paint4_linear_9402_27783" x1="12.7977" y1="4.33863" x2="13.7688" y2="5.32378" gradientUnits="userSpaceOnUse">
<stop stop-color="#FDAF20"/>
<stop offset="1" stop-color="#794201"/>
</linearGradient>
<linearGradient id="paint5_linear_9402_27783" x1="16.4762" y1="5.08631" x2="16.9405" y2="5.71429" gradientUnits="userSpaceOnUse">
<stop stop-color="#FDAF20"/>
<stop offset="1" stop-color="#794201"/>
</linearGradient>
<linearGradient id="paint6_linear_9402_27783" x1="10.3571" y1="3.42029" x2="9.89286" y2="4.04827" gradientUnits="userSpaceOnUse">
<stop stop-color="#FDAF20"/>
<stop offset="1" stop-color="#794201"/>
</linearGradient>
<linearGradient id="paint7_linear_9402_27783" x1="8.53152" y1="5.58289" x2="8.84322" y2="6.29896" gradientUnits="userSpaceOnUse">
<stop stop-color="#FDAF20"/>
<stop offset="1" stop-color="#794201"/>
</linearGradient>
<linearGradient id="paint8_linear_9402_27783" x1="13.9777" y1="8.12999" x2="14.7438" y2="7.97811" gradientUnits="userSpaceOnUse">
<stop stop-color="#FDAF20"/>
<stop offset="1" stop-color="#794201"/>
</linearGradient>
<linearGradient id="paint9_linear_9402_27783" x1="16.5282" y1="8.56459" x2="17.4756" y2="9.3619" gradientUnits="userSpaceOnUse">
<stop stop-color="#FDAF20"/>
<stop offset="1" stop-color="#794201"/>
</linearGradient>
<linearGradient id="paint10_linear_9402_27783" x1="6.19052" y1="3.42029" x2="5.72623" y2="4.04827" gradientUnits="userSpaceOnUse">
<stop stop-color="#FDAF20"/>
<stop offset="1" stop-color="#794201"/>
</linearGradient>
<linearGradient id="paint11_linear_9402_27783" x1="6.28894" y1="6.8705" x2="5.63372" y2="7.29548" gradientUnits="userSpaceOnUse">
<stop stop-color="#FDAF20"/>
<stop offset="1" stop-color="#794201"/>
</linearGradient>
<linearGradient id="paint12_linear_9402_27783" x1="5.24764" y1="9.77437" x2="5.80254" y2="10.3239" gradientUnits="userSpaceOnUse">
<stop stop-color="#FDAF20"/>
<stop offset="1" stop-color="#794201"/>
</linearGradient>
<linearGradient id="paint13_linear_9402_27783" x1="3.96049" y1="7.973" x2="3.19578" y2="8.13152" gradientUnits="userSpaceOnUse">
<stop stop-color="#FDAF20"/>
<stop offset="1" stop-color="#794201"/>
</linearGradient>
</defs>
</svg>
