<svg width="20" height="20" viewBox="0 0 20 20" fill="none" xmlns="http://www.w3.org/2000/svg">
<path d="M16.7349 2.51463L16.761 3.26417L16.7349 2.51463ZM13.75 2.90604L13.5349 2.18755L13.75 2.90604ZM11.3948 4.00213L11.0191 3.353V3.353L11.3948 4.00213ZM3.31863 2.56224L3.27262 3.31083L3.31863 2.56224ZM5.83329 2.90604L6.02465 2.18086L5.83329 2.90604ZM8.5685 4.06272L8.21792 4.72573L8.5685 4.06272ZM11.3563 16.7242L11.7091 17.386L11.3563 16.7242ZM14.1666 15.5276L13.9753 14.8025L14.1666 15.5276ZM16.6542 15.1855L16.7011 15.9341L16.6542 15.1855ZM8.64364 16.7242L8.29084 17.386H8.29084L8.64364 16.7242ZM5.83329 15.5276L6.02465 14.8025L5.83329 15.5276ZM3.34567 15.1855L3.29886 15.9341H3.29886L3.34567 15.1855ZM1.66663 13.4528H2.41663V4.16467H1.66663H0.916626V13.4528H1.66663ZM18.3333 13.4528H19.0833V4.11083H18.3333H17.5833V13.4528H18.3333ZM16.7349 2.51463L16.7088 1.76508C15.7586 1.79818 14.505 1.8971 13.5349 2.18755L13.75 2.90604L13.9651 3.62453C14.7397 3.39262 15.8303 3.29659 16.761 3.26417L16.7349 2.51463ZM13.75 2.90604L13.5349 2.18755C12.6911 2.44015 11.7481 2.93115 11.0191 3.353L11.3948 4.00213L11.7705 4.65126C12.4774 4.24216 13.2961 3.8248 13.9651 3.62453L13.75 2.90604ZM3.31863 2.56224L3.27262 3.31083C4.07588 3.3602 4.97747 3.45588 5.64193 3.63122L5.83329 2.90604L6.02465 2.18086C5.21159 1.96631 4.18867 1.8643 3.36464 1.81366L3.31863 2.56224ZM5.83329 2.90604L5.64193 3.63122C6.42918 3.83896 7.40547 4.29613 8.21792 4.72573L8.5685 4.06272L8.91909 3.3997C8.08797 2.96023 6.98608 2.43457 6.02465 2.18086L5.83329 2.90604ZM11.3563 16.7242L11.7091 17.386C12.5335 16.9466 13.5457 16.4672 14.358 16.2528L14.1666 15.5276L13.9753 14.8025C12.9852 15.0637 11.8449 15.6139 11.0035 16.0624L11.3563 16.7242ZM14.1666 15.5276L14.358 16.2528C15.0148 16.0795 15.9039 15.9839 16.7011 15.9341L16.6542 15.1855L16.6074 14.437C15.7889 14.4882 14.7796 14.5902 13.9753 14.8025L14.1666 15.5276ZM8.64364 16.7242L8.99644 16.0624C8.15507 15.6139 7.01476 15.0637 6.02465 14.8025L5.83329 15.5276L5.64193 16.2528C6.45425 16.4672 7.46641 16.9466 8.29084 17.386L8.64364 16.7242ZM5.83329 15.5276L6.02465 14.8025C5.22033 14.5902 4.21101 14.4882 3.39249 14.437L3.34567 15.1855L3.29886 15.9341C4.09605 15.9839 4.98507 16.0795 5.64193 16.2528L5.83329 15.5276ZM18.3333 13.4528H17.5833C17.5833 13.9534 17.166 14.402 16.6074 14.437L16.6542 15.1855L16.7011 15.9341C17.9905 15.8534 19.0833 14.8039 19.0833 13.4528H18.3333ZM18.3333 4.11083H19.0833C19.0833 2.82627 18.059 1.71805 16.7088 1.76508L16.7349 2.51463L16.761 3.26417C17.1972 3.24898 17.5833 3.60798 17.5833 4.11083H18.3333ZM1.66663 13.4528H0.916626C0.916626 14.8039 2.0094 15.8534 3.29886 15.9341L3.34567 15.1855L3.39249 14.437C2.83393 14.402 2.41663 13.9534 2.41663 13.4528H1.66663ZM11.3563 16.7242L11.0035 16.0624C10.38 16.3947 9.61992 16.3947 8.99644 16.0624L8.64364 16.7242L8.29084 17.386C9.35535 17.9535 10.6446 17.9535 11.7091 17.386L11.3563 16.7242ZM11.3948 4.00213L11.0191 3.353C10.3741 3.72631 9.57115 3.7445 8.91909 3.3997L8.5685 4.06272L8.21792 4.72573C9.33339 5.31557 10.685 5.27947 11.7705 4.65126L11.3948 4.00213ZM1.66663 4.16467H2.41663C2.41663 3.65052 2.82134 3.2831 3.27262 3.31083L3.31863 2.56224L3.36464 1.81366C1.98908 1.72912 0.916626 2.84854 0.916626 4.16467H1.66663Z" fill="#E27B00"/>
<path opacity="0.5" d="M10 4.87891V17.5005" stroke="#E27B00" stroke-width="1.5"/>
<path opacity="0.5" d="M4.16663 7.5L7.49996 8.33333" stroke="#E27B00" stroke-width="1.5" stroke-linecap="round"/>
<path opacity="0.5" d="M4.16663 10.834L7.49996 11.6673" stroke="#E27B00" stroke-width="1.5" stroke-linecap="round"/>
<path opacity="0.5" d="M15.8334 10.834L12.5 11.6673" stroke="#E27B00" stroke-width="1.5" stroke-linecap="round"/>
<path d="M15.8333 4.58398V7.9259C15.8333 8.15554 15.8333 8.27037 15.7543 8.31678C15.6752 8.36319 15.5671 8.31184 15.3509 8.20914L14.3157 7.71741C14.2426 7.68266 14.206 7.66529 14.1667 7.66529C14.1273 7.66529 14.0907 7.68266 14.0176 7.71741L12.9824 8.20914C12.7662 8.31184 12.6581 8.36319 12.579 8.31678C12.5 8.27037 12.5 8.15554 12.5 7.9259V5.79234" stroke="#E27B00" stroke-width="1.5" stroke-linecap="round"/>
</svg>
