<svg width="21" height="20" viewBox="0 0 21 20" fill="none" xmlns="http://www.w3.org/2000/svg">
<path d="M3.77027 15.5054L4.3006 14.9751L4.3006 14.9751L3.77027 15.5054ZM4.99384 16.729L4.46351 17.2593L4.99384 16.729ZM8.05277 16.729L7.52244 17.2593V17.2593L8.05277 16.729ZM8.66456 17.3408L9.19489 16.8105L8.66456 17.3408ZM12.6712 16.1472L11.9467 15.9531L11.9467 15.9531L12.6712 16.1472ZM11.7235 14.2819L11.1932 14.8122V14.8122L11.7235 14.2819ZM12.6712 15.4754L11.9467 15.6695L11.9467 15.6695L12.6712 15.4754ZM10.5299 18.2885L10.3358 17.564L10.3358 17.564L10.5299 18.2885ZM9.85813 18.2885L10.0522 17.564L9.85813 18.2885ZM2.2108 9.96935L2.93525 10.1635V10.1635L2.2108 9.96935ZM3.15849 11.8347L2.62815 12.365L3.15849 11.8347ZM2.2108 10.6411L1.48636 10.8352V10.8352L2.2108 10.6411ZM4.35206 7.8281L4.54617 8.55254H4.54617L4.35206 7.8281ZM6.21742 8.77578L5.68709 9.30611H5.68709L6.21742 8.77578ZM5.02385 7.8281L5.21796 7.10365H5.21796L5.02385 7.8281ZM16.6478 12.1706L16.4537 11.4462L16.4537 11.4462L16.6478 12.1706ZM14.7824 11.2229L14.2521 11.7533L14.2521 11.7533L14.7824 11.2229ZM15.976 12.1706L16.1701 11.4462L16.1701 11.4462L15.976 12.1706ZM18.789 10.0293L18.0646 9.83524L18.0646 9.83523L18.789 10.0293ZM18.789 9.35756L18.0646 9.55168L18.0646 9.55168L18.789 9.35756ZM10.4699 1.71024L10.2758 0.985793V0.985792L10.4699 1.71024ZM12.3353 2.65792L11.8049 3.18825L12.3353 2.65792ZM11.1417 1.71024L10.9476 2.43468L10.9476 2.43468L11.1417 1.71024ZM8.32867 3.85149L7.60422 3.65737V3.65737L8.32867 3.85149ZM9.27635 5.71685L8.74602 6.24718H8.74602L9.27635 5.71685ZM8.32867 4.52328L9.05311 4.32916V4.32916L8.32867 4.52328ZM6.44185 14.0574C6.73475 14.3503 6.73475 14.8252 6.44185 15.1181C6.14896 15.411 5.67409 15.411 5.38119 15.1181L6.44185 14.0574ZM15.6186 4.88062C15.9115 5.17352 15.9115 5.64839 15.6186 5.94128C15.3258 6.23418 14.8509 6.23418 14.558 5.94128L15.6186 4.88062ZM10.8058 13.3642L11.3361 12.8338H11.3361L10.8058 13.3642ZM13.8647 10.3052L14.3951 9.77491L13.8647 10.3052ZM7.1351 9.69346L7.66543 9.16313V9.16313L7.1351 9.69346ZM10.194 6.63453L10.7244 6.1042V6.1042L10.194 6.63453ZM3.77027 15.5054L4.3006 14.9751L5.52417 16.1987L4.99384 16.729L4.46351 17.2593L3.23994 16.0358L3.77027 15.5054ZM17.2296 4.49327L16.6992 5.0236L15.4757 3.80003L16.006 3.2697L16.5363 2.73937L17.7599 3.96294L17.2296 4.49327ZM17.2296 6.94042L16.6992 6.41009C17.0026 6.1067 17.1757 5.93138 17.2822 5.79179C17.3755 5.66951 17.3448 5.66612 17.3448 5.71685H18.0948L18.8448 5.71685C18.8448 6.12595 18.6698 6.44595 18.4747 6.70166C18.2928 6.94006 18.0333 7.19734 17.7599 7.47075L17.2296 6.94042ZM17.2296 4.49327L17.7599 3.96294C18.0333 4.23635 18.2928 4.49363 18.4747 4.73203C18.6698 4.98774 18.8448 5.30774 18.8448 5.71685L18.0948 5.71685H17.3448C17.3448 5.76758 17.3755 5.76419 17.2822 5.6419C17.1757 5.50232 17.0026 5.327 16.6992 5.0236L17.2296 4.49327ZM4.99384 16.729L5.52417 16.1987C5.82756 16.5021 6.00288 16.6751 6.14247 16.7816C6.26476 16.8749 6.26815 16.8442 6.21742 16.8442L6.21741 17.5942L6.21741 18.3442C5.80831 18.3442 5.48831 18.1693 5.2326 17.9742C4.9942 17.7923 4.73692 17.5327 4.46351 17.2593L4.99384 16.729ZM7.44099 16.729L7.97132 17.2593C7.69791 17.5327 7.44063 17.7923 7.20223 17.9742C6.94652 18.1693 6.62652 18.3442 6.21741 18.3442L6.21741 17.5942L6.21742 16.8442C6.16668 16.8442 6.17007 16.8749 6.29236 16.7816C6.43195 16.6751 6.60727 16.5021 6.91066 16.1987L7.44099 16.729ZM3.77027 13.0583L4.3006 13.5886C3.99721 13.892 3.82414 14.0673 3.71764 14.2069C3.62434 14.3292 3.65508 14.3326 3.65508 14.2819L2.90508 14.2819L2.15508 14.2819C2.15508 13.8727 2.33001 13.5527 2.52511 13.297C2.707 13.0586 2.96654 12.8014 3.23994 12.5279L3.77027 13.0583ZM3.77027 15.5054L3.23994 16.0358C2.96654 15.7623 2.707 15.5051 2.52511 15.2667C2.33001 15.011 2.15508 14.691 2.15508 14.2819L2.90508 14.2819L3.65508 14.2819C3.65508 14.2311 3.62434 14.2345 3.71764 14.3568C3.82414 14.4964 3.99721 14.6717 4.3006 14.9751L3.77027 15.5054ZM13.5588 3.2697L13.0285 2.73937C13.3019 2.46597 13.5592 2.20643 13.7976 2.02454C14.0533 1.82944 14.3733 1.65451 14.7824 1.65451L14.7824 2.40451V3.15451C14.8332 3.15451 14.8298 3.12377 14.7075 3.21707C14.5679 3.32358 14.3926 3.49664 14.0892 3.80003L13.5588 3.2697ZM16.006 3.2697L15.4757 3.80003C15.1723 3.49664 14.997 3.32358 14.8574 3.21707C14.7351 3.12377 14.7317 3.15451 14.7824 3.15451V2.40451L14.7824 1.65451C15.1915 1.65451 15.5115 1.82944 15.7672 2.02454C16.0056 2.20644 16.2629 2.46597 16.5363 2.73937L16.006 3.2697ZM8.05277 16.729L8.5831 16.1987L9.19489 16.8105L8.66456 17.3408L8.13423 17.8711L7.52244 17.2593L8.05277 16.729ZM11.7235 17.3408L11.1932 16.8105C11.4888 16.5148 11.6746 16.328 11.802 16.1752C11.9227 16.0304 11.9415 15.9725 11.9467 15.9531L12.6712 16.1472L13.3956 16.3413C13.3108 16.6578 13.1417 16.9108 12.954 17.1358C12.773 17.3529 12.53 17.595 12.2538 17.8711L11.7235 17.3408ZM11.7235 14.2819L12.2538 13.7515C12.53 14.0277 12.773 14.2697 12.954 14.4868C13.1417 14.7119 13.3108 14.9648 13.3956 15.2813L12.6712 15.4754L11.9467 15.6695C11.9415 15.6501 11.9227 15.5922 11.802 15.4474C11.6746 15.2946 11.4888 15.1078 11.1932 14.8122L11.7235 14.2819ZM12.6712 16.1472L11.9467 15.9531C11.9716 15.8602 11.9716 15.7624 11.9467 15.6695L12.6712 15.4754L13.3956 15.2813C13.4886 15.6285 13.4887 15.9941 13.3956 16.3413L12.6712 16.1472ZM11.7235 17.3408L12.2538 17.8711C11.9777 18.1472 11.7356 18.3903 11.5185 18.5713C11.2935 18.759 11.0405 18.9281 10.724 19.0129L10.5299 18.2885L10.3358 17.564C10.3552 17.5588 10.4131 17.54 10.5579 17.4193C10.7107 17.2919 10.8975 17.1061 11.1932 16.8105L11.7235 17.3408ZM8.66456 17.3408L9.19489 16.8105C9.49054 17.1061 9.67733 17.2919 9.8301 17.4193C9.97492 17.54 10.0328 17.5588 10.0522 17.564L9.85813 18.2885L9.66402 19.0129C9.34753 18.9281 9.09456 18.759 8.86951 18.5713C8.65241 18.3903 8.41036 18.1472 8.13423 17.8711L8.66456 17.3408ZM10.5299 18.2885L10.724 19.0129C10.3768 19.1059 10.0112 19.1059 9.66402 19.0129L9.85813 18.2885L10.0522 17.564C10.1451 17.5889 10.2429 17.5889 10.3358 17.564L10.5299 18.2885ZM3.15849 8.77578L3.68882 9.30611C3.39316 9.60176 3.20739 9.78855 3.08001 9.94132C2.95926 10.0861 2.94045 10.1441 2.93525 10.1635L2.2108 9.96935L1.48636 9.77523C1.57116 9.45875 1.7403 9.20578 1.92794 8.98073C2.10896 8.76363 2.35202 8.52158 2.62815 8.24545L3.15849 8.77578ZM3.15849 11.8347L2.62815 12.365C2.35202 12.0889 2.10896 11.8469 1.92794 11.6298C1.7403 11.4047 1.57116 11.1517 1.48636 10.8352L2.2108 10.6411L2.93525 10.447C2.94045 10.4664 2.95926 10.5244 3.08001 10.6692C3.20739 10.8219 3.39316 11.0087 3.68882 11.3044L3.15849 11.8347ZM2.2108 9.96935L2.93525 10.1635C2.91036 10.2563 2.91036 10.3541 2.93525 10.447L2.2108 10.6411L1.48636 10.8352C1.39333 10.488 1.39332 10.1224 1.48636 9.77523L2.2108 9.96935ZM3.15849 8.77578L2.62815 8.24545C2.90429 7.96931 3.14634 7.72625 3.36343 7.54523C3.58848 7.35759 3.84146 7.18845 4.15794 7.10365L4.35206 7.8281L4.54617 8.55254C4.52676 8.55774 4.46884 8.57656 4.32403 8.6973C4.17126 8.82468 3.98447 9.01045 3.68882 9.30611L3.15849 8.77578ZM6.21742 8.77578L5.68709 9.30611C5.39143 9.01045 5.20464 8.82468 5.05188 8.6973C4.90706 8.57656 4.84914 8.55774 4.82973 8.55254L5.02385 7.8281L5.21796 7.10365C5.53444 7.18845 5.78742 7.35759 6.01247 7.54523C6.22956 7.72625 6.47161 7.96932 6.74775 8.24545L6.21742 8.77578ZM4.35206 7.8281L4.15794 7.10365C4.50516 7.01062 4.87075 7.01062 5.21796 7.10365L5.02385 7.8281L4.82973 8.55254C4.73685 8.52765 4.63905 8.52765 4.54617 8.55254L4.35206 7.8281ZM17.2296 7.55221L17.7599 7.02187L18.3717 7.63366L17.8414 8.16399L17.311 8.69432L16.6992 8.08254L17.2296 7.55221ZM17.8414 11.2229L18.3717 11.7533C18.0955 12.0294 17.8535 12.2724 17.6364 12.4535C17.4114 12.6411 17.1584 12.8102 16.8419 12.895L16.6478 12.1706L16.4537 11.4462C16.4731 11.441 16.531 11.4221 16.6758 11.3014C16.8286 11.174 17.0154 10.9882 17.311 10.6926L17.8414 11.2229ZM14.7824 11.2229L15.3128 10.6926C15.6084 10.9882 15.7952 11.174 15.948 11.3014C16.0928 11.4221 16.1507 11.441 16.1701 11.4462L15.976 12.1706L15.7819 12.895C15.4654 12.8102 15.2124 12.6411 14.9874 12.4535C14.7703 12.2724 14.5282 12.0294 14.2521 11.7533L14.7824 11.2229ZM16.6478 12.1706L16.8419 12.895C16.4947 12.9881 16.1291 12.9881 15.7819 12.895L15.976 12.1706L16.1701 11.4462C16.263 11.471 16.3608 11.471 16.4537 11.4462L16.6478 12.1706ZM17.8414 11.2229L17.311 10.6926C17.6067 10.3969 17.7924 10.2101 17.9198 10.0574C18.0406 9.91256 18.0594 9.85465 18.0646 9.83524L18.789 10.0293L19.5135 10.2235C19.4287 10.5399 19.2595 10.7929 19.0719 11.018C18.8909 11.2351 18.6478 11.4771 18.3717 11.7533L17.8414 11.2229ZM17.8414 8.16399L18.3717 7.63366C18.6478 7.90979 18.8909 8.15184 19.0719 8.36894C19.2595 8.59399 19.4287 8.84696 19.5135 9.16345L18.789 9.35756L18.0646 9.55168C18.0594 9.53227 18.0406 9.47435 17.9198 9.32953C17.7924 9.17676 17.6067 8.98997 17.311 8.69432L17.8414 8.16399ZM18.789 10.0293L18.0646 9.83523C18.0895 9.74235 18.0895 9.64456 18.0646 9.55168L18.789 9.35756L19.5135 9.16345C19.6065 9.51066 19.6065 9.87625 19.5135 10.2235L18.789 10.0293ZM9.27635 2.65792L8.74602 2.12759C9.02215 1.85145 9.2642 1.60839 9.4813 1.42737C9.70635 1.23973 9.95932 1.07059 10.2758 0.985793L10.4699 1.71024L10.664 2.43468C10.6446 2.43988 10.5867 2.4587 10.4419 2.57944C10.2891 2.70682 10.1023 2.89259 9.80668 3.18825L9.27635 2.65792ZM12.3353 2.65792L11.8049 3.18825C11.5093 2.89259 11.3225 2.70682 11.1697 2.57944C11.0249 2.4587 10.967 2.43988 10.9476 2.43468L11.1417 1.71024L11.3358 0.985793C11.6523 1.07059 11.9053 1.23973 12.1303 1.42737C12.3474 1.60839 12.5895 1.85145 12.8656 2.12759L12.3353 2.65792ZM10.4699 1.71024L10.2758 0.985792C10.623 0.892757 10.9886 0.892757 11.3358 0.985793L11.1417 1.71024L10.9476 2.43468C10.8547 2.40979 10.7569 2.40979 10.664 2.43468L10.4699 1.71024ZM9.27635 2.65792L9.80668 3.18825C9.51102 3.4839 9.32525 3.67069 9.19787 3.82346C9.07712 3.96827 9.05831 4.02619 9.05311 4.0456L8.32867 3.85149L7.60422 3.65737C7.68902 3.34089 7.85816 3.08792 8.0458 2.86287C8.22682 2.64577 8.46988 2.40372 8.74602 2.12759L9.27635 2.65792ZM9.27635 5.71685L8.74602 6.24718C8.46988 5.97104 8.22682 5.729 8.0458 5.5119C7.85816 5.28685 7.68902 5.03387 7.60422 4.71739L8.32867 4.52328L9.05311 4.32916C9.05831 4.34857 9.07713 4.40649 9.19787 4.55131C9.32525 4.70407 9.51102 4.89086 9.80668 5.18652L9.27635 5.71685ZM8.32867 3.85149L9.05311 4.0456C9.02822 4.13848 9.02822 4.23628 9.05311 4.32916L8.32867 4.52328L7.60422 4.71739C7.51119 4.37018 7.51118 4.00459 7.60422 3.65737L8.32867 3.85149ZM3.15849 11.8347L3.68882 11.3044L6.44185 14.0574L5.91152 14.5877L5.38119 15.1181L2.62815 12.365L3.15849 11.8347ZM12.3353 2.65792L12.8656 2.12759L15.6186 4.88062L15.0883 5.41095L14.558 5.94128L11.8049 3.18825L12.3353 2.65792ZM11.7235 14.2819L11.1932 14.8122L10.2755 13.8945L10.8058 13.3642L11.3361 12.8338L12.2538 13.7515L11.7235 14.2819ZM14.7824 11.2229L14.2521 11.7533L13.3344 10.8356L13.8647 10.3052L14.3951 9.77491L15.3128 10.6926L14.7824 11.2229ZM10.8058 13.3642L10.2755 13.8945L6.60476 10.2238L7.1351 9.69346L7.66543 9.16313L11.3361 12.8338L10.8058 13.3642ZM7.1351 9.69346L6.60476 10.2238L5.68709 9.30611L6.21742 8.77578L6.74775 8.24545L7.66543 9.16313L7.1351 9.69346ZM13.8647 10.3052L13.3344 10.8356L9.6637 7.16486L10.194 6.63453L10.7244 6.1042L14.3951 9.77491L13.8647 10.3052ZM10.194 6.63453L9.6637 7.16486L8.74602 6.24718L9.27635 5.71685L9.80668 5.18652L10.7244 6.1042L10.194 6.63453ZM17.2296 7.55221L16.6992 8.08254C16.2374 7.6207 16.2374 6.87192 16.6992 6.41009L17.2296 6.94042L17.7599 7.47075C17.8838 7.3468 17.8838 7.14583 17.7599 7.02187L17.2296 7.55221ZM8.05277 16.729L7.52244 17.2593C7.6464 17.3833 7.84736 17.3833 7.97132 17.2593L7.44099 16.729L6.91066 16.1987C7.37249 15.7368 8.12127 15.7368 8.5831 16.1987L8.05277 16.729Z" fill="#696576"/>
<path opacity="0.5" d="M10.8058 13.3644L13.8647 10.3055M7.1351 9.6937L10.194 6.63477" stroke="#696576" stroke-width="1.5" stroke-linecap="round"/>
</svg>
