<svg width="21" height="20" viewBox="0 0 21 20" fill="none" xmlns="http://www.w3.org/2000/svg">
<circle cx="10.5" cy="9.99935" r="8.33333" stroke="#696576" stroke-width="1.5"/>
<circle cx="10.5" cy="10" r="2.5" stroke="#696576" stroke-width="1.5"/>
<path opacity="0.5" d="M2.16663 10.834C2.16663 10.834 4.00067 12.5007 5.49996 12.5007C6.50995 12.5007 7.67186 11.7443 8.32267 11.2507" stroke="#696576" stroke-width="1.5"/>
<path opacity="0.5" d="M12.1666 11.8537C12.5594 12.1998 13.0729 12.5007 13.6711 12.5007C15.0789 12.5007 15.0789 10.834 16.4868 10.834C17.3848 10.834 18.0918 11.512 18.4862 12.0031" stroke="#696576" stroke-width="1.5"/>
<path d="M12.5834 5.83268L13.8334 4.16602" stroke="#696576" stroke-width="1.5" stroke-linecap="round"/>
<path opacity="0.5" d="M16.3334 5.83333L17.1667 5" stroke="#696576" stroke-width="1.5" stroke-linecap="round"/>
<path d="M10.5 4.16732L9.66667 3.33398" stroke="#696576" stroke-width="1.5" stroke-linecap="round"/>
<path opacity="0.5" d="M9.25004 5.83268L8.11169 6.1377" stroke="#696576" stroke-width="1.5" stroke-linecap="round"/>
<path opacity="0.5" d="M14.3749 7.48124L14.4303 8.65845" stroke="#696576" stroke-width="1.5" stroke-linecap="round"/>
<path d="M17.7314 8.40483L16.333 9.63637" stroke="#696576" stroke-width="1.5" stroke-linecap="round"/>
<path opacity="0.5" d="M6.33337 4.16732L5.50004 3.33398" stroke="#696576" stroke-width="1.5" stroke-linecap="round"/>
<path d="M6.16041 7.62012L5.67272 6.54725" stroke="#696576" stroke-width="1.5" stroke-linecap="round"/>
<path d="M5.2208 10.5346L5.91683 9.58358" stroke="#696576" stroke-width="1.5" stroke-linecap="round"/>
<path opacity="0.5" d="M3.56894 8.62503L3.50339 7.44834" stroke="#696576" stroke-width="1.5" stroke-linecap="round"/>
</svg>
