<svg width="21" height="20" viewBox="0 0 21 20" fill="none" xmlns="http://www.w3.org/2000/svg">
<path d="M3.77052 15.5061L4.30085 14.9758L4.30085 14.9758L3.77052 15.5061ZM4.99409 16.7297L4.46376 17.26L4.46376 17.26L4.99409 16.7297ZM8.05302 16.7297L7.52269 17.26L7.52269 17.26L8.05302 16.7297ZM8.6648 17.3415L9.19513 16.8111L9.19513 16.8111L8.6648 17.3415ZM12.6714 16.1479L11.947 15.9538L11.947 15.9538L12.6714 16.1479ZM11.7237 14.2825L11.1934 14.8129L11.1934 14.8129L11.7237 14.2825ZM12.6714 15.4761L11.947 15.6702L11.947 15.6702L12.6714 15.4761ZM10.5302 18.2891L10.336 17.5647L10.336 17.5647L10.5302 18.2891ZM9.85838 18.2891L10.0525 17.5647L10.0525 17.5647L9.85838 18.2891ZM2.21105 9.97002L2.93549 10.1641L2.93549 10.1641L2.21105 9.97002ZM3.15873 11.8354L2.6284 12.3657L2.6284 12.3657L3.15873 11.8354ZM2.21105 10.6418L1.4866 10.8359L1.4866 10.8359L2.21105 10.6418ZM4.3523 7.82877L4.54642 8.55321L4.54641 8.55321L4.3523 7.82877ZM6.21766 8.77645L5.68733 9.30678L5.68733 9.30678L6.21766 8.77645ZM5.02409 7.82877L5.2182 7.10432L5.2182 7.10432L5.02409 7.82877ZM16.648 12.1713L16.4539 11.4468L16.4539 11.4468L16.648 12.1713ZM14.7827 11.2236L14.2523 11.7539L14.2523 11.7539L14.7827 11.2236ZM15.9762 12.1713L16.1703 11.4468L16.1704 11.4468L15.9762 12.1713ZM18.7893 10.03L18.0648 9.83591L18.0648 9.83591L18.7893 10.03ZM18.7893 9.35823L18.0648 9.55235L18.0648 9.55235L18.7893 9.35823ZM10.4702 1.71091L10.276 0.986464L10.276 0.986464L10.4702 1.71091ZM12.3355 2.65859L11.8052 3.18892L11.8052 3.18892L12.3355 2.65859ZM11.1419 1.71091L10.9478 2.43535L10.9478 2.43535L11.1419 1.71091ZM8.32891 3.85216L7.60447 3.65805L7.60447 3.65804L8.32891 3.85216ZM9.27659 5.71752L8.74626 6.24785L8.74626 6.24785L9.27659 5.71752ZM8.32891 4.52395L9.05335 4.32983L9.05335 4.32983L8.32891 4.52395ZM6.4421 14.0581C6.73499 14.351 6.73499 14.8259 6.4421 15.1187C6.1492 15.4116 5.67433 15.4116 5.38144 15.1187L6.4421 14.0581ZM15.6189 4.8813C15.9118 5.17419 15.9118 5.64906 15.6189 5.94196C15.326 6.23485 14.8511 6.23485 14.5582 5.94196L15.6189 4.8813ZM10.8061 13.3648L11.3364 12.8345L11.3364 12.8345L10.8061 13.3648ZM13.865 10.3059L14.3953 9.77558L14.3953 9.77558L13.865 10.3059ZM7.13534 9.69413L7.66567 9.1638L7.66567 9.1638L7.13534 9.69413ZM10.1943 6.6352L10.7246 6.10487L10.7246 6.10487L10.1943 6.6352ZM3.77052 15.5061L4.30085 14.9758L5.52442 16.1993L4.99409 16.7297L4.46376 17.26L3.24019 16.0364L3.77052 15.5061ZM17.2298 4.49395L16.6995 5.02428L15.4759 3.8007L16.0062 3.27037L16.5366 2.74004L17.7601 3.96362L17.2298 4.49395ZM17.2298 6.94109L16.6995 6.41076C17.0029 6.10737 17.1759 5.93205 17.2824 5.79246C17.3757 5.67018 17.345 5.66679 17.345 5.71752L18.095 5.71752L18.845 5.71752C18.845 6.12662 18.6701 6.44662 18.475 6.70233C18.2931 6.94074 18.0335 7.19801 17.7601 7.47142L17.2298 6.94109ZM17.2298 4.49395L17.7601 3.96362C18.0335 4.23702 18.2931 4.4943 18.475 4.7327C18.6701 4.98841 18.845 5.30841 18.845 5.71752L18.095 5.71752L17.345 5.71752C17.345 5.76825 17.3757 5.76486 17.2824 5.64258C17.1759 5.50299 17.0029 5.32767 16.6995 5.02428L17.2298 4.49395ZM4.99409 16.7297L5.52442 16.1993C5.82781 16.5027 6.00313 16.6758 6.14272 16.7823C6.265 16.8756 6.26839 16.8449 6.21766 16.8449L6.21766 17.5949L6.21766 18.3449C5.80855 18.3449 5.48855 18.1699 5.23285 17.9748C4.99444 17.7929 4.73716 17.5334 4.46376 17.26L4.99409 16.7297ZM7.44123 16.7297L7.97156 17.26C7.69816 17.5334 7.44088 17.7929 7.20247 17.9748C6.94676 18.1699 6.62677 18.3449 6.21766 18.3449L6.21766 17.5949L6.21766 16.8449C6.16693 16.8449 6.17032 16.8756 6.2926 16.7823C6.43219 16.6758 6.60751 16.5027 6.9109 16.1993L7.44123 16.7297ZM3.77052 13.059L4.30085 13.5893C3.99745 13.8927 3.82439 14.068 3.71788 14.2076C3.62459 14.3299 3.65532 14.3333 3.65532 14.2825L2.90532 14.2825L2.15532 14.2825C2.15532 13.8734 2.33025 13.5534 2.52535 13.2977C2.70725 13.0593 2.96678 12.802 3.24019 12.5286L3.77052 13.059ZM3.77052 15.5061L3.24019 16.0364C2.96678 15.763 2.70725 15.5057 2.52535 15.2673C2.33025 15.0116 2.15532 14.6916 2.15532 14.2825L2.90532 14.2825L3.65532 14.2825C3.65532 14.2318 3.62459 14.2352 3.71788 14.3575C3.82439 14.4971 3.99745 14.6724 4.30085 14.9758L3.77052 15.5061ZM13.5591 3.27037L13.0288 2.74004C13.3022 2.46664 13.5594 2.20711 13.7979 2.02521C14.0536 1.83011 14.3736 1.65518 14.7827 1.65518L14.7827 2.40518L14.7827 3.15518C14.8334 3.15518 14.83 3.12445 14.7077 3.21774C14.5681 3.32425 14.3928 3.49731 14.0894 3.8007L13.5591 3.27037ZM16.0062 3.27037L15.4759 3.8007C15.1725 3.49731 14.9972 3.32425 14.8576 3.21774C14.7353 3.12445 14.7319 3.15518 14.7827 3.15518L14.7827 2.40518L14.7827 1.65518C15.1918 1.65518 15.5118 1.83011 15.7675 2.02521C16.0059 2.20711 16.2632 2.46664 16.5366 2.74004L16.0062 3.27037ZM8.05302 16.7297L8.58335 16.1993L9.19513 16.8111L8.6648 17.3415L8.13447 17.8718L7.52269 17.26L8.05302 16.7297ZM11.7237 17.3415L11.1934 16.8111C11.4891 16.5155 11.6748 16.3287 11.8022 16.1759C11.923 16.0311 11.9418 15.9732 11.947 15.9538L12.6714 16.1479L13.3959 16.342C13.3111 16.6585 13.1419 16.9115 12.9543 17.1365C12.7733 17.3536 12.5302 17.5957 12.2541 17.8718L11.7237 17.3415ZM11.7237 14.2825L12.2541 13.7522C12.5302 14.0283 12.7733 14.2704 12.9543 14.4875C13.1419 14.7125 13.3111 14.9655 13.3959 15.282L12.6714 15.4761L11.947 15.6702C11.9418 15.6508 11.923 15.5929 11.8022 15.4481C11.6748 15.2953 11.4891 15.1085 11.1934 14.8129L11.7237 14.2825ZM12.6714 16.1479L11.947 15.9538C11.9719 15.8609 11.9719 15.7631 11.947 15.6702L12.6714 15.4761L13.3959 15.282C13.4889 15.6292 13.4889 15.9948 13.3959 16.342L12.6714 16.1479ZM11.7237 17.3415L12.2541 17.8718C11.9779 18.1479 11.7359 18.391 11.5188 18.572C11.2937 18.7596 11.0408 18.9288 10.7243 19.0136L10.5302 18.2891L10.336 17.5647C10.3555 17.5595 10.4134 17.5407 10.5582 17.4199C10.711 17.2925 10.8978 17.1068 11.1934 16.8111L11.7237 17.3415ZM8.6648 17.3415L9.19513 16.8111C9.49079 17.1068 9.67758 17.2925 9.83035 17.4199C9.97516 17.5407 10.0331 17.5595 10.0525 17.5647L9.85838 18.2891L9.66426 19.0136C9.34778 18.9288 9.0948 18.7596 8.86975 18.572C8.65266 18.391 8.41061 18.1479 8.13447 17.8718L8.6648 17.3415ZM10.5302 18.2891L10.7243 19.0136C10.3771 19.1066 10.0115 19.1066 9.66426 19.0136L9.85838 18.2891L10.0525 17.5647C10.1454 17.5896 10.2432 17.5896 10.336 17.5647L10.5302 18.2891ZM3.15873 8.77645L3.68906 9.30678C3.39341 9.60243 3.20763 9.78922 3.08025 9.94199C2.95951 10.0868 2.94069 10.1447 2.93549 10.1641L2.21105 9.97002L1.4866 9.77591C1.57141 9.45942 1.74054 9.20645 1.92819 8.9814C2.1092 8.7643 2.35227 8.52225 2.6284 8.24612L3.15873 8.77645ZM3.15873 11.8354L2.6284 12.3657C2.35227 12.0896 2.1092 11.8475 1.92819 11.6304C1.74054 11.4054 1.57141 11.1524 1.4866 10.8359L2.21105 10.6418L2.93549 10.4477C2.94069 10.4671 2.95951 10.525 3.08026 10.6698C3.20763 10.8226 3.39341 11.0094 3.68906 11.305L3.15873 11.8354ZM2.21105 9.97002L2.93549 10.1641C2.91061 10.257 2.91061 10.3548 2.93549 10.4477L2.21105 10.6418L1.4866 10.8359C1.39357 10.4887 1.39357 10.1231 1.4866 9.7759L2.21105 9.97002ZM3.15873 8.77645L2.6284 8.24612C2.90453 7.96999 3.14658 7.72692 3.36368 7.54591C3.58873 7.35826 3.8417 7.18913 4.15819 7.10432L4.3523 7.82877L4.54641 8.55321C4.52701 8.55841 4.46909 8.57723 4.32427 8.69797C4.1715 8.82535 3.98471 9.01113 3.68906 9.30678L3.15873 8.77645ZM6.21766 8.77645L5.68733 9.30678C5.39168 9.01113 5.20489 8.82535 5.05212 8.69797C4.9073 8.57723 4.84938 8.55841 4.82998 8.55321L5.02409 7.82877L5.2182 7.10432C5.53469 7.18913 5.78766 7.35826 6.01271 7.54591C6.22981 7.72692 6.47186 7.96999 6.74799 8.24612L6.21766 8.77645ZM4.3523 7.82877L4.15819 7.10432C4.5054 7.01129 4.87099 7.01129 5.2182 7.10432L5.02409 7.82877L4.82998 8.55321C4.73709 8.52833 4.6393 8.52833 4.54642 8.55321L4.3523 7.82877ZM17.2298 7.55288L17.7601 7.02255L18.3719 7.63433L17.8416 8.16466L17.3113 8.69499L16.6995 8.08321L17.2298 7.55288ZM17.8416 11.2236L18.3719 11.7539C18.0958 12.0301 17.8537 12.2731 17.6366 12.4541C17.4116 12.6418 17.1586 12.8109 16.8421 12.8957L16.648 12.1713L16.4539 11.4468C16.4733 11.4416 16.5312 11.4228 16.6761 11.3021C16.8288 11.1747 17.0156 10.9889 17.3113 10.6933L17.8416 11.2236ZM14.7827 11.2236L15.313 10.6933C15.6086 10.9889 15.7954 11.1747 15.9482 11.3021C16.093 11.4228 16.1509 11.4416 16.1703 11.4468L15.9762 12.1713L15.7821 12.8957C15.4656 12.8109 15.2127 12.6418 14.9876 12.4541C14.7705 12.2731 14.5285 12.0301 14.2523 11.7539L14.7827 11.2236ZM16.648 12.1713L16.8421 12.8957C16.4949 12.9888 16.1293 12.9888 15.7821 12.8957L15.9762 12.1713L16.1704 11.4468C16.2632 11.4717 16.361 11.4717 16.4539 11.4468L16.648 12.1713ZM17.8416 11.2236L17.3113 10.6933C17.6069 10.3976 17.7927 10.2108 17.9201 10.0581C18.0408 9.91324 18.0596 9.85532 18.0648 9.83591L18.7893 10.03L19.5137 10.2241C19.4289 10.5406 19.2598 10.7936 19.0721 11.0186C18.8911 11.2357 18.6481 11.4778 18.3719 11.7539L17.8416 11.2236ZM17.8416 8.16466L18.3719 7.63433C18.6481 7.91046 18.8911 8.15251 19.0721 8.36961C19.2598 8.59466 19.4289 8.84764 19.5137 9.16412L18.7893 9.35823L18.0648 9.55235C18.0596 9.53294 18.0408 9.47502 17.9201 9.3302C17.7927 9.17744 17.6069 8.99065 17.3113 8.69499L17.8416 8.16466ZM18.7893 10.03L18.0648 9.83591C18.0897 9.74303 18.0897 9.64523 18.0648 9.55235L18.7893 9.35823L19.5137 9.16412C19.6068 9.51133 19.6068 9.87692 19.5137 10.2241L18.7893 10.03ZM9.27659 2.65859L8.74626 2.12826C9.02239 1.85213 9.26444 1.60906 9.48154 1.42804C9.70659 1.2404 9.95956 1.07127 10.276 0.986464L10.4702 1.71091L10.6643 2.43535C10.6449 2.44055 10.5869 2.45937 10.4421 2.58011C10.2894 2.70749 10.1026 2.89327 9.80692 3.18892L9.27659 2.65859ZM12.3355 2.65859L11.8052 3.18892C11.5095 2.89327 11.3227 2.70749 11.17 2.58011C11.0252 2.45937 10.9672 2.44055 10.9478 2.43535L11.1419 1.71091L11.3361 0.986464C11.6525 1.07127 11.9055 1.2404 12.1306 1.42805C12.3477 1.60906 12.5897 1.85213 12.8659 2.12826L12.3355 2.65859ZM10.4702 1.71091L10.276 0.986464C10.6233 0.893428 10.9888 0.893428 11.3361 0.986464L11.1419 1.71091L10.9478 2.43535C10.855 2.41047 10.7572 2.41047 10.6643 2.43535L10.4702 1.71091ZM9.27659 2.65859L9.80692 3.18892C9.51127 3.48457 9.32549 3.67136 9.19812 3.82413C9.07737 3.96895 9.05855 4.02686 9.05335 4.04627L8.32891 3.85216L7.60447 3.65804C7.68927 3.34156 7.8584 3.08859 8.04605 2.86354C8.22706 2.64644 8.47013 2.40439 8.74626 2.12826L9.27659 2.65859ZM9.27659 5.71752L8.74626 6.24785C8.47013 5.97172 8.22706 5.72967 8.04605 5.51257C7.8584 5.28752 7.68927 5.03455 7.60447 4.71806L8.32891 4.52395L9.05335 4.32983C9.05856 4.34924 9.07737 4.40716 9.19812 4.55198C9.32549 4.70475 9.51127 4.89154 9.80692 5.18719L9.27659 5.71752ZM8.32891 3.85216L9.05335 4.04627C9.02847 4.13915 9.02847 4.23695 9.05335 4.32983L8.32891 4.52395L7.60447 4.71806C7.51143 4.37085 7.51143 4.00526 7.60447 3.65805L8.32891 3.85216ZM3.15873 11.8354L3.68906 11.305L6.4421 14.0581L5.91177 14.5884L5.38144 15.1187L2.6284 12.3657L3.15873 11.8354ZM12.3355 2.65859L12.8659 2.12826L15.6189 4.8813L15.0886 5.41163L14.5582 5.94196L11.8052 3.18892L12.3355 2.65859ZM11.7237 14.2825L11.1934 14.8129L10.2757 13.8952L10.8061 13.3648L11.3364 12.8345L12.2541 13.7522L11.7237 14.2825ZM14.7827 11.2236L14.2523 11.7539L13.3347 10.8362L13.865 10.3059L14.3953 9.77558L15.313 10.6933L14.7827 11.2236ZM10.8061 13.3648L10.2757 13.8952L6.60501 10.2245L7.13534 9.69413L7.66567 9.1638L11.3364 12.8345L10.8061 13.3648ZM7.13534 9.69413L6.60501 10.2245L5.68733 9.30678L6.21766 8.77645L6.74799 8.24612L7.66567 9.1638L7.13534 9.69413ZM13.865 10.3059L13.3347 10.8362L9.66394 7.16553L10.1943 6.6352L10.7246 6.10487L14.3953 9.77558L13.865 10.3059ZM10.1943 6.6352L9.66394 7.16553L8.74626 6.24785L9.27659 5.71752L9.80692 5.18719L10.7246 6.10487L10.1943 6.6352ZM17.2298 7.55288L16.6995 8.08321C16.2376 7.62137 16.2376 6.87259 16.6995 6.41076L17.2298 6.94109L17.7601 7.47142C17.8841 7.34747 17.8841 7.1465 17.7601 7.02255L17.2298 7.55288ZM8.05302 16.7297L7.52269 17.26C7.64664 17.384 7.84761 17.384 7.97156 17.26L7.44123 16.7297L6.9109 16.1993C7.37273 15.7375 8.12152 15.7375 8.58335 16.1993L8.05302 16.7297Z" fill="url(#paint0_linear_5018_18503)"/>
<path opacity="0.5" d="M10.8058 13.3646L13.8647 10.3057M7.1351 9.69388L10.194 6.63495" stroke="url(#paint1_linear_5018_18503)" stroke-width="1.5" stroke-linecap="round"/>
<defs>
<linearGradient id="paint0_linear_5018_18503" x1="15.9764" y1="3.39288" x2="6.69064" y2="15.9524" gradientUnits="userSpaceOnUse">
<stop stop-color="#FDAF20"/>
<stop offset="1" stop-color="#794201"/>
</linearGradient>
<linearGradient id="paint1_linear_5018_18503" x1="12.7111" y1="7.33195" x2="8.96172" y2="12.4032" gradientUnits="userSpaceOnUse">
<stop stop-color="#FDAF20"/>
<stop offset="1" stop-color="#794201"/>
</linearGradient>
</defs>
</svg>
