<svg width="24" height="24" viewBox="0 0 24 24" fill="none" xmlns="http://www.w3.org/2000/svg">
<path d="M1.53479 10.9716C1.60847 9.76274 1.64531 9.15832 1.95854 8.57697C2.24473 8.04582 2.7923 7.5306 3.33988 7.27726C3.93921 6.99997 4.62617 6.99997 6.00008 6.99997C6.51215 6.99997 6.76819 6.99997 7.0162 6.95809C7.26138 6.91669 7.50046 6.84496 7.72795 6.74457C7.95806 6.64301 8.17181 6.50207 8.59932 6.2202L8.81825 6.07585C11.3612 4.39916 12.6327 3.56082 13.7001 3.92505C13.9047 3.99489 14.1028 4.09569 14.2797 4.22002C15.2024 4.86847 15.2725 6.37718 15.4127 9.39459C15.4646 10.5118 15.5 11.4681 15.5 12C15.5 12.5319 15.4646 13.4881 15.4127 14.6054C15.2725 17.6228 15.2024 19.1315 14.2797 19.7799C14.1028 19.9043 13.9047 20.0051 13.7001 20.0749C12.6327 20.4391 11.3612 19.6008 8.81825 17.9241L8.59932 17.7797C8.17181 17.4979 7.95806 17.3569 7.72795 17.2554C7.50046 17.155 7.26138 17.0833 7.0162 17.0419C6.76819 17 6.51215 17 6.00008 17C4.62617 17 3.93921 17 3.33988 16.7227C2.7923 16.4693 2.24473 15.9541 1.95854 15.423C1.64531 14.8416 1.60847 14.2372 1.53479 13.0284C1.51299 12.6708 1.5 12.3224 1.5 12C1.5 11.6776 1.51299 11.3292 1.53479 10.9716Z" stroke="#F2F2F3" stroke-width="1.5"/>
<path opacity="0.5" d="M22 10L18 14M18 10L22 14" stroke="#F2F2F3" stroke-width="1.5" stroke-linecap="round"/>
</svg>
