<svg width="40" height="40" viewBox="0 0 40 40" fill="none" xmlns="http://www.w3.org/2000/svg">
<path d="M0 16C0 7.16344 7.16344 0 16 0H24C32.8366 0 40 7.16344 40 16V24C40 32.8366 32.8366 40 24 40H16C7.16344 40 0 32.8366 0 24V16Z" fill="#1A191D"/>
<circle cx="20" cy="20" r="3" stroke="#F2F2F3" stroke-width="1.5"/>
<path opacity="0.5" d="M21.7654 10.1522C21.3978 10 20.9319 10 20 10C19.0681 10 18.6022 10 18.2346 10.1522C17.7446 10.3552 17.3552 10.7446 17.1522 11.2346C17.0596 11.4583 17.0233 11.7185 17.0091 12.098C16.9883 12.6557 16.7023 13.1719 16.2189 13.4509C15.7356 13.73 15.1456 13.7195 14.6522 13.4588C14.3164 13.2813 14.073 13.1826 13.8329 13.151C13.307 13.0818 12.7752 13.2243 12.3544 13.5472C12.0387 13.7894 11.8058 14.1929 11.3398 14.9999C10.8739 15.807 10.6409 16.2105 10.589 16.6049C10.5198 17.1308 10.6623 17.6627 10.9852 18.0835C11.1326 18.2756 11.3397 18.437 11.6612 18.639C12.1338 18.936 12.4379 19.4419 12.4379 20C12.4378 20.5581 12.1337 21.0639 11.6612 21.3608C11.3396 21.5629 11.1325 21.7244 10.9851 21.9165C10.6622 22.3373 10.5197 22.8691 10.5889 23.395C10.6408 23.7894 10.8738 24.193 11.3397 25C11.8057 25.807 12.0386 26.2106 12.3543 26.4527C12.7751 26.7756 13.3069 26.9181 13.8328 26.8489C14.0729 26.8173 14.3163 26.7186 14.652 26.5412C15.1455 26.2804 15.7356 26.27 16.2189 26.549C16.7022 26.8281 16.9883 27.3443 17.0091 27.9021C17.0233 28.2815 17.0596 28.5417 17.1522 28.7654C17.3552 29.2554 17.7446 29.6448 18.2346 29.8478C18.6022 30 19.0681 30 20 30C20.9319 30 21.3978 30 21.7654 29.8478C22.2554 29.6448 22.6448 29.2554 22.8477 28.7654C22.9404 28.5417 22.9767 28.2815 22.9909 27.902C23.0117 27.3443 23.2977 26.8281 23.781 26.549C24.2643 26.2699 24.8544 26.2804 25.3479 26.5412C25.6836 26.7186 25.927 26.8172 26.167 26.8488C26.6929 26.9181 27.2248 26.7756 27.6456 26.4527C27.9612 26.2105 28.1942 25.807 28.6601 24.9999C29.1261 24.1929 29.3591 23.7894 29.411 23.395C29.4802 22.8691 29.3377 22.3372 29.0148 21.9164C28.8674 21.7243 28.6602 21.5628 28.3387 21.3608C27.8662 21.0639 27.5621 20.558 27.5621 19.9999C27.5621 19.4418 27.8662 18.9361 28.3387 18.6392C28.6603 18.4371 28.8675 18.2757 29.0149 18.0835C29.3378 17.6627 29.4803 17.1309 29.4111 16.605C29.3592 16.2106 29.1262 15.807 28.6602 15C28.1943 14.193 27.9613 13.7894 27.6457 13.5473C27.2249 13.2244 26.693 13.0818 26.1671 13.1511C25.9271 13.1827 25.6837 13.2814 25.3479 13.4588C24.8545 13.7196 24.2644 13.73 23.7811 13.451C23.2977 13.1719 23.0117 12.6557 22.9909 12.0979C22.9767 11.7185 22.9404 11.4583 22.8477 11.2346C22.6448 10.7446 22.2554 10.3552 21.7654 10.1522Z" stroke="#F2F2F3" stroke-width="1.5"/>
</svg>
