<svg width="17" height="16" viewBox="0 0 17 16" fill="none" xmlns="http://www.w3.org/2000/svg">
<circle opacity="0.5" cx="8.50004" cy="7.99967" r="6.66667" stroke="#F2F2F3" stroke-width="1.5"/>
<path d="M5.83337 6.33301C5.83337 6.02238 5.83337 5.86707 5.88412 5.74455C5.95178 5.5812 6.08157 5.45142 6.24492 5.38375C6.36743 5.33301 6.52275 5.33301 6.83337 5.33301C7.144 5.33301 7.29932 5.33301 7.42183 5.38375C7.58518 5.45142 7.71496 5.5812 7.78263 5.74455C7.83337 5.86707 7.83337 6.02238 7.83337 6.33301V9.66634C7.83337 9.97697 7.83337 10.1323 7.78263 10.2548C7.71496 10.4181 7.58518 10.5479 7.42183 10.6156C7.29932 10.6663 7.144 10.6663 6.83337 10.6663C6.52275 10.6663 6.36743 10.6663 6.24492 10.6156C6.08157 10.5479 5.95178 10.4181 5.88412 10.2548C5.83337 10.1323 5.83337 9.97697 5.83337 9.66634V6.33301Z" stroke="#F2F2F3" stroke-width="1.5"/>
<path d="M9.16663 6.33301C9.16663 6.02238 9.16663 5.86707 9.21737 5.74455C9.28504 5.5812 9.41482 5.45142 9.57817 5.38375C9.70068 5.33301 9.856 5.33301 10.1666 5.33301C10.4773 5.33301 10.6326 5.33301 10.7551 5.38375C10.9184 5.45142 11.0482 5.5812 11.1159 5.74455C11.1666 5.86707 11.1666 6.02238 11.1666 6.33301V9.66634C11.1666 9.97697 11.1666 10.1323 11.1159 10.2548C11.0482 10.4181 10.9184 10.5479 10.7551 10.6156C10.6326 10.6663 10.4773 10.6663 10.1666 10.6663C9.856 10.6663 9.70068 10.6663 9.57817 10.6156C9.41482 10.5479 9.28504 10.4181 9.21737 10.2548C9.16663 10.1323 9.16663 9.97697 9.16663 9.66634V6.33301Z" stroke="#F2F2F3" stroke-width="1.5"/>
</svg>
