<svg width="49" height="48" viewBox="0 0 49 48" fill="none" xmlns="http://www.w3.org/2000/svg">
<path d="M0.5 24C0.5 10.7452 11.2452 0 24.5 0C37.7548 0 48.5 10.7452 48.5 24C48.5 37.2548 37.7548 48 24.5 48C11.2452 48 0.5 37.2548 0.5 24Z" fill="#E27B00" fill-opacity="0.12"/>
<rect x="4.5" y="4" width="40" height="40" rx="20" fill="#E27B00"/>
<circle opacity="0.5" cx="24.5" cy="24.0003" r="13.3333" stroke="#F2F2F3" stroke-width="1.5"/>
<path d="M19.1666 20.667C19.1666 20.0457 19.1666 19.7351 19.2681 19.4901C19.4034 19.1634 19.663 18.9038 19.9897 18.7685C20.2347 18.667 20.5454 18.667 21.1666 18.667C21.7879 18.667 22.0985 18.667 22.3435 18.7685C22.6702 18.9038 22.9298 19.1634 23.0651 19.4901C23.1666 19.7351 23.1666 20.0457 23.1666 20.667V27.3337C23.1666 27.9549 23.1666 28.2655 23.0651 28.5106C22.9298 28.8373 22.6702 29.0968 22.3435 29.2322C22.0985 29.3337 21.7879 29.3337 21.1666 29.3337C20.5454 29.3337 20.2347 29.3337 19.9897 29.2322C19.663 29.0968 19.4034 28.8373 19.2681 28.5106C19.1666 28.2655 19.1666 27.9549 19.1666 27.3337V20.667Z" stroke="#F2F2F3" stroke-width="1.5"/>
<path d="M25.8334 20.667C25.8334 20.0457 25.8334 19.7351 25.9349 19.4901C26.0702 19.1634 26.3298 18.9038 26.6565 18.7685C26.9015 18.667 27.2121 18.667 27.8334 18.667C28.4546 18.667 28.7653 18.667 29.0103 18.7685C29.337 18.9038 29.5966 19.1634 29.7319 19.4901C29.8334 19.7351 29.8334 20.0457 29.8334 20.667V27.3337C29.8334 27.9549 29.8334 28.2655 29.7319 28.5106C29.5966 28.8373 29.337 29.0968 29.0103 29.2322C28.7653 29.3337 28.4546 29.3337 27.8334 29.3337C27.2121 29.3337 26.9015 29.3337 26.6565 29.2322C26.3298 29.0968 26.0702 28.8373 25.9349 28.5106C25.8334 28.2655 25.8334 27.9549 25.8334 27.3337V20.667Z" stroke="#F2F2F3" stroke-width="1.5"/>
</svg>
