<svg width="65" height="64" viewBox="0 0 65 64" fill="none" xmlns="http://www.w3.org/2000/svg">
<circle opacity="0.5" cx="32.5" cy="32.0002" r="26.6667" stroke="#F2F2F3" stroke-width="1.5"/>
<path d="M21.8333 25.3335C21.8333 24.091 21.8333 23.4697 22.0363 22.9797C22.307 22.3263 22.8261 21.8071 23.4795 21.5365C23.9696 21.3335 24.5908 21.3335 25.8333 21.3335C27.0758 21.3335 27.6971 21.3335 28.1872 21.5365C28.8406 21.8071 29.3597 22.3263 29.6303 22.9797C29.8333 23.4697 29.8333 24.091 29.8333 25.3335V38.6668C29.8333 39.9093 29.8333 40.5306 29.6303 41.0207C29.3597 41.6741 28.8406 42.1932 28.1872 42.4638C27.6971 42.6668 27.0758 42.6668 25.8333 42.6668C24.5908 42.6668 23.9696 42.6668 23.4795 42.4638C22.8261 42.1932 22.307 41.6741 22.0363 41.0207C21.8333 40.5306 21.8333 39.9093 21.8333 38.6668V25.3335Z" stroke="#F2F2F3" stroke-width="1.5"/>
<path d="M35.1667 25.3335C35.1667 24.091 35.1667 23.4697 35.3697 22.9797C35.6403 22.3263 36.1594 21.8071 36.8128 21.5365C37.3029 21.3335 37.9242 21.3335 39.1667 21.3335C40.4092 21.3335 41.0304 21.3335 41.5205 21.5365C42.1739 21.8071 42.693 22.3263 42.9637 22.9797C43.1667 23.4697 43.1667 24.091 43.1667 25.3335V38.6668C43.1667 39.9093 43.1667 40.5306 42.9637 41.0207C42.693 41.6741 42.1739 42.1932 41.5205 42.4638C41.0304 42.6668 40.4092 42.6668 39.1667 42.6668C37.9242 42.6668 37.3029 42.6668 36.8128 42.4638C36.1594 42.1932 35.6403 41.6741 35.3697 41.0207C35.1667 40.5306 35.1667 39.9093 35.1667 38.6668V25.3335Z" stroke="#F2F2F3" stroke-width="1.5"/>
</svg>
