<svg width="32" height="32" viewBox="0 0 32 32" fill="none" xmlns="http://www.w3.org/2000/svg">
<path d="M0 12C0 5.37258 5.37258 0 12 0H20C26.6274 0 32 5.37258 32 12V20C32 26.6274 26.6274 32 20 32H12C5.37258 32 0 26.6274 0 20V12Z" fill="#E27B00" fill-opacity="0.12"/>
<path d="M7.66663 15.9997C7.66663 12.857 7.66663 11.2856 8.64294 10.3093C9.61925 9.33301 11.1906 9.33301 14.3333 9.33301H17.6666C20.8093 9.33301 22.3807 9.33301 23.357 10.3093C24.3333 11.2856 24.3333 12.857 24.3333 15.9997C24.3333 19.1424 24.3333 20.7137 23.357 21.69C22.3807 22.6663 20.8093 22.6663 17.6666 22.6663H14.3333C11.1906 22.6663 9.61925 22.6663 8.64294 21.69C7.66663 20.7137 7.66663 19.1424 7.66663 15.9997Z" stroke="#E27B00" stroke-width="1.5"/>
<path opacity="0.5" d="M14.3333 19.333H11" stroke="#E27B00" stroke-width="1.5" stroke-linecap="round"/>
<path opacity="0.5" d="M17.6666 19.333H16.4166" stroke="#E27B00" stroke-width="1.5" stroke-linecap="round"/>
<path opacity="0.5" d="M7.66663 14.333L24.3333 14.333" stroke="#E27B00" stroke-width="1.5" stroke-linecap="round"/>
</svg>
