<svg width="12" height="12" viewBox="0 0 12 12" fill="none" xmlns="http://www.w3.org/2000/svg">
<g clip-path="url(#clip0_7386_27556)">
<path d="M7.64347 1.57589L7.18003 2.03933L2.91941 6.29995L2.9194 6.29996C2.63083 6.58853 2.48654 6.73282 2.36245 6.89192C2.21607 7.07959 2.09057 7.28265 1.98817 7.49751C1.90137 7.67965 1.83684 7.87324 1.70778 8.26041L1.1609 9.90104L1.02722 10.3021C0.963714 10.4926 1.0133 10.7027 1.15532 10.8447C1.29733 10.9867 1.50739 11.0363 1.69792 10.9728L2.09896 10.8391L3.73959 10.2922L3.7396 10.2922C4.12676 10.1632 4.32035 10.0986 4.50249 10.0118C4.71735 9.90943 4.92041 9.78393 5.10808 9.63755C5.26718 9.51346 5.41146 9.36917 5.70003 9.0806L5.70005 9.08059L9.96067 4.81997L10.4241 4.35653C11.192 3.58868 11.192 2.34374 10.4241 1.57589C9.65626 0.808037 8.41132 0.808037 7.64347 1.57589Z" stroke="#E27B00" stroke-width="1.5"/>
<path opacity="0.5" d="M7.18002 2.03906C7.18002 2.03906 7.23795 3.02387 8.1069 3.89282C8.97585 4.76177 9.96066 4.8197 9.96066 4.8197M2.09894 10.8388L1.16089 9.90077" stroke="#E27B00" stroke-width="1.5"/>
</g>
<defs>
<clipPath id="clip0_7386_27556">
<rect width="12" height="12" fill="white"/>
</clipPath>
</defs>
</svg>
