<svg width="48" height="48" viewBox="0 0 48 48" fill="none" xmlns="http://www.w3.org/2000/svg">
<path d="M0 24C0 10.7452 10.7452 0 24 0V0C37.2548 0 48 10.7452 48 24V24C48 37.2548 37.2548 48 24 48V48C10.7452 48 0 37.2548 0 24V24Z" fill="#E27B00"/>
<circle opacity="0.5" cx="24" cy="24" r="10" stroke="#F2F2F3" stroke-width="1.5"/>
<path d="M25.8876 21.9348C26.9625 22.8117 27.5 23.2501 27.5 24C27.5 24.7499 26.9625 25.1883 25.8876 26.0652C25.5909 26.3073 25.2966 26.5352 25.0261 26.7251C24.7888 26.8917 24.5201 27.064 24.2419 27.2332C23.1695 27.8853 22.6333 28.2114 22.1524 27.8504C21.6715 27.4894 21.6278 26.7336 21.5404 25.2222C21.5157 24.7947 21.5 24.3757 21.5 24C21.5 23.6243 21.5157 23.2053 21.5404 22.7778C21.6278 21.2664 21.6715 20.5106 22.1524 20.1496C22.6333 19.7886 23.1695 20.1147 24.2419 20.7668C24.5201 20.936 24.7888 21.1083 25.0261 21.2749C25.2966 21.4648 25.5909 21.6927 25.8876 21.9348Z" stroke="#F2F2F3" stroke-width="1.5"/>
</svg>
