<svg width="43" height="42" viewBox="0 0 43 42" fill="none" xmlns="http://www.w3.org/2000/svg">
<path d="M0.5 21C0.5 9.40202 9.90202 0 21.5 0C33.098 0 42.5 9.40202 42.5 21C42.5 32.598 33.098 42 21.5 42C9.90202 42 0.5 32.598 0.5 21Z" fill="#E27B00" fill-opacity="0.12"/>
<path d="M15.5 21.75C15.0858 21.75 14.75 21.4142 14.75 21C14.75 20.5858 15.0858 20.25 15.5 20.25L20.75 20.25V15C20.75 14.5858 21.0858 14.25 21.5 14.25C21.9142 14.25 22.25 14.5858 22.25 15V20.25L27.5 20.25C27.9142 20.25 28.25 20.5858 28.25 21C28.25 21.4142 27.9142 21.75 27.5 21.75H22.25V27C22.25 27.4142 21.9142 27.75 21.5 27.75C21.0858 27.75 20.75 27.4142 20.75 27L20.75 21.75H15.5Z" fill="#E27B00"/>
</svg>
