<svg width="36" height="36" viewBox="0 0 36 36" fill="none" xmlns="http://www.w3.org/2000/svg">
<path d="M0 12C0 5.37258 5.37258 0 12 0H24C30.6274 0 36 5.37258 36 12V24C36 30.6274 30.6274 36 24 36H12C5.37258 36 0 30.6274 0 24V12Z" fill="#E27B00" fill-opacity="0.12"/>
<path d="M23.6243 16.0907V15.5035C23.6243 12.2795 21.1062 9.66602 18 9.66602C14.8938 9.66602 12.3757 12.2795 12.3757 15.5035V16.0907C12.3757 16.7953 12.1748 17.4842 11.7982 18.0705L10.8753 19.5073C10.0324 20.8196 10.6759 22.6034 12.142 23.0184C15.9773 24.1041 20.0227 24.1041 23.858 23.0184C25.3241 22.6034 25.9676 20.8196 25.1247 19.5073L24.2018 18.0705C23.8252 17.4842 23.6243 16.7953 23.6243 16.0907Z" stroke="#E27B00" stroke-width="1.5"/>
<path opacity="0.5" d="M14.25 23.834C14.7959 25.2905 16.2687 26.334 18 26.334C19.7313 26.334 21.2041 25.2905 21.75 23.834" stroke="#E27B00" stroke-width="1.5" stroke-linecap="round"/>
</svg>
