<svg width="36" height="36" viewBox="0 0 36 36" fill="none" xmlns="http://www.w3.org/2000/svg">
<path d="M0 12C0 5.37258 5.37258 0 12 0H24C30.6274 0 36 5.37258 36 12V24C36 30.6274 30.6274 36 24 36H12C5.37258 36 0 30.6274 0 24V12Z" fill="#E27B00" fill-opacity="0.12"/>
<circle cx="15.4999" cy="15.5007" r="1.66667" stroke="#E27B00" stroke-width="1.5"/>
<path d="M18.8334 20.5007C18.8334 21.4211 18.8334 22.1673 15.5001 22.1673C12.1667 22.1673 12.1667 21.4211 12.1667 20.5007C12.1667 19.5802 13.6591 18.834 15.5001 18.834C17.341 18.834 18.8334 19.5802 18.8334 20.5007Z" stroke="#E27B00" stroke-width="1.5"/>
<path opacity="0.5" d="M9.66675 18.0007C9.66675 14.858 9.66675 13.2866 10.6431 12.3103C11.6194 11.334 13.1907 11.334 16.3334 11.334H19.6667C22.8094 11.334 24.3808 11.334 25.3571 12.3103C26.3334 13.2866 26.3334 14.858 26.3334 18.0007C26.3334 21.1433 26.3334 22.7147 25.3571 23.691C24.3808 24.6673 22.8094 24.6673 19.6667 24.6673H16.3334C13.1907 24.6673 11.6194 24.6673 10.6431 23.691C9.66675 22.7147 9.66675 21.1433 9.66675 18.0007Z" stroke="#E27B00" stroke-width="1.5"/>
<path d="M23.8333 18H20.4999" stroke="#E27B00" stroke-width="1.5" stroke-linecap="round"/>
<path d="M23.8333 15.5H19.6666" stroke="#E27B00" stroke-width="1.5" stroke-linecap="round"/>
<path opacity="0.9" d="M23.8333 20.5H21.3333" stroke="#E27B00" stroke-width="1.5" stroke-linecap="round"/>
</svg>
