<svg width="36" height="36" viewBox="0 0 36 36" fill="none" xmlns="http://www.w3.org/2000/svg">
<path d="M0 12C0 5.37258 5.37258 0 12 0H24C30.6274 0 36 5.37258 36 12V24C36 30.6274 30.6274 36 24 36H12C5.37258 36 0 30.6274 0 24V12Z" fill="#E27B00" fill-opacity="0.12"/>
<g clip-path="url(#clip0_7048_33217)">
<path opacity="0.5" d="M13.0371 13.9081L13.1267 13.1635L13.0371 13.9081ZM15.4876 14.203L15.398 14.9476L15.4876 14.203ZM16.8529 17.1167L17.4901 17.5123L16.8529 17.1167ZM14.7038 17.5704L14.7934 16.8258C14.3878 16.777 14.0178 17.0617 13.961 17.4662L14.7038 17.5704ZM16.1037 17.651L15.9219 16.9234L15.9219 16.9234L16.1037 17.651ZM16.557 14.4195L16.9095 13.7575L16.9095 13.7575L16.557 14.4195ZM17.1339 15.1134L16.4139 15.3231L16.4139 15.3231L17.1339 15.1134ZM11.1943 14.3987L10.5571 14.0031L10.5571 14.0031L11.1943 14.3987ZM11.9435 13.8644L11.7617 13.1367L11.7617 13.1367L11.9435 13.8644ZM10.9133 16.402L10.1932 16.6118L10.1932 16.6118L10.9133 16.402ZM12.8659 17.3493L13.6086 17.4535C13.6366 17.2539 13.5832 17.0516 13.4603 16.8919C13.3374 16.7322 13.1555 16.6287 12.9555 16.6046L12.8659 17.3493ZM11.4902 17.0959L11.8428 16.434L11.8428 16.434L11.4902 17.0959ZM13.7964 26.2598L13.7068 27.0045L13.7964 26.2598ZM11.3459 25.965L11.4355 25.2204L11.3459 25.965ZM15.873 24.7788L16.6157 24.883L15.873 24.7788ZM15.6392 25.7692L15.0021 25.3736L15.0021 25.3736L15.6392 25.7692ZM14.89 26.3036L15.0718 27.0312H15.0718L14.89 26.3036ZM13.9676 22.8187L13.2249 22.7145C13.1969 22.914 13.2503 23.1164 13.3732 23.2761C13.4961 23.4357 13.678 23.5393 13.878 23.5633L13.9676 22.8187ZM15.3433 23.0721L15.6959 22.4101L15.6959 22.4101L15.3433 23.0721ZM15.9202 23.766L15.2002 23.9757V23.9757L15.9202 23.766ZM9.7468 24.0417L10.4895 24.1459L9.7468 24.0417ZM9.98056 23.0513L9.3434 22.6557H9.3434L9.98056 23.0513ZM12.1297 22.5976L12.0401 23.3422C12.4457 23.391 12.8157 23.1063 12.8725 22.7017L12.1297 22.5976ZM10.7298 22.517L10.548 21.7893H10.548L10.7298 22.517ZM9.69957 25.0546L8.97949 25.2643L9.69957 25.0546ZM10.2765 25.7485L9.92395 26.4105H9.92395L10.2765 25.7485ZM13.0371 13.9081L12.9475 14.6528L15.398 14.9476L15.4876 14.203L15.5772 13.4583L13.1267 13.1635L13.0371 13.9081ZM17.0867 16.1262L16.344 16.0221C16.3054 16.2973 16.2815 16.4638 16.2548 16.5875C16.2299 16.7032 16.2132 16.7252 16.2158 16.721L16.8529 17.1167L17.4901 17.5123C17.6152 17.3108 17.6783 17.102 17.7211 16.904C17.7621 16.714 17.7939 16.4839 17.8294 16.2304L17.0867 16.1262ZM14.7038 17.5704L14.6142 18.315C14.8951 18.3488 15.2033 18.3861 15.4718 18.4065C15.7027 18.4241 16.0306 18.4423 16.2855 18.3786L16.1037 17.651L15.9219 16.9234C15.9504 16.9163 15.9401 16.9226 15.8606 16.9231C15.7915 16.9235 15.6999 16.9196 15.5858 16.9109C15.3565 16.8934 15.0833 16.8607 14.7934 16.8258L14.7038 17.5704ZM16.8529 17.1167L16.2158 16.721C16.1612 16.809 16.0602 16.8888 15.9219 16.9234L16.1037 17.651L16.2855 18.3786C16.7799 18.2551 17.218 17.9505 17.4901 17.5123L16.8529 17.1167ZM15.4876 14.203L15.398 14.9476C15.6929 14.9831 15.8794 15.0059 16.0199 15.0319C16.1551 15.0569 16.1947 15.0763 16.2044 15.0814L16.557 14.4195L16.9095 13.7575C16.7062 13.6492 16.4966 13.5946 16.293 13.557C16.0948 13.5203 15.8531 13.4915 15.5772 13.4583L15.4876 14.203ZM17.0867 16.1262L17.8294 16.2304C17.865 15.977 17.8977 15.7469 17.9105 15.5533C17.9238 15.3522 17.9207 15.1326 17.854 14.9036L17.1339 15.1134L16.4139 15.3231C16.4112 15.3139 16.4216 15.3364 16.4138 15.4545C16.4055 15.5803 16.3826 15.7467 16.344 16.0221L17.0867 16.1262ZM16.557 14.4195L16.2044 15.0814C16.3209 15.1435 16.3884 15.2357 16.4139 15.3231L17.1339 15.1134L17.854 14.9036C17.7088 14.405 17.3612 13.998 16.9095 13.7575L16.557 14.4195ZM10.9605 15.3891L11.7032 15.4933C11.7418 15.2181 11.7657 15.0516 11.7924 14.9279C11.8173 14.8122 11.834 14.7902 11.8314 14.7944L11.1943 14.3987L10.5571 14.0031C10.432 14.2046 10.3689 14.4134 10.3261 14.6114C10.2851 14.8014 10.2533 15.0315 10.2178 15.285L10.9605 15.3891ZM13.0371 13.9081L13.1267 13.1635C12.8507 13.1303 12.6092 13.1009 12.4076 13.0895C12.2001 13.0777 11.9844 13.0811 11.7617 13.1367L11.9435 13.8644L12.1253 14.592C12.1398 14.5884 12.1856 14.5793 12.3228 14.5871C12.466 14.5952 12.6526 14.6173 12.9475 14.6528L13.0371 13.9081ZM11.1943 14.3987L11.8314 14.7944C11.886 14.7064 11.987 14.6266 12.1253 14.592L11.9435 13.8644L11.7617 13.1367C11.2672 13.2603 10.8292 13.5649 10.5571 14.0031L11.1943 14.3987ZM10.9605 15.3891L10.2178 15.285C10.1822 15.5384 10.1495 15.7685 10.1367 15.962C10.1234 16.1632 10.1265 16.3828 10.1932 16.6118L10.9133 16.402L11.6333 16.1923C11.636 16.2015 11.6256 16.179 11.6334 16.0608C11.6417 15.9351 11.6646 15.7687 11.7032 15.4933L10.9605 15.3891ZM12.8659 17.3493L12.9555 16.6046C12.6655 16.5698 12.3924 16.5368 12.1659 16.4994C12.0533 16.4808 11.9639 16.463 11.8975 16.4463C11.8206 16.427 11.8144 16.4188 11.8428 16.434L11.4902 17.0959L11.1376 17.7579C11.3705 17.8819 11.6951 17.942 11.9218 17.9794C12.1872 18.0232 12.4954 18.0601 12.7763 18.0939L12.8659 17.3493ZM10.9133 16.402L10.1932 16.6118C10.3384 17.1104 10.686 17.5173 11.1376 17.7579L11.4902 17.0959L11.8428 16.434C11.7263 16.3719 11.6588 16.2796 11.6333 16.1923L10.9133 16.402ZM13.7964 26.2598L13.886 25.5152L11.4355 25.2204L11.3459 25.965L11.2563 26.7096L13.7068 27.0045L13.7964 26.2598ZM15.873 24.7788L15.1303 24.6746C15.0917 24.9499 15.0678 25.1163 15.0411 25.2401C15.0162 25.3558 14.9995 25.3778 15.0021 25.3736L15.6392 25.7692L16.2764 26.1649C16.4015 25.9634 16.4646 25.7546 16.5074 25.5566C16.5484 25.3666 16.5802 25.1365 16.6157 24.883L15.873 24.7788ZM13.7964 26.2598L13.7068 27.0045C13.9828 27.0377 14.2243 27.0671 14.4259 27.0785C14.6335 27.0903 14.8491 27.0869 15.0718 27.0312L14.89 26.3036L14.7082 25.576C14.6937 25.5796 14.6479 25.5887 14.5107 25.5809C14.3675 25.5728 14.1809 25.5507 13.886 25.5152L13.7964 26.2598ZM15.6392 25.7692L15.0021 25.3736C14.9475 25.4616 14.8465 25.5414 14.7082 25.576L14.89 26.3036L15.0718 27.0312C15.5663 26.9077 16.0043 26.6031 16.2764 26.1649L15.6392 25.7692ZM13.9676 22.8187L13.878 23.5633C14.168 23.5982 14.4411 23.6312 14.6676 23.6686C14.7802 23.6872 14.8696 23.705 14.936 23.7216C15.0129 23.741 15.0191 23.7491 14.9907 23.734L15.3433 23.0721L15.6959 22.4101C15.463 22.2861 15.1384 22.226 14.9117 22.1886C14.6463 22.1448 14.3381 22.1079 14.0572 22.0741L13.9676 22.8187ZM15.873 24.7788L16.6157 24.883C16.6513 24.6296 16.684 24.3995 16.6968 24.2059C16.7101 24.0047 16.707 23.7852 16.6403 23.5562L15.9202 23.766L15.2002 23.9757C15.1975 23.9665 15.2079 23.989 15.2001 24.1071C15.1918 24.2329 15.1689 24.3993 15.1303 24.6746L15.873 24.7788ZM15.3433 23.0721L14.9907 23.734C15.1072 23.7961 15.1747 23.8883 15.2002 23.9757L15.9202 23.766L16.6403 23.5562C16.4951 23.0576 16.1475 22.6506 15.6959 22.4101L15.3433 23.0721ZM9.7468 24.0417L10.4895 24.1459C10.5281 23.8707 10.552 23.7042 10.5787 23.5805C10.6036 23.4648 10.6203 23.4428 10.6177 23.4469L9.98056 23.0513L9.3434 22.6557C9.21831 22.8571 9.15517 23.066 9.11243 23.264C9.07143 23.454 9.03962 23.6841 9.00407 23.9375L9.7468 24.0417ZM12.1297 22.5976L12.2193 21.8529C11.9384 21.8191 11.6302 21.7819 11.3617 21.7614C11.1308 21.7438 10.8029 21.7256 10.548 21.7893L10.7298 22.517L10.9116 23.2446C10.8831 23.2517 10.8934 23.2454 10.9729 23.2449C11.042 23.2445 11.1336 23.2484 11.2477 23.2571C11.477 23.2746 11.7501 23.3073 12.0401 23.3422L12.1297 22.5976ZM9.98056 23.0513L10.6177 23.4469C10.6723 23.359 10.7733 23.2792 10.9116 23.2446L10.7298 22.517L10.548 21.7893C10.0536 21.9129 9.6155 22.2175 9.3434 22.6557L9.98056 23.0513ZM9.7468 24.0417L9.00407 23.9375C8.96853 24.1909 8.93577 24.4211 8.92299 24.6146C8.90971 24.8158 8.9128 25.0354 8.97949 25.2643L9.69957 25.0546L10.4196 24.8448C10.4223 24.854 10.4119 24.8316 10.4197 24.7134C10.428 24.5877 10.4509 24.4213 10.4895 24.1459L9.7468 24.0417ZM11.3459 25.965L11.4355 25.2204C11.1406 25.1849 10.9541 25.1621 10.8136 25.1361C10.6784 25.1111 10.6388 25.0917 10.6291 25.0865L10.2765 25.7485L9.92395 26.4105C10.1273 26.5188 10.3369 26.5733 10.5405 26.611C10.7387 26.6477 10.9804 26.6764 11.2563 26.7096L11.3459 25.965ZM9.69957 25.0546L8.97949 25.2643C9.12474 25.763 9.47231 26.1699 9.92395 26.4105L10.2765 25.7485L10.6291 25.0865C10.5126 25.0245 10.4451 24.9322 10.4196 24.8448L9.69957 25.0546ZM12.1297 22.5976L12.8725 22.7017L13.6086 17.4535L12.8659 17.3493L12.1232 17.2451L11.387 22.4934L12.1297 22.5976ZM14.7038 17.5704L13.961 17.4662L13.2249 22.7145L13.9676 22.8187L14.7103 22.9229L15.4465 17.6746L14.7038 17.5704Z" fill="#E27B00"/>
<path d="M22.6451 21.9849L22.4578 21.2586L22.6451 21.9849ZM24.9046 21.4021L25.0919 22.1283H25.0919L24.9046 21.4021ZM25.792 18.3959L26.3784 17.9284V17.9284L25.792 18.3959ZM23.714 18.2124L22.9915 18.4135C23.1011 18.8072 23.5056 19.0407 23.9013 18.9386L23.714 18.2124ZM25.0167 17.9651L25.111 17.221L25.111 17.221L25.0167 17.9651ZM25.8788 21.0621L26.3244 21.6654L25.8788 21.0621ZM26.3264 20.3158L27.0695 20.4174V20.4174L26.3264 20.3158ZM20.8496 21.7285L20.2631 22.1959L20.2631 22.1959L20.8496 21.7285ZM21.6248 22.1593L21.5305 22.9034L21.6248 22.1593ZM20.3152 19.8086L19.5721 19.707L19.5721 19.707L20.3152 19.8086ZM22.0194 18.6495L22.2067 19.3757C22.4017 19.3254 22.5683 19.1988 22.669 19.0244C22.7696 18.8499 22.7959 18.6424 22.7419 18.4483L22.0194 18.6495ZM20.7628 19.0623L20.3172 18.459L20.3172 18.459L20.7628 19.0623ZM21.6882 9.84715L21.8756 10.5734L21.6882 9.84715ZM19.4287 10.43L19.2414 9.70372L19.2414 9.70372L19.4287 10.43ZM23.8369 11.0413L23.1144 11.2425L23.8369 11.0413ZM23.4837 10.1036L22.8973 10.5711L23.4837 10.1036ZM22.7085 9.67272L22.8028 8.92867L22.8028 8.92867L22.7085 9.67272ZM22.314 13.1826L22.1266 12.4563C21.9316 12.5066 21.765 12.6332 21.6644 12.8077C21.5637 12.9821 21.5374 13.1897 21.5914 13.3837L22.314 13.1826ZM23.5706 12.7697L24.0162 13.373L24.0162 13.373L23.5706 12.7697ZM24.0182 12.0235L23.2751 11.9218V11.9218L24.0182 12.0235ZM18.1882 12.4983L17.4656 12.6995L18.1882 12.4983ZM18.5414 13.4361L19.1278 12.9686H19.1278L18.5414 13.4361ZM20.6193 13.6197L21.3418 13.4185C21.2323 13.0249 20.8277 12.7914 20.432 12.8934L20.6193 13.6197ZM19.3166 13.867L19.4109 13.1229H19.4109L19.3166 13.867ZM18.007 11.5162L18.75 11.6178L18.007 11.5162ZM18.4546 10.7699L18.0089 10.1667L18.0089 10.1667L18.4546 10.7699ZM22.6451 21.9849L22.8324 22.7111L25.0919 22.1283L24.9046 21.4021L24.7173 20.6758L22.4578 21.2586L22.6451 21.9849ZM26.1452 19.3337L26.8677 19.1326C26.8 18.8894 26.7393 18.6696 26.6754 18.4901C26.609 18.3034 26.5223 18.1089 26.3784 17.9284L25.792 18.3959L25.2055 18.8634C25.2055 18.8635 25.2057 18.8637 25.2061 18.8642C25.2065 18.8648 25.2071 18.8658 25.2081 18.8673C25.21 18.8703 25.2134 18.876 25.2182 18.8854C25.2282 18.9051 25.2426 18.9378 25.2622 18.9928C25.3042 19.111 25.3493 19.2713 25.4226 19.5348L26.1452 19.3337ZM23.714 18.2124L23.9013 18.9386C24.1692 18.8695 24.4194 18.8051 24.6304 18.7608C24.7352 18.7388 24.8185 18.7244 24.8807 18.7168C24.9534 18.7079 24.9576 18.7136 24.9224 18.7091L25.0167 17.9651L25.111 17.221C24.8511 17.1881 24.5352 17.2481 24.3222 17.2928C24.0711 17.3456 23.7853 17.4194 23.5267 17.4861L23.714 18.2124ZM25.792 18.3959L26.3784 17.9284C26.0647 17.5349 25.6073 17.2839 25.111 17.221L25.0167 17.9651L24.9224 18.7091C25.0412 18.7242 25.1416 18.7832 25.2055 18.8634L25.792 18.3959ZM24.9046 21.4021L25.0919 22.1283C25.3455 22.0629 25.571 22.0051 25.7547 21.9446C25.9441 21.8822 26.1408 21.801 26.3244 21.6654L25.8788 21.0621L25.4332 20.4588C25.4322 20.4595 25.405 20.4805 25.2851 20.52C25.1594 20.5614 24.9901 20.6055 24.7173 20.6758L24.9046 21.4021ZM26.1452 19.3337L25.4226 19.5348C25.496 19.7984 25.5402 19.9588 25.5651 20.0812C25.5887 20.1969 25.5822 20.222 25.5833 20.2142L26.3264 20.3158L27.0695 20.4174C27.1009 20.1876 27.0743 19.975 27.0349 19.7818C26.997 19.5954 26.9354 19.3757 26.8677 19.1326L26.1452 19.3337ZM25.8788 21.0621L26.3244 21.6654C26.7289 21.3666 27.0008 20.9193 27.0695 20.4174L26.3264 20.3158L25.5833 20.2142C25.571 20.3044 25.5209 20.394 25.4332 20.4588L25.8788 21.0621ZM20.4964 20.7907L19.7739 20.9918C19.8415 21.235 19.9023 21.4548 19.9661 21.6343C20.0325 21.821 20.1193 22.0155 20.2631 22.1959L20.8496 21.7285L21.4361 21.261C21.436 21.2609 21.4358 21.2607 21.4355 21.2602C21.4351 21.2596 21.4344 21.2586 21.4334 21.2571C21.4315 21.2541 21.4281 21.2484 21.4234 21.239C21.4134 21.2193 21.3989 21.1866 21.3794 21.1316C21.3373 21.0133 21.2923 20.8531 21.2189 20.5896L20.4964 20.7907ZM22.6451 21.9849L22.4578 21.2586C22.185 21.329 22.0154 21.3724 21.8849 21.397C21.7608 21.4204 21.7243 21.4159 21.7191 21.4153L21.6248 22.1593L21.5305 22.9034C21.7561 22.9319 21.9664 22.9081 22.1632 22.871C22.3536 22.835 22.5788 22.7765 22.8324 22.7111L22.6451 21.9849ZM20.8496 21.7285L20.2631 22.1959C20.5769 22.5895 21.0342 22.8405 21.5305 22.9034L21.6248 22.1593L21.7191 21.4153C21.6004 21.4002 21.5 21.3412 21.4361 21.261L20.8496 21.7285ZM20.4964 20.7907L21.2189 20.5896C21.1455 20.326 21.1014 20.1656 21.0764 20.0431C21.0528 19.9275 21.0593 19.9024 21.0583 19.9102L20.3152 19.8086L19.5721 19.707C19.5407 19.9368 19.5672 20.1494 19.6066 20.3426C19.6446 20.529 19.7062 20.7487 19.7739 20.9918L20.4964 20.7907ZM22.0194 18.6495L21.8321 17.9232C21.5735 17.9899 21.2876 18.0635 21.0427 18.1387C20.9196 18.1765 20.7951 18.2183 20.6819 18.264C20.579 18.3056 20.4403 18.3681 20.3172 18.459L20.7628 19.0623L21.2084 19.6656C21.1775 19.6884 21.1762 19.6821 21.244 19.6547C21.3015 19.6315 21.3809 19.604 21.4831 19.5726C21.6887 19.5095 21.9389 19.4448 22.2067 19.3757L22.0194 18.6495ZM20.3152 19.8086L21.0583 19.9102C21.0706 19.82 21.1207 19.7304 21.2084 19.6656L20.7628 19.0623L20.3172 18.459C19.9127 18.7578 19.6407 19.2051 19.5721 19.707L20.3152 19.8086ZM21.6882 9.84715L21.5009 9.12092L19.2414 9.70372L19.4287 10.43L19.616 11.1562L21.8756 10.5734L21.6882 9.84715ZM23.8369 11.0413L24.5595 10.8402C24.4918 10.597 24.4311 10.3772 24.3672 10.1977C24.3008 10.0111 24.2141 9.81654 24.0702 9.63608L23.4837 10.1036L22.8973 10.5711C22.8973 10.5711 22.8975 10.5713 22.8979 10.5719C22.8983 10.5724 22.8989 10.5734 22.8999 10.5749C22.9018 10.5779 22.9052 10.5836 22.9099 10.593C22.9199 10.6127 22.9344 10.6455 22.9539 10.7004C22.996 10.8187 23.0411 10.9789 23.1144 11.2425L23.8369 11.0413ZM21.6882 9.84715L21.8756 10.5734C22.1483 10.503 22.3179 10.4597 22.4484 10.435C22.5725 10.4116 22.6091 10.4161 22.6142 10.4168L22.7085 9.67272L22.8028 8.92867C22.5773 8.90009 22.3669 8.92392 22.1701 8.96108C21.9798 8.99702 21.7545 9.0555 21.5009 9.12092L21.6882 9.84715ZM23.4837 10.1036L24.0702 9.63608C23.7565 9.24249 23.2991 8.99157 22.8028 8.92867L22.7085 9.67272L22.6142 10.4168C22.733 10.4318 22.8333 10.4909 22.8973 10.5711L23.4837 10.1036ZM22.314 13.1826L22.5013 13.9088C22.7598 13.8421 23.0457 13.7685 23.2907 13.6933C23.4137 13.6555 23.5382 13.6138 23.6514 13.568C23.7543 13.5264 23.893 13.4639 24.0162 13.373L23.5706 12.7697L23.125 12.1664C23.1558 12.1437 23.1571 12.1499 23.0893 12.1773C23.0319 12.2005 22.9525 12.228 22.8502 12.2594C22.6446 12.3226 22.3945 12.3873 22.1266 12.4563L22.314 13.1826ZM23.8369 11.0413L23.1144 11.2425C23.1878 11.5061 23.232 11.6664 23.2569 11.7889C23.2805 11.9045 23.274 11.9296 23.2751 11.9218L24.0182 12.0235L24.7612 12.1251C24.7927 11.8953 24.7661 11.6826 24.7267 11.4894C24.6888 11.303 24.6271 11.0833 24.5595 10.8402L23.8369 11.0413ZM23.5706 12.7697L24.0162 13.373C24.4207 13.0742 24.6926 12.627 24.7612 12.1251L24.0182 12.0235L23.2751 11.9218C23.2627 12.012 23.2127 12.1017 23.125 12.1664L23.5706 12.7697ZM18.1882 12.4983L17.4656 12.6995C17.5333 12.9426 17.5941 13.1624 17.6579 13.342C17.7243 13.5286 17.8111 13.7231 17.9549 13.9036L18.5414 13.4361L19.1278 12.9686C19.1278 12.9686 19.1276 12.9683 19.1272 12.9678C19.1269 12.9673 19.1262 12.9663 19.1252 12.9647C19.1233 12.9617 19.1199 12.956 19.1152 12.9466C19.1052 12.927 19.0907 12.8942 19.0712 12.8392C19.0291 12.721 18.9841 12.5608 18.9107 12.2972L18.1882 12.4983ZM20.6193 13.6197L20.432 12.8934C20.1642 12.9625 19.9139 13.0269 19.703 13.0712C19.5981 13.0932 19.5148 13.1077 19.4526 13.1153C19.3799 13.1241 19.3757 13.1184 19.4109 13.1229L19.3166 13.867L19.2223 14.611C19.4822 14.6439 19.7981 14.5839 20.0112 14.5392C20.2623 14.4865 20.5481 14.4126 20.8066 14.3459L20.6193 13.6197ZM18.5414 13.4361L17.9549 13.9036C18.2686 14.2972 18.726 14.5481 19.2223 14.611L19.3166 13.867L19.4109 13.1229C19.2921 13.1079 19.1918 13.0488 19.1278 12.9686L18.5414 13.4361ZM18.1882 12.4983L18.9107 12.2972C18.8373 12.0336 18.7931 11.8733 18.7682 11.7508C18.7446 11.6351 18.7511 11.6101 18.75 11.6178L18.007 11.5162L17.2639 11.4146C17.2324 11.6444 17.259 11.857 17.2984 12.0503C17.3364 12.2367 17.398 12.4563 17.4656 12.6995L18.1882 12.4983ZM19.4287 10.43L19.2414 9.70372C18.9879 9.76912 18.7623 9.8269 18.5787 9.88744C18.3893 9.94988 18.1926 10.0311 18.0089 10.1667L18.4546 10.7699L18.9002 11.3732C18.9011 11.3725 18.9283 11.3516 19.0483 11.312C19.1739 11.2706 19.3432 11.2266 19.616 11.1562L19.4287 10.43ZM18.007 11.5162L18.75 11.6178C18.7624 11.5276 18.8125 11.438 18.9002 11.3732L18.4546 10.7699L18.0089 10.1667C17.6045 10.4655 17.3325 10.9127 17.2639 11.4146L18.007 11.5162ZM20.6193 13.6197L19.8968 13.8208L21.2969 18.8506L22.0194 18.6495L22.7419 18.4483L21.3418 13.4185L20.6193 13.6197ZM23.714 18.2124L24.4365 18.0112L23.0365 12.9814L22.314 13.1826L21.5914 13.3837L22.9915 18.4135L23.714 18.2124Z" fill="#E27B00"/>
</g>
<defs>
<clipPath id="clip0_7048_33217">
<rect width="20" height="20" fill="white" transform="translate(8 8)"/>
</clipPath>
</defs>
</svg>
