<svg width="36" height="36" viewBox="0 0 36 36" fill="none" xmlns="http://www.w3.org/2000/svg">
<path d="M0 12C0 5.37258 5.37258 0 12 0H24C30.6274 0 36 5.37258 36 12V24C36 30.6274 30.6274 36 24 36H12C5.37258 36 0 30.6274 0 24V12Z" fill="#E27B00" fill-opacity="0.12"/>
<path d="M11.3333 16.3327C11.3333 13.19 11.3333 11.6186 12.3096 10.6423C13.2859 9.66602 14.8572 9.66602 17.9999 9.66602C21.1426 9.66602 22.714 9.66602 23.6903 10.6423C24.6666 11.6186 24.6666 13.19 24.6666 16.3327V19.666C24.6666 22.8087 24.6666 24.3801 23.6903 25.3564C22.714 26.3327 21.1426 26.3327 17.9999 26.3327C14.8572 26.3327 13.2859 26.3327 12.3096 25.3564C11.3333 24.3801 11.3333 22.8087 11.3333 19.666V16.3327Z" stroke="#E27B00" stroke-width="1.5"/>
<path opacity="0.5" d="M20.5 23.834H15.5" stroke="#E27B00" stroke-width="1.5" stroke-linecap="round"/>
<path opacity="0.5" d="M21.9569 9.98047L21.8868 10.0856C21.2568 11.0307 20.9417 11.5032 20.4816 11.7892C20.3901 11.846 20.295 11.8969 20.197 11.9415C19.7038 12.1657 19.1359 12.1657 18.0001 12.1657C16.8642 12.1657 16.2963 12.1657 15.8031 11.9415C15.7051 11.8969 15.61 11.846 15.5185 11.7892C15.0584 11.5032 14.7434 11.0307 14.1133 10.0856L14.0432 9.98047" stroke="#E27B00" stroke-width="1.5" stroke-linecap="round"/>
</svg>
