<svg width="36" height="36" viewBox="0 0 36 36" fill="none" xmlns="http://www.w3.org/2000/svg">
<path d="M0 12C0 5.37258 5.37258 0 12 0H24C30.6274 0 36 5.37258 36 12V24C36 30.6274 30.6274 36 24 36H12C5.37258 36 0 30.6274 0 24V12Z" fill="#E27B00" fill-opacity="0.12"/>
<g clip-path="url(#clip0_7048_33240)">
<path d="M11.3712 23.423C10.2349 22.2866 9.66675 21.7185 9.66675 21.0125C9.66675 20.3064 10.2349 19.7383 11.3712 18.602L18.6027 11.3705C19.739 10.2342 20.3072 9.66602 21.0132 9.66602C21.7192 9.66602 22.2874 10.2342 23.4237 11.3705L24.6289 12.5757C25.7653 13.7121 26.3334 14.2802 26.3334 14.9862C26.3334 15.6922 25.7653 16.2604 24.6289 17.3967L17.3975 24.6282C16.2611 25.7645 15.693 26.3327 14.987 26.3327C14.2809 26.3327 13.7128 25.7645 12.5765 24.6282L11.3712 23.423Z" stroke="#E27B00" stroke-width="1.5"/>
<path opacity="0.5" d="M15.0537 15.0547L16.2322 16.2332" stroke="#E27B00" stroke-width="1.5" stroke-linecap="round"/>
<path opacity="0.5" d="M18.5894 11.5176L19.7679 12.6961" stroke="#E27B00" stroke-width="1.5" stroke-linecap="round"/>
<path opacity="0.5" d="M11.5181 18.5898L12.6966 19.7684" stroke="#E27B00" stroke-width="1.5" stroke-linecap="round"/>
<path opacity="0.5" d="M13.2859 16.8223L15.0537 18.59" stroke="#E27B00" stroke-width="1.5" stroke-linecap="round"/>
<path opacity="0.5" d="M16.8215 13.2852L18.5893 15.0529" stroke="#E27B00" stroke-width="1.5" stroke-linecap="round"/>
</g>
<defs>
<clipPath id="clip0_7048_33240">
<rect width="20" height="20" fill="white" transform="translate(8 8)"/>
</clipPath>
</defs>
</svg>
