<svg width="49" height="48" viewBox="0 0 49 48" fill="none" xmlns="http://www.w3.org/2000/svg">
<path d="M45.1732 16.4756L44.4388 14.7024L43.5526 13L42.5213 11.3813L41.353 9.85867L40.0564 8.44365L38.6413 7.14702L37.1187 5.97865L35.5 4.94744L33.7976 4.06123L32.0244 3.32676L30.194 2.74963L28.3203 2.33423L26.4174 2.08372L24.5 2L22.5826 2.08372L20.6797 2.33423L18.806 2.74963L16.9756 3.32676L15.2024 4.06123L13.5 4.94744L11.8813 5.97865L10.3587 7.14702L8.94365 8.44365L7.64702 9.85867L6.47865 11.3813L5.44744 13L4.56123 14.7024L3.82676 16.4756L3.24963 18.306L2.83423 20.1797L2.58372 22.0826L2.5 24L2.58372 25.9174L2.83423 27.8203L3.24963 29.694L3.82676 31.5244L4.56123 33.2976L5.44744 35L6.47865 36.6187L7.64702 38.1413L8.94365 39.5564L10.3587 40.853L11.8813 42.0213L13.5 43.0526L15.2024 43.9388L16.9756 44.6732L18.806 45.2504L20.6797 45.6658L22.5826 45.9163L24.5 46L26.4174 45.9163L28.3203 45.6658L30.194 45.2504L32.0244 44.6732L33.7976 43.9388L35.5 43.0526L37.1187 42.0213L38.6413 40.853" stroke="url(#paint0_linear_7208_33144)" stroke-width="4" stroke-linecap="round"/>
<defs>
<linearGradient id="paint0_linear_7208_33144" x1="-10" y1="-8.5" x2="51" y2="35.5" gradientUnits="userSpaceOnUse">
<stop stop-color="#FDAF20"/>
<stop offset="0.757144" stop-color="#E27B00"/>
<stop offset="1" stop-color="#7C4300" stop-opacity="0.21"/>
</linearGradient>
</defs>
</svg>
