<svg width="49" height="48" viewBox="0 0 49 48" fill="none" xmlns="http://www.w3.org/2000/svg">
<path d="M0.5 24C0.5 10.7452 11.2452 0 24.5 0C37.7548 0 48.5 10.7452 48.5 24C48.5 37.2548 37.7548 48 24.5 48C11.2452 48 0.5 37.2548 0.5 24Z" fill="#E27B00" fill-opacity="0.24"/>
<path d="M4.5 24C4.5 12.9543 13.4543 4 24.5 4C35.5457 4 44.5 12.9543 44.5 24C44.5 35.0457 35.5457 44 24.5 44C13.4543 44 4.5 35.0457 4.5 24Z" fill="#E27B00"/>
<circle opacity="0.5" cx="24.5" cy="24.0003" r="13.3333" stroke="#F2F2F3" stroke-width="1.5"/>
<path d="M22 19.833C22 18.4523 23.1193 17.333 24.5 17.333C25.8807 17.333 27 18.4523 27 19.833C27 20.7496 26.5067 21.551 25.7712 21.9862C25.1374 22.3611 24.5 22.93 24.5 23.6663V25.333" stroke="#F2F2F3" stroke-width="1.5" stroke-linecap="round"/>
<ellipse cx="24.5" cy="29.3333" rx="1.33333" ry="1.33333" fill="#F2F2F3"/>
</svg>
