<svg width="36" height="36" viewBox="0 0 36 36" fill="none" xmlns="http://www.w3.org/2000/svg">
<path d="M0 18C0 8.05888 8.05888 0 18 0C27.9411 0 36 8.05888 36 18C36 27.9411 27.9411 36 18 36C8.05888 36 0 27.9411 0 18Z" fill="#FF4354" fill-opacity="0.12"/>
<path d="M13.1 24.3C12.7134 24.6866 12.0866 24.6866 11.7 24.3C11.3134 23.9134 11.3134 23.2866 11.7 22.9L16.6 18L11.7 13.1C11.3134 12.7134 11.3134 12.0866 11.7 11.7C12.0866 11.3134 12.7134 11.3134 13.1 11.7L18 16.6L22.9 11.7C23.2866 11.3134 23.9134 11.3134 24.3 11.7C24.6866 12.0866 24.6866 12.7134 24.3 13.1L19.4 18L24.3 22.9C24.6866 23.2866 24.6866 23.9134 24.3 24.3C23.9134 24.6866 23.2866 24.6866 22.9 24.3L18 19.4L13.1 24.3Z" fill="#FF4354"/>
</svg>
