<svg width="25" height="24" viewBox="0 0 25 24" fill="none" xmlns="http://www.w3.org/2000/svg">
<path d="M10 19.75C10.4142 19.75 10.75 19.4142 10.75 19C10.75 18.5858 10.4142 18.25 10 18.25V19.75ZM11.5 5V5.75C11.8033 5.75 12.0768 5.56727 12.1929 5.28701C12.309 5.00676 12.2448 4.68417 12.0303 4.46967L11.5 5ZM10.0303 2.46967C9.73744 2.17678 9.26256 2.17678 8.96967 2.46967C8.67678 2.76256 8.67678 3.23744 8.96967 3.53033L10.0303 2.46967ZM10 19V18.25H9.50028V19V19.75H10V19ZM9.5 5V5.75H11.5V5V4.25H9.5V5ZM11.5 5L12.0303 4.46967L10.0303 2.46967L9.5 3L8.96967 3.53033L10.9697 5.53033L11.5 5ZM2.5 12H1.75C1.75 16.2802 5.22011 19.75 9.50028 19.75V19V18.25C6.04846 18.25 3.25 15.4517 3.25 12H2.5ZM2.5 12H3.25C3.25 8.54822 6.04822 5.75 9.5 5.75V5V4.25C5.21979 4.25 1.75 7.71979 1.75 12H2.5Z" fill="#F2F2F3"/>
<path opacity="0.5" d="M13.5 19V18.25C13.1967 18.25 12.9232 18.4327 12.8071 18.713C12.691 18.9932 12.7552 19.3158 12.9697 19.5303L13.5 19ZM14.9697 21.5303C15.2626 21.8232 15.7374 21.8232 16.0303 21.5303C16.3232 21.2374 16.3232 20.7626 16.0303 20.4697L14.9697 21.5303ZM15 4.25C14.5858 4.25 14.25 4.58579 14.25 5C14.25 5.41421 14.5858 5.75 15 5.75V4.25ZM15.5 19V18.25H13.5V19V19.75H15.5V19ZM13.5 19L12.9697 19.5303L14.9697 21.5303L15.5 21L16.0303 20.4697L14.0303 18.4697L13.5 19ZM15 5V5.75H15.5V5V4.25H15V5ZM22.5 12H21.75C21.75 15.4518 18.9518 18.25 15.5 18.25V19V19.75C19.7802 19.75 23.25 16.2802 23.25 12H22.5ZM22.5 12H23.25C23.25 7.71979 19.7802 4.25 15.5 4.25V5V5.75C18.9518 5.75 21.75 8.54822 21.75 12H22.5Z" fill="#F2F2F3"/>
</svg>
