<svg width="33" height="33" viewBox="0 0 33 33" fill="none" xmlns="http://www.w3.org/2000/svg">
<path d="M5.89385 25.1771C4.07574 23.359 3.16669 22.45 3.16669 21.3203C3.16669 20.1907 4.07574 19.2817 5.89385 17.4635L17.4642 5.89318C19.2823 4.07507 20.1914 3.16602 21.321 3.16602C22.4506 3.16602 23.3597 4.07507 25.1778 5.89318L27.1062 7.82157C28.9243 9.63968 29.8334 10.5487 29.8334 11.6784C29.8334 12.808 28.9243 13.717 27.1062 15.5352L15.5358 27.1055C13.7177 28.9236 12.8087 29.8327 11.679 29.8327C10.5494 29.8327 9.64035 28.9236 7.82224 27.1055L5.89385 25.1771Z" stroke="url(#paint0_linear_5025_31455)" stroke-width="1.5"/>
<path opacity="0.5" d="M11.7859 11.7852L13.6716 13.6708" stroke="url(#paint1_linear_5025_31455)" stroke-width="1.5" stroke-linecap="round"/>
<path opacity="0.5" d="M17.4428 6.12891L19.3284 8.01452" stroke="url(#paint2_linear_5025_31455)" stroke-width="1.5" stroke-linecap="round"/>
<path opacity="0.5" d="M6.12909 17.4434L8.01471 19.329" stroke="url(#paint3_linear_5025_31455)" stroke-width="1.5" stroke-linecap="round"/>
<path opacity="0.5" d="M8.95752 14.6152L11.7859 17.4437" stroke="url(#paint4_linear_5025_31455)" stroke-width="1.5" stroke-linecap="round"/>
<path opacity="0.5" d="M14.6144 8.95703L17.4428 11.7855" stroke="url(#paint5_linear_5025_31455)" stroke-width="1.5" stroke-linecap="round"/>
<defs>
<linearGradient id="paint0_linear_5025_31455" x1="7.73812" y1="5.92792" x2="22.5953" y2="26.0232" gradientUnits="userSpaceOnUse">
<stop stop-color="#FDAF20"/>
<stop offset="1" stop-color="#794201"/>
</linearGradient>
<linearGradient id="paint1_linear_5025_31455" x1="12.1025" y1="11.8592" x2="13.4387" y2="11.4223" gradientUnits="userSpaceOnUse">
<stop stop-color="#FDAF20"/>
<stop offset="1" stop-color="#794201"/>
</linearGradient>
<linearGradient id="paint2_linear_5025_31455" x1="17.7593" y1="6.20298" x2="19.0956" y2="5.76608" gradientUnits="userSpaceOnUse">
<stop stop-color="#FDAF20"/>
<stop offset="1" stop-color="#794201"/>
</linearGradient>
<linearGradient id="paint3_linear_5025_31455" x1="6.4456" y1="17.5174" x2="7.78189" y2="17.0805" gradientUnits="userSpaceOnUse">
<stop stop-color="#FDAF20"/>
<stop offset="1" stop-color="#794201"/>
</linearGradient>
<linearGradient id="paint4_linear_5025_31455" x1="9.37168" y1="14.787" x2="10.7102" y2="14.1249" gradientUnits="userSpaceOnUse">
<stop stop-color="#FDAF20"/>
<stop offset="1" stop-color="#794201"/>
</linearGradient>
<linearGradient id="paint5_linear_5025_31455" x1="15.0285" y1="9.12876" x2="16.3671" y2="8.4667" gradientUnits="userSpaceOnUse">
<stop stop-color="#FDAF20"/>
<stop offset="1" stop-color="#794201"/>
</linearGradient>
</defs>
</svg>
