<svg width="17" height="16" viewBox="0 0 17 16" fill="none" xmlns="http://www.w3.org/2000/svg">
<circle cx="12.8333" cy="3.00004" r="1.66667" stroke="#F2F2F3" stroke-width="1.5"/>
<path d="M10.1 14.6666V14.1299C10.1 14.0781 10.1 14.0521 10.0997 14.0275C10.0847 12.6013 9.4182 11.2603 8.29048 10.387C8.27098 10.3719 8.25032 10.3563 8.20899 10.325C8.18233 10.3048 8.16898 10.2946 8.15847 10.2863C7.52062 9.78262 7.47798 8.83031 8.06826 8.2716C8.07799 8.2624 8.09044 8.25108 8.11513 8.22863L8.8085 7.59829C9.89318 6.61222 9.56301 4.82971 8.19712 4.29755C7.70816 4.10704 7.16347 4.11902 6.68336 4.33083L6.33556 4.48427C5.97595 4.64293 5.79614 4.72225 5.62049 4.80944C5.32845 4.9544 5.04481 5.11573 4.77094 5.29265C4.60623 5.39906 4.44614 5.51306 4.12598 5.74106L3.16666 6.42421" stroke="#F2F2F3" stroke-width="1.5" stroke-linecap="round"/>
<path opacity="0.5" d="M6.5 11.3334L6.3271 11.5409C5.38059 12.6767 3.97849 13.3334 2.5 13.3334" stroke="#F2F2F3" stroke-width="1.5" stroke-linecap="round"/>
<path opacity="0.5" d="M11.1667 8C12.0421 8.21885 12.9579 8.21885 13.8333 8" stroke="#F2F2F3" stroke-width="1.5" stroke-linecap="round"/>
</svg>
