<svg width="41" height="41" viewBox="0 0 41 41" fill="none" xmlns="http://www.w3.org/2000/svg">
<path d="M0.5 16.5C0.5 7.66344 7.66344 0.5 16.5 0.5H24.5C33.3366 0.5 40.5 7.66344 40.5 16.5V24.5C40.5 33.3366 33.3366 40.5 24.5 40.5H16.5C7.66344 40.5 0.5 33.3366 0.5 24.5V16.5Z" fill="#E27B00"/>
<path d="M12.4244 27.1073L12.9548 26.577L12.4244 27.1073ZM13.8927 28.5756L13.3624 29.1059L13.8927 28.5756ZM17.5634 28.5756L17.0331 29.1059L17.5634 28.5756ZM18.2976 29.3097L18.8279 28.7794L18.2976 29.3097ZM23.1055 27.8774L22.3811 27.6833L22.3811 27.6833L23.1055 27.8774ZM21.9683 25.639L21.438 26.1693H21.438L21.9683 25.639ZM23.1055 27.0713L22.3811 27.2654V27.2654L23.1055 27.0713ZM20.536 30.4469L20.3419 29.7225L20.3419 29.7225L20.536 30.4469ZM19.7299 30.4469L19.924 29.7225L19.7299 30.4469ZM10.5531 20.464L11.2775 20.6581L11.2775 20.6581L10.5531 20.464ZM11.6903 22.7024L11.16 23.2328L11.6903 22.7024ZM10.5531 21.2701L9.82862 21.4643L10.5531 21.2701ZM13.1226 17.8945L13.3167 18.6189L13.1226 17.8945ZM15.361 19.0317L14.8307 19.562V19.562L15.361 19.0317ZM13.9287 17.8945L14.1228 17.1701H14.1228L13.9287 17.8945ZM27.8774 23.1055L27.6833 22.3811H27.6833L27.8774 23.1055ZM25.639 21.9683L25.1087 22.4986L25.639 21.9683ZM27.0713 23.1055L27.2654 22.3811H27.2654L27.0713 23.1055ZM30.4469 20.536L29.7225 20.3419L29.7225 20.3419L30.4469 20.536ZM30.4469 19.7299L29.7225 19.924L29.7225 19.924L30.4469 19.7299ZM20.464 10.5531L20.2699 9.82862V9.82862L20.464 10.5531ZM22.7024 11.6903L22.1721 12.2206L22.7024 11.6903ZM21.2701 10.5531L21.076 11.2775L21.076 11.2775L21.2701 10.5531ZM17.8945 13.1226L17.1701 12.9285V12.9285L17.8945 13.1226ZM19.0317 15.361L18.5014 15.8913L19.0317 15.361ZM17.8945 13.9287L18.6189 13.7346V13.7346L17.8945 13.9287ZM15.5243 25.4757C15.8171 25.7686 15.8171 26.2435 15.5243 26.5364C15.2314 26.8293 14.7565 26.8293 14.4636 26.5364L15.5243 25.4757ZM26.5364 14.4636C26.8293 14.7565 26.8293 15.2314 26.5364 15.5243C26.2435 15.8171 25.7686 15.8171 25.4757 15.5243L26.5364 14.4636ZM20.8671 24.5378L21.3974 24.0075H21.3974L20.8671 24.5378ZM24.5378 20.8671L25.0681 20.3367L24.5378 20.8671ZM16.4622 20.1329L16.9925 19.6026V19.6026L16.4622 20.1329ZM20.1329 16.4622L20.6633 15.9319L20.1329 16.4622ZM12.4244 27.1073L12.9548 26.577L14.423 28.0452L13.8927 28.5756L13.3624 29.1059L11.8941 27.6376L12.4244 27.1073ZM28.5756 13.8927L28.0452 14.423L26.577 12.9548L27.1073 12.4244L27.6376 11.8941L29.1059 13.3624L28.5756 13.8927ZM28.5756 16.8293L28.0452 16.299C28.4063 15.9379 28.6226 15.7193 28.758 15.5419C28.8203 15.4603 28.846 15.4114 28.8567 15.3858C28.8649 15.3663 28.8638 15.3618 28.8638 15.361H29.6138H30.3638C30.3638 15.8059 30.1745 16.1583 29.9505 16.4518C29.7398 16.728 29.437 17.0285 29.1059 17.3596L28.5756 16.8293ZM28.5756 13.8927L29.1059 13.3624C29.437 13.6935 29.7398 13.994 29.9505 14.2702C30.1745 14.5637 30.3638 14.9161 30.3638 15.361H29.6138H28.8638C28.8638 15.3602 28.8649 15.3557 28.8567 15.3362C28.846 15.3106 28.8203 15.2617 28.758 15.1801C28.6226 15.0027 28.4063 14.7841 28.0452 14.423L28.5756 13.8927ZM13.8927 28.5756L14.423 28.0452C14.7841 28.4063 15.0027 28.6226 15.1801 28.758C15.2617 28.8203 15.3106 28.846 15.3362 28.8567C15.3557 28.8649 15.3602 28.8638 15.361 28.8638L15.361 29.6138L15.361 30.3638C14.9161 30.3638 14.5637 30.1745 14.2702 29.9505C13.994 29.7398 13.6935 29.437 13.3624 29.1059L13.8927 28.5756ZM16.8293 28.5756L17.3596 29.1059C17.0285 29.437 16.728 29.7398 16.4518 29.9505C16.1583 30.1745 15.8059 30.3638 15.361 30.3638L15.361 29.6138L15.361 28.8638C15.3618 28.8638 15.3663 28.8649 15.3858 28.8567C15.4114 28.846 15.4603 28.8203 15.5419 28.758C15.7193 28.6226 15.9379 28.4063 16.299 28.0452L16.8293 28.5756ZM12.4244 24.1707L12.9548 24.701C12.5937 25.0621 12.3774 25.2807 12.242 25.4581C12.1797 25.5397 12.154 25.5886 12.1433 25.6142C12.1351 25.6337 12.1362 25.6382 12.1362 25.639L11.3862 25.639L10.6362 25.639C10.6362 25.1941 10.8255 24.8417 11.0495 24.5482C11.2602 24.272 11.563 23.9715 11.8941 23.6404L12.4244 24.1707ZM12.4244 27.1073L11.8941 27.6376C11.563 27.3065 11.2602 27.006 11.0495 26.7298C10.8255 26.4363 10.6362 26.0839 10.6362 25.639L11.3862 25.639L12.1362 25.639C12.1362 25.6398 12.1351 25.6443 12.1433 25.6638C12.154 25.6894 12.1797 25.7383 12.242 25.8199C12.3774 25.9973 12.5937 26.2159 12.9548 26.577L12.4244 27.1073ZM24.1707 12.4244L23.6404 11.8941C23.9715 11.563 24.272 11.2602 24.5482 11.0495C24.8417 10.8255 25.1941 10.6362 25.639 10.6362V11.3862V12.1362C25.6382 12.1362 25.6337 12.1351 25.6142 12.1433C25.5886 12.154 25.5397 12.1797 25.4581 12.242C25.2807 12.3774 25.0621 12.5937 24.701 12.9548L24.1707 12.4244ZM27.1073 12.4244L26.577 12.9548C26.2159 12.5937 25.9973 12.3774 25.8199 12.242C25.7383 12.1797 25.6894 12.154 25.6638 12.1433C25.6443 12.1351 25.6398 12.1362 25.639 12.1362V11.3862V10.6362C26.0839 10.6362 26.4363 10.8255 26.7298 11.0495C27.006 11.2602 27.3065 11.563 27.6376 11.8941L27.1073 12.4244ZM17.5634 28.5756L18.0938 28.0452L18.8279 28.7794L18.2976 29.3097L17.7672 29.84L17.0331 29.1059L17.5634 28.5756ZM21.9683 29.3097L21.438 28.7794C21.7908 28.4266 22.0194 28.1969 22.1777 28.0071C22.3292 27.8253 22.3669 27.7363 22.3811 27.6833L23.1055 27.8774L23.8299 28.0715C23.7361 28.4216 23.5482 28.7057 23.3297 28.9677C23.1179 29.2218 22.8319 29.5067 22.4986 29.84L21.9683 29.3097ZM21.9683 25.639L22.4986 25.1087C22.8319 25.442 23.1179 25.7269 23.3297 25.981C23.5482 26.243 23.7361 26.5271 23.8299 26.8772L23.1055 27.0713L22.3811 27.2654C22.3669 27.2124 22.3292 27.1234 22.1777 26.9416C22.0194 26.7518 21.7908 26.5222 21.438 26.1693L21.9683 25.639ZM23.1055 27.8774L22.3811 27.6833C22.4177 27.5464 22.4177 27.4023 22.3811 27.2654L23.1055 27.0713L23.8299 26.8772C23.9348 27.2684 23.9348 27.6803 23.8299 28.0716L23.1055 27.8774ZM21.9683 29.3097L22.4986 29.84C22.1653 30.1734 21.8804 30.4593 21.6263 30.6712C21.3643 30.8896 21.0802 31.0776 20.7301 31.1714L20.536 30.4469L20.3419 29.7225C20.3949 29.7083 20.4839 29.6707 20.6657 29.5191C20.8555 29.3609 21.0851 29.1322 21.438 28.7794L21.9683 29.3097ZM18.2976 29.3097L18.8279 28.7794C19.1807 29.1322 19.4104 29.3609 19.6002 29.5191C19.782 29.6707 19.871 29.7083 19.924 29.7225L19.7299 30.4469L19.5357 31.1714C19.1857 31.0776 18.9016 30.8896 18.6396 30.6712C18.3855 30.4593 18.1006 30.1734 17.7672 29.84L18.2976 29.3097ZM20.536 30.4469L20.7301 31.1714C20.3389 31.2762 19.927 31.2762 19.5357 31.1714L19.7299 30.4469L19.924 29.7225C20.0609 29.7592 20.205 29.7592 20.3419 29.7225L20.536 30.4469ZM11.6903 19.0317L12.2206 19.562C11.8678 19.9149 11.6391 20.1445 11.4809 20.3343C11.3293 20.5161 11.2917 20.6051 11.2775 20.6581L10.5531 20.464L9.82862 20.2699C9.92242 19.9198 10.1104 19.6357 10.3288 19.3737C10.5407 19.1196 10.8266 18.8347 11.16 18.5014L11.6903 19.0317ZM11.6903 22.7024L11.16 23.2328C10.8266 22.8994 10.5407 22.6145 10.3288 22.3604C10.1104 22.0984 9.92242 21.8143 9.82862 21.4643L10.5531 21.2701L11.2775 21.076C11.2917 21.129 11.3293 21.218 11.4809 21.3998C11.6391 21.5896 11.8678 21.8193 12.2206 22.1721L11.6903 22.7024ZM10.5531 20.464L11.2775 20.6581C11.2408 20.795 11.2408 20.9391 11.2775 21.076L10.5531 21.2701L9.82862 21.4643C9.72379 21.073 9.72379 20.6611 9.82862 20.2699L10.5531 20.464ZM11.6903 19.0317L11.16 18.5014C11.4933 18.1681 11.7782 17.8821 12.0323 17.6703C12.2943 17.4518 12.5784 17.2639 12.9285 17.1701L13.1226 17.8945L13.3167 18.6189C13.2637 18.6331 13.1747 18.6708 12.9929 18.8223C12.8031 18.9806 12.5734 19.2092 12.2206 19.562L11.6903 19.0317ZM15.361 19.0317L14.8307 19.562C14.4778 19.2092 14.2482 18.9806 14.0584 18.8223C13.8766 18.6708 13.7876 18.6331 13.7346 18.6189L13.9287 17.8945L14.1228 17.1701C14.4729 17.2639 14.757 17.4518 15.019 17.6703C15.2731 17.8821 15.558 18.1681 15.8913 18.5014L15.361 19.0317ZM13.1226 17.8945L12.9285 17.1701C13.3197 17.0652 13.7316 17.0652 14.1228 17.1701L13.9287 17.8945L13.7346 18.6189C13.5977 18.5823 13.4536 18.5823 13.3167 18.6189L13.1226 17.8945ZM28.5756 17.5634L29.1059 17.0331L29.84 17.7672L29.3097 18.2976L28.7794 18.8279L28.0452 18.0938L28.5756 17.5634ZM29.3097 21.9683L29.84 22.4986C29.5067 22.8319 29.2218 23.1179 28.9677 23.3297C28.7057 23.5482 28.4216 23.7361 28.0715 23.8299L27.8774 23.1055L27.6833 22.3811C27.7363 22.3669 27.8253 22.3292 28.0071 22.1777C28.1969 22.0194 28.4266 21.7908 28.7794 21.438L29.3097 21.9683ZM25.639 21.9683L26.1693 21.438C26.5222 21.7908 26.7518 22.0194 26.9416 22.1777C27.1234 22.3292 27.2124 22.3669 27.2654 22.3811L27.0713 23.1055L26.8772 23.8299C26.5271 23.7361 26.243 23.5482 25.981 23.3297C25.7269 23.1179 25.442 22.8319 25.1087 22.4986L25.639 21.9683ZM27.8774 23.1055L28.0715 23.8299C27.6803 23.9348 27.2684 23.9348 26.8772 23.8299L27.0713 23.1055L27.2654 22.3811C27.4023 22.4177 27.5464 22.4177 27.6833 22.3811L27.8774 23.1055ZM29.3097 21.9683L28.7794 21.438C29.1322 21.0851 29.3609 20.8555 29.5191 20.6657C29.6707 20.4839 29.7083 20.3949 29.7225 20.3419L30.4469 20.536L31.1714 20.7301C31.0776 21.0802 30.8896 21.3643 30.6712 21.6263C30.4593 21.8804 30.1734 22.1653 29.84 22.4986L29.3097 21.9683ZM29.3097 18.2976L29.84 17.7672C30.1734 18.1006 30.4593 18.3855 30.6712 18.6396C30.8896 18.9016 31.0776 19.1857 31.1714 19.5357L30.4469 19.7299L29.7225 19.924C29.7083 19.871 29.6707 19.782 29.5191 19.6002C29.3609 19.4104 29.1322 19.1807 28.7794 18.8279L29.3097 18.2976ZM30.4469 20.536L29.7225 20.3419C29.7592 20.205 29.7592 20.0609 29.7225 19.924L30.4469 19.7299L31.1714 19.5357C31.2762 19.927 31.2762 20.3389 31.1714 20.7301L30.4469 20.536ZM19.0317 11.6903L18.5014 11.16C18.8347 10.8266 19.1196 10.5407 19.3737 10.3288C19.6357 10.1104 19.9198 9.92242 20.2699 9.82862L20.464 10.5531L20.6581 11.2775C20.6051 11.2917 20.5161 11.3293 20.3343 11.4809C20.1445 11.6391 19.9149 11.8678 19.562 12.2206L19.0317 11.6903ZM22.7024 11.6903L22.1721 12.2206C21.8193 11.8678 21.5896 11.6391 21.3998 11.4809C21.218 11.3293 21.129 11.2917 21.076 11.2775L21.2701 10.5531L21.4643 9.82862C21.8143 9.92242 22.0984 10.1104 22.3604 10.3288C22.6145 10.5407 22.8994 10.8266 23.2328 11.16L22.7024 11.6903ZM20.464 10.5531L20.2699 9.82862C20.6611 9.72379 21.073 9.72379 21.4643 9.82862L21.2701 10.5531L21.076 11.2775C20.9391 11.2408 20.795 11.2408 20.6581 11.2775L20.464 10.5531ZM19.0317 11.6903L19.562 12.2206C19.2092 12.5734 18.9806 12.8031 18.8223 12.9929C18.6708 13.1747 18.6331 13.2637 18.6189 13.3167L17.8945 13.1226L17.1701 12.9285C17.2639 12.5784 17.4518 12.2943 17.6703 12.0323C17.8821 11.7782 18.1681 11.4933 18.5014 11.16L19.0317 11.6903ZM19.0317 15.361L18.5014 15.8913C18.1681 15.558 17.8821 15.2731 17.6703 15.019C17.4518 14.757 17.2639 14.4729 17.1701 14.1228L17.8945 13.9287L18.6189 13.7346C18.6331 13.7876 18.6708 13.8766 18.8223 14.0584C18.9806 14.2482 19.2092 14.4778 19.562 14.8307L19.0317 15.361ZM17.8945 13.1226L18.6189 13.3167C18.5823 13.4536 18.5823 13.5977 18.6189 13.7346L17.8945 13.9287L17.1701 14.1228C17.0652 13.7316 17.0652 13.3197 17.1701 12.9285L17.8945 13.1226ZM11.6903 22.7024L12.2206 22.1721L15.5243 25.4757L14.9939 26.0061L14.4636 26.5364L11.16 23.2328L11.6903 22.7024ZM22.7024 11.6903L23.2328 11.16L26.5364 14.4636L26.0061 14.9939L25.4757 15.5243L22.1721 12.2206L22.7024 11.6903ZM21.9683 25.639L21.438 26.1693L20.3367 25.0681L20.8671 24.5378L21.3974 24.0075L22.4986 25.1087L21.9683 25.639ZM25.639 21.9683L25.1087 22.4986L24.0075 21.3974L24.5378 20.8671L25.0681 20.3367L26.1693 21.438L25.639 21.9683ZM20.8671 24.5378L20.3367 25.0681L15.9319 20.6633L16.4622 20.1329L16.9925 19.6026L21.3974 24.0075L20.8671 24.5378ZM16.4622 20.1329L15.9319 20.6633L14.8307 19.562L15.361 19.0317L15.8913 18.5014L16.9925 19.6026L16.4622 20.1329ZM24.5378 20.8671L24.0075 21.3974L19.6026 16.9925L20.1329 16.4622L20.6633 15.9319L25.0681 20.3367L24.5378 20.8671ZM20.1329 16.4622L19.6026 16.9925L18.5014 15.8913L19.0317 15.361L19.562 14.8307L20.6633 15.9319L20.1329 16.4622ZM28.5756 17.5634L28.0452 18.0938C27.5496 17.5981 27.5496 16.7946 28.0452 16.299L28.5756 16.8293L29.1059 17.3596C29.1961 17.2694 29.1961 17.1233 29.1059 17.0331L28.5756 17.5634ZM17.5634 28.5756L17.0331 29.1059C17.1233 29.1961 17.2694 29.1961 17.3596 29.1059L16.8293 28.5756L16.299 28.0452C16.7946 27.5496 17.5981 27.5496 18.0938 28.0452L17.5634 28.5756Z" fill="#F2F2F3"/>
<path opacity="0.5" d="M20.8671 24.5375L24.5378 20.8668M16.4623 20.1326L20.133 16.4619" stroke="#F2F2F3" stroke-width="1.5" stroke-linecap="round"/>
</svg>
