<svg width="30" height="30" viewBox="0 0 30 30" fill="none" xmlns="http://www.w3.org/2000/svg">
<path d="M0 12C0 5.37258 5.37258 0 12 0H18C24.6274 0 30 5.37258 30 12V18C30 24.6274 24.6274 30 18 30H12C5.37258 30 0 24.6274 0 18V12Z" fill="#E27B00" fill-opacity="0.12"/>
<g clip-path="url(#clip0_7039_34302)">
<path d="M12.8649 10.0563C13.8149 8.35209 14.2899 7.5 15 7.5C15.7101 7.5 16.1851 8.35209 17.1351 10.0563L17.3809 10.4972C17.6509 10.9815 17.7858 11.2236 17.9963 11.3834C18.2068 11.5431 18.4689 11.6024 18.9931 11.721L19.4703 11.829C21.3151 12.2464 22.2375 12.4551 22.4569 13.1608C22.6764 13.8665 22.0476 14.6018 20.7899 16.0724L20.4646 16.4529C20.1072 16.8708 19.9285 17.0798 19.8481 17.3383C19.7677 17.5968 19.7947 17.8756 19.8488 18.4332L19.898 18.9408C20.0881 20.9029 20.1832 21.884 19.6086 22.3202C19.0341 22.7563 18.1705 22.3587 16.4432 21.5634L15.9964 21.3576C15.5056 21.1316 15.2601 21.0186 15 21.0186C14.7399 21.0186 14.4944 21.1316 14.0036 21.3576L13.5568 21.5634C11.8295 22.3587 10.9659 22.7563 10.3914 22.3202C9.81684 21.884 9.91191 20.9029 10.102 18.9408L10.1512 18.4332C10.2053 17.8756 10.2323 17.5968 10.1519 17.3383C10.0715 17.0798 9.89282 16.8708 9.53544 16.4529L9.21007 16.0724C7.95244 14.6018 7.32362 13.8665 7.54307 13.1608C7.76251 12.4551 8.68489 12.2464 10.5297 11.829L11.0069 11.721C11.5311 11.6024 11.7932 11.5431 12.0037 11.3834C12.2142 11.2236 12.3491 10.9815 12.6191 10.4972L12.8649 10.0563Z" stroke="#E27B00" stroke-width="1.5"/>
</g>
<defs>
<clipPath id="clip0_7039_34302">
<rect width="18" height="18" fill="white" transform="translate(6 6)"/>
</clipPath>
</defs>
</svg>
