<svg width="16" height="16" viewBox="0 0 16 16" fill="none" xmlns="http://www.w3.org/2000/svg">
<g clip-path="url(#clip0_7204_33794)">
<path d="M7.05101 5.80312C7.47323 5.0457 7.68434 4.66699 7.99996 4.66699C8.31558 4.66699 8.52669 5.0457 8.9489 5.80312L9.05814 5.99907C9.17812 6.2143 9.23811 6.32192 9.33164 6.39293C9.42518 6.46393 9.54168 6.49029 9.77466 6.54301L9.98678 6.591C10.8067 6.77651 11.2166 6.86926 11.3142 7.1829C11.4117 7.49654 11.1322 7.82335 10.5733 8.47697L10.4287 8.64607C10.2698 8.8318 10.1904 8.92467 10.1547 9.03956C10.1189 9.15446 10.131 9.27836 10.155 9.52618L10.1768 9.75179C10.2613 10.6239 10.3036 11.0599 10.0482 11.2537C9.7929 11.4476 9.40907 11.2708 8.6414 10.9174L8.4428 10.8259C8.22465 10.7255 8.11558 10.6753 7.99996 10.6753C7.88434 10.6753 7.77527 10.7255 7.55712 10.8259L7.35852 10.9174C6.59085 11.2708 6.20702 11.4476 5.95168 11.2537C5.69633 11.0599 5.73859 10.6239 5.82309 9.75179L5.84495 9.52618C5.86897 9.27836 5.88097 9.15446 5.84525 9.03956C5.80952 8.92467 5.7301 8.8318 5.57127 8.64607L5.42666 8.47697C4.86771 7.82335 4.58823 7.49654 4.68577 7.1829C4.7833 6.86926 5.19324 6.77651 6.01314 6.591L6.22525 6.54301C6.45824 6.49029 6.57474 6.46393 6.66827 6.39293C6.76181 6.32192 6.8218 6.2143 6.94178 5.99907L7.05101 5.80312Z" stroke="#E27B00" stroke-width="1.5"/>
<path opacity="0.5" d="M8 1.33301V2.66634" stroke="#E27B00" stroke-width="1.5" stroke-linecap="round"/>
<path opacity="0.5" d="M8 13.333V14.6663" stroke="#E27B00" stroke-width="1.5" stroke-linecap="round"/>
<path opacity="0.5" d="M1.33337 8L2.66671 8" stroke="#E27B00" stroke-width="1.5" stroke-linecap="round"/>
<path opacity="0.5" d="M13.3334 8L14.6667 8" stroke="#E27B00" stroke-width="1.5" stroke-linecap="round"/>
<path d="M4.00012 12L4.22882 11.7713" stroke="#E27B00" stroke-width="1.5" stroke-linecap="round"/>
<path d="M11.7712 4.22852L12.0001 3.99967" stroke="#E27B00" stroke-width="1.5" stroke-linecap="round"/>
<path d="M11.9999 12L11.7712 11.7713" stroke="#E27B00" stroke-width="1.5" stroke-linecap="round"/>
<path d="M4.22888 4.22852L4.00004 3.99967" stroke="#E27B00" stroke-width="1.5" stroke-linecap="round"/>
</g>
<defs>
<clipPath id="clip0_7204_33794">
<rect width="16" height="16" fill="white"/>
</clipPath>
</defs>
</svg>
