<svg width="16" height="16" viewBox="0 0 16 16" fill="none" xmlns="http://www.w3.org/2000/svg">
<g clip-path="url(#clip0_9235_15074)">
<path d="M2.61636 12.4045L3.14669 11.8742H3.1467L2.61636 12.4045ZM3.59522 13.3834L3.06489 13.9137L3.59522 13.3834ZM6.04237 13.3834L5.51204 13.9137L5.51204 13.9137L6.04237 13.3834ZM6.53179 13.8728L7.06212 13.3425H7.06212L6.53179 13.8728ZM9.73708 12.918L9.01264 12.7239L9.01264 12.7238L9.73708 12.918ZM8.97894 11.4257L8.44861 11.956L8.44861 11.956L8.97894 11.4257ZM9.73708 12.3805L9.01264 12.5746L9.73708 12.3805ZM8.02408 14.631L7.82997 13.9065L7.82997 13.9065L8.02408 14.631ZM7.48665 14.631L7.68077 13.9065H7.68077L7.48665 14.631ZM1.36879 7.97567L2.09324 8.16979V8.16979L1.36879 7.97567ZM2.12694 9.46796L1.59661 9.99829L2.12694 9.46796ZM1.36879 8.5131L0.644346 8.70722V8.70722L1.36879 8.5131ZM3.08179 6.26267L3.27591 6.98712L3.27591 6.98712L3.08179 6.26267ZM4.57408 7.02082L4.04375 7.55115L4.04375 7.55115L4.57408 7.02082ZM3.61922 6.26267L3.81334 5.53823L3.81334 5.53823L3.61922 6.26267ZM12.9184 9.73668L12.7243 9.01223L12.7243 9.01223L12.9184 9.73668ZM11.4261 8.97853L10.8958 9.50886L11.4261 8.97853ZM12.3809 9.73668L12.5751 9.01223H12.5751L12.3809 9.73668ZM14.6314 8.02367L13.9069 7.82956L13.9069 7.82956L14.6314 8.02367ZM14.6314 7.48625L13.9069 7.68036L13.9069 7.68036L14.6314 7.48625ZM7.97608 1.36838L7.78197 0.64394V0.64394L7.97608 1.36838ZM9.46837 2.12653L8.93804 2.65686L9.46837 2.12653ZM8.51351 1.36838L8.3194 2.09283L8.3194 2.09283L8.51351 1.36838ZM6.26308 3.08139L5.53863 2.88727V2.88727L6.26308 3.08139ZM7.02122 4.57367L6.49089 5.104V5.104L7.02122 4.57367ZM6.26308 3.61882L6.98752 3.4247V3.4247L6.26308 3.61882ZM4.85969 11.1401C5.15259 11.433 5.15259 11.9078 4.85969 12.2007C4.5668 12.4936 4.09193 12.4936 3.79903 12.2007L4.85969 11.1401ZM12.2011 3.79863C12.494 4.09152 12.494 4.5664 12.2011 4.85929C11.9082 5.15218 11.4334 5.15218 11.1405 4.85929L12.2011 3.79863ZM8.2448 10.6915L8.77513 10.1612H8.77513L8.2448 10.6915ZM10.6919 8.24439L11.2223 7.71406L10.6919 8.24439ZM5.30822 7.75496L5.83855 7.22463V7.22463L5.30822 7.75496ZM7.75537 5.30782L8.2857 4.77749L7.75537 5.30782ZM2.61636 12.4045L3.1467 11.8742L4.12555 12.8531L3.59522 13.3834L3.06489 13.9137L2.08603 12.9349L2.61636 12.4045ZM13.3838 3.59482L12.8535 4.12515L11.8746 3.14629L12.4049 2.61596L12.9353 2.08563L13.9141 3.06449L13.3838 3.59482ZM13.3838 5.55253L12.8535 5.0222C13.0992 4.77649 13.229 4.64443 13.3066 4.54264C13.3711 4.45816 13.326 4.48711 13.326 4.57367L14.076 4.57367L14.826 4.57367C14.826 4.94694 14.6654 5.2346 14.4992 5.45251C14.3461 5.65312 14.1299 5.86713 13.9141 6.08286L13.3838 5.55253ZM13.3838 3.59482L13.9141 3.06449C14.1299 3.28021 14.3461 3.49423 14.4992 3.69483C14.6654 3.91275 14.826 4.2004 14.826 4.57367L14.076 4.57367L13.326 4.57367C13.326 4.66024 13.3711 4.68919 13.3066 4.60471C13.229 4.50292 13.0992 4.37086 12.8535 4.12515L13.3838 3.59482ZM3.59522 13.3834L4.12555 12.8531C4.37126 13.0988 4.50332 13.2286 4.60511 13.3062C4.6896 13.3707 4.66065 13.3255 4.57408 13.3255L4.57408 14.0755L4.57408 14.8255C4.20081 14.8255 3.91315 14.665 3.69524 14.4988C3.49464 14.3457 3.28062 14.1294 3.06489 13.9137L3.59522 13.3834ZM5.55294 13.3834L6.08327 13.9137C5.86754 14.1294 5.65352 14.3457 5.45292 14.4988C5.23501 14.665 4.94735 14.8256 4.57408 14.8255L4.57408 14.0755L4.57408 13.3255C4.48751 13.3255 4.45856 13.3707 4.54305 13.3062C4.64484 13.2286 4.7769 13.0988 5.02261 12.8531L5.55294 13.3834ZM2.61636 10.4468L3.14669 10.9771C2.90098 11.2229 2.77118 11.3549 2.69351 11.4567C2.62905 11.5412 2.67421 11.5122 2.67421 11.4257L1.92421 11.4257L1.17421 11.4257C1.17421 11.0524 1.33472 10.7647 1.50098 10.5468C1.65404 10.3462 1.87031 10.1322 2.08603 9.91649L2.61636 10.4468ZM2.61636 12.4045L2.08603 12.9349C1.87031 12.7191 1.65404 12.5051 1.50098 12.3045C1.33472 12.0866 1.17421 11.7989 1.17421 11.4257L1.92421 11.4257L2.67421 11.4257C2.67421 11.3391 2.62905 11.3102 2.69351 11.3946C2.77118 11.4964 2.90098 11.6285 3.14669 11.8742L2.61636 12.4045ZM10.4472 2.61596L9.91689 2.08563C10.1326 1.8699 10.3466 1.65363 10.5472 1.50057C10.7652 1.33431 11.0528 1.1738 11.4261 1.1738L11.4261 1.9238L11.4261 2.6738C11.5127 2.6738 11.5416 2.62865 11.4571 2.69311C11.3553 2.77077 11.2233 2.90058 10.9776 3.14629L10.4472 2.61596ZM12.4049 2.61596L11.8746 3.14629C11.6289 2.90058 11.4968 2.77077 11.395 2.69311C11.3106 2.62865 11.3395 2.6738 11.4261 2.6738L11.4261 1.9238L11.4261 1.1738C11.7994 1.1738 12.087 1.33431 12.3049 1.50057C12.5055 1.65363 12.7195 1.8699 12.9353 2.08563L12.4049 2.61596ZM6.04237 13.3834L6.5727 12.8531L7.06212 13.3425L6.53179 13.8728L6.00146 14.4031L5.51204 13.9137L6.04237 13.3834ZM8.97894 13.8728L8.44861 13.3425C8.68708 13.104 8.82997 12.9601 8.92651 12.8443C9.01642 12.7365 9.01644 12.7097 9.01264 12.7239L9.73708 12.918L10.4615 13.1121C10.3857 13.395 10.2354 13.6169 10.0786 13.8049C9.9284 13.985 9.72822 14.1842 9.50927 14.4031L8.97894 13.8728ZM8.97894 11.4257L9.50927 10.8953C9.72822 11.1143 9.9284 11.3135 10.0786 11.4936C10.2354 11.6816 10.3857 11.9035 10.4615 12.1864L9.73708 12.3805L9.01264 12.5746C9.01644 12.5888 9.01642 12.562 8.92651 12.4542C8.82997 12.3384 8.68708 12.1945 8.44861 11.956L8.97894 11.4257ZM9.73708 12.918L9.01264 12.7238C9.02573 12.675 9.02573 12.6235 9.01264 12.5746L9.73708 12.3805L10.4615 12.1864C10.5428 12.4896 10.5428 12.8089 10.4615 13.1121L9.73708 12.918ZM8.97894 13.8728L9.50927 14.4031C9.29032 14.6221 9.09115 14.8223 8.91104 14.9725C8.72298 15.1293 8.50109 15.2796 8.2182 15.3554L8.02408 14.631L7.82997 13.9065C7.81579 13.9103 7.84262 13.9103 7.95045 13.8204C8.06623 13.7239 8.21013 13.581 8.44861 13.3425L8.97894 13.8728ZM6.53179 13.8728L7.06212 13.3425C7.3006 13.581 7.44451 13.7239 7.56029 13.8204C7.66812 13.9103 7.69495 13.9103 7.68077 13.9065L7.48665 14.631L7.29254 15.3554C7.00964 15.2796 6.78776 15.1293 6.59969 14.9725C6.41958 14.8223 6.22042 14.6221 6.00146 14.4031L6.53179 13.8728ZM8.02408 14.631L8.2182 15.3554C7.91499 15.4367 7.59574 15.4367 7.29254 15.3554L7.48665 14.631L7.68077 13.9065C7.72964 13.9196 7.7811 13.9196 7.82997 13.9065L8.02408 14.631ZM2.12694 7.02082L2.65726 7.55115C2.41879 7.78962 2.2759 7.93353 2.17936 8.04931C2.08945 8.15714 2.08944 8.18397 2.09324 8.16979L1.36879 7.97567L0.644346 7.78156C0.720147 7.49866 0.870487 7.27678 1.02729 7.08872C1.17747 6.90861 1.37765 6.70944 1.59661 6.49049L2.12694 7.02082ZM2.12694 9.46796L1.59661 9.99829C1.37765 9.77934 1.17747 9.58017 1.02729 9.40006C0.870487 9.212 0.720147 8.99011 0.644346 8.70722L1.36879 8.5131L2.09324 8.31899C2.08944 8.30481 2.08945 8.33164 2.17936 8.43947C2.2759 8.55525 2.41879 8.69916 2.65726 8.93763L2.12694 9.46796ZM1.36879 7.97567L2.09324 8.16979C2.08014 8.21866 2.08014 8.27012 2.09324 8.31899L1.36879 8.5131L0.644346 8.70722C0.563103 8.40401 0.563102 8.08477 0.644346 7.78156L1.36879 7.97567ZM2.12694 7.02082L1.59661 6.49049C1.81556 6.27153 2.01472 6.07135 2.19483 5.92118C2.3829 5.76437 2.60478 5.61403 2.88768 5.53823L3.08179 6.26267L3.27591 6.98712C3.29009 6.98332 3.26326 6.98334 3.15543 7.07325C3.03965 7.16978 2.89574 7.31267 2.65726 7.55115L2.12694 7.02082ZM4.57408 7.02082L4.04375 7.55115C3.80527 7.31267 3.66137 7.16978 3.54559 7.07324C3.43776 6.98334 3.41093 6.98332 3.42511 6.98712L3.61922 6.26267L3.81334 5.53823C4.09623 5.61403 4.31812 5.76437 4.50618 5.92118C4.68629 6.07135 4.88546 6.27153 5.10441 6.49049L4.57408 7.02082ZM3.08179 6.26267L2.88768 5.53823C3.19088 5.45698 3.51013 5.45699 3.81334 5.53823L3.61922 6.26267L3.42511 6.98712C3.37624 6.97402 3.32478 6.97402 3.27591 6.98712L3.08179 6.26267ZM13.3838 6.04196L13.9141 5.51163L14.4036 6.00106L13.8732 6.53139L13.3429 7.06172L12.8535 6.57229L13.3838 6.04196ZM13.8732 8.97853L14.4036 9.50886C14.1846 9.72782 13.9854 9.928 13.8053 10.0782C13.6173 10.235 13.3954 10.3853 13.1125 10.4611L12.9184 9.73668L12.7243 9.01223C12.7101 9.01603 12.7369 9.01601 12.8447 8.9261C12.9605 8.82957 13.1044 8.68668 13.3429 8.4482L13.8732 8.97853ZM11.4261 8.97853L11.9564 8.4482C12.1949 8.68668 12.3388 8.82957 12.4546 8.9261C12.5624 9.01601 12.5892 9.01603 12.5751 9.01223L12.3809 9.73668L12.1868 10.4611C11.9039 10.3853 11.682 10.235 11.494 10.0782C11.3139 9.928 11.1147 9.72782 10.8958 9.50886L11.4261 8.97853ZM12.9184 9.73668L13.1125 10.4611C12.8093 10.5424 12.49 10.5424 12.1868 10.4611L12.3809 9.73668L12.5751 9.01223C12.6239 9.02533 12.6754 9.02533 12.7243 9.01223L12.9184 9.73668ZM13.8732 8.97853L13.3429 8.4482C13.5814 8.20973 13.7243 8.06582 13.8208 7.95004C13.9107 7.84221 13.9107 7.81538 13.9069 7.82956L14.6314 8.02367L15.3558 8.21779C15.28 8.50068 15.1297 8.72257 14.9729 8.91063C14.8227 9.09074 14.6225 9.28991 14.4036 9.50886L13.8732 8.97853ZM13.8732 6.53139L14.4036 6.00106C14.6225 6.22001 14.8227 6.41918 14.9729 6.59929C15.1297 6.78735 15.28 7.00924 15.3558 7.29213L14.6314 7.48625L13.9069 7.68036C13.9107 7.69454 13.9107 7.66771 13.8208 7.55988C13.7243 7.4441 13.5814 7.30019 13.3429 7.06172L13.8732 6.53139ZM14.6314 8.02367L13.9069 7.82956C13.92 7.78069 13.92 7.72923 13.9069 7.68036L14.6314 7.48625L15.3558 7.29213C15.4371 7.59534 15.4371 7.91458 15.3558 8.21779L14.6314 8.02367ZM7.02122 2.12653L6.49089 1.5962C6.70985 1.37724 6.90901 1.17706 7.08912 1.02689C7.27719 0.870081 7.49907 0.719742 7.78197 0.64394L7.97608 1.36838L8.1702 2.09283C8.18437 2.08903 8.15754 2.08905 8.04972 2.17896C7.93393 2.2755 7.79003 2.41838 7.55155 2.65686L7.02122 2.12653ZM9.46837 2.12653L8.93804 2.65686C8.69956 2.41838 8.55566 2.27549 8.43988 2.17896C8.33205 2.08905 8.30522 2.08903 8.3194 2.09283L8.51351 1.36838L8.70762 0.64394C8.99052 0.719742 9.2124 0.870081 9.40047 1.02689C9.58058 1.17706 9.77974 1.37724 9.9987 1.5962L9.46837 2.12653ZM7.97608 1.36838L7.78197 0.64394C8.08517 0.562697 8.40442 0.562697 8.70763 0.643941L8.51351 1.36838L8.3194 2.09283C8.27052 2.07973 8.21907 2.07973 8.1702 2.09283L7.97608 1.36838ZM7.02122 2.12653L7.55155 2.65686C7.31308 2.89533 7.17019 3.03924 7.07365 3.15502C6.98374 3.26285 6.98372 3.28968 6.98752 3.2755L6.26308 3.08139L5.53863 2.88727C5.61444 2.60438 5.76478 2.38249 5.92158 2.19443C6.07176 2.01432 6.27194 1.81515 6.49089 1.5962L7.02122 2.12653ZM7.02122 4.57367L6.49089 5.104C6.27194 4.88505 6.07176 4.68588 5.92158 4.50577C5.76478 4.31771 5.61444 4.09582 5.53864 3.81293L6.26308 3.61882L6.98752 3.4247C6.98372 3.41052 6.98374 3.43735 7.07365 3.54518C7.17019 3.66096 7.31308 3.80487 7.55155 4.04334L7.02122 4.57367ZM6.26308 3.08139L6.98752 3.2755C6.97443 3.32437 6.97443 3.37583 6.98752 3.4247L6.26308 3.61882L5.53864 3.81293C5.45739 3.50973 5.45739 3.19048 5.53863 2.88727L6.26308 3.08139ZM2.12694 9.46796L2.65726 8.93763L4.85969 11.1401L4.32936 11.6704L3.79903 12.2007L1.59661 9.99829L2.12694 9.46796ZM9.46837 2.12653L9.9987 1.5962L12.2011 3.79863L11.6708 4.32896L11.1405 4.85929L8.93804 2.65686L9.46837 2.12653ZM8.97894 11.4257L8.44861 11.956L7.71447 11.2219L8.2448 10.6915L8.77513 10.1612L9.50927 10.8953L8.97894 11.4257ZM11.4261 8.97853L10.8958 9.50886L10.1616 8.77472L10.6919 8.24439L11.2223 7.71406L11.9564 8.4482L11.4261 8.97853ZM8.2448 10.6915L7.71447 11.2219L4.77789 8.28529L5.30822 7.75496L5.83855 7.22463L8.77513 10.1612L8.2448 10.6915ZM5.30822 7.75496L4.77789 8.28529L4.04375 7.55115L4.57408 7.02082L5.10441 6.49049L5.83855 7.22463L5.30822 7.75496ZM10.6919 8.24439L10.1616 8.77472L7.22504 5.83815L7.75537 5.30782L8.2857 4.77749L11.2223 7.71406L10.6919 8.24439ZM7.75537 5.30782L7.22504 5.83815L6.49089 5.104L7.02122 4.57367L7.55155 4.04334L8.2857 4.77749L7.75537 5.30782ZM13.3838 6.04196L12.8535 6.57229C12.4254 6.14424 12.4254 5.45025 12.8535 5.0222L13.3838 5.55253L13.9141 6.08286C14.0719 5.92512 14.0719 5.66937 13.9141 5.51163L13.3838 6.04196ZM6.04237 13.3834L5.51204 13.9137C5.66978 14.0715 5.92553 14.0715 6.08327 13.9137L5.55294 13.3834L5.02261 12.8531C5.45065 12.425 6.14465 12.425 6.5727 12.8531L6.04237 13.3834Z" fill="#E27B00"/>
<path opacity="0.5" d="M8.24475 10.6913L10.6919 8.24419M5.30818 7.75476L7.75532 5.30762" stroke="#F2F2F3" stroke-width="1.5" stroke-linecap="round"/>
</g>
<defs>
<clipPath id="clip0_9235_15074">
<rect width="16" height="16" fill="white"/>
</clipPath>
</defs>
</svg>
