<svg width="16" height="16" viewBox="0 0 16 16" fill="none" xmlns="http://www.w3.org/2000/svg">
<g clip-path="url(#clip0_9235_32639)">
<path d="M14.406 9.04071L14.5588 7.41722C14.6788 6.14214 14.7388 5.5046 14.5207 5.24106C14.4027 5.09849 14.2423 5.01114 14.0707 4.99608C13.7536 4.96822 13.3553 5.42161 12.5588 6.32839C12.1469 6.79734 11.9409 7.03181 11.7111 7.06812C11.5838 7.08824 11.4541 7.06756 11.3365 7.0084C11.1244 6.90162 10.9829 6.61175 10.7 6.03202L9.20875 2.97624C8.67414 1.88075 8.40684 1.33301 8.00004 1.33301C7.59324 1.33301 7.32594 1.88075 6.79133 2.97625L5.30009 6.03202C5.01717 6.61175 4.87571 6.90162 4.66355 7.0084C4.54599 7.06756 4.41627 7.08824 4.28896 7.06812C4.05918 7.03181 3.85322 6.79734 3.44129 6.32839C2.64476 5.42161 2.2465 4.96822 1.92937 4.99608C1.75781 5.01114 1.59736 5.09849 1.47936 5.24106C1.26124 5.5046 1.32124 6.14214 1.44125 7.41722L1.59404 9.04071C1.84581 11.7158 1.97169 13.0533 2.7601 13.8598C3.54851 14.6663 4.73015 14.6663 7.09343 14.6663H8.90666C11.2699 14.6663 12.4516 14.6663 13.24 13.8598C14.0284 13.0533 14.1543 11.7158 14.406 9.04071Z" stroke="#FF6B78" stroke-width="1.5"/>
<path opacity="0.5" d="M7.43063 8.34867C7.68396 7.89422 7.81063 7.66699 8 7.66699C8.18937 7.66699 8.31604 7.89422 8.56937 8.34867L8.63491 8.46624C8.7069 8.59538 8.74289 8.65995 8.79901 8.70255C8.85513 8.74516 8.92503 8.76097 9.06482 8.7926L9.19209 8.8214C9.68403 8.9327 9.93 8.98836 9.98852 9.17654C10.047 9.36472 9.87935 9.56081 9.54398 9.95298L9.45722 10.0544C9.36191 10.1659 9.31426 10.2216 9.29283 10.2905C9.27139 10.3595 9.27859 10.4338 9.293 10.5825L9.30612 10.7179C9.35682 11.2411 9.38218 11.5027 9.22897 11.619C9.07576 11.7353 8.84546 11.6293 8.38487 11.4172L8.2657 11.3624C8.13481 11.3021 8.06937 11.272 8 11.272C7.93063 11.272 7.86519 11.3021 7.7343 11.3624L7.61513 11.4172C7.15453 11.6293 6.92424 11.7353 6.77103 11.619C6.61782 11.5027 6.64318 11.2411 6.69388 10.7179L6.707 10.5825C6.72141 10.4338 6.72861 10.3595 6.70717 10.2905C6.68574 10.2216 6.63809 10.1659 6.54278 10.0544L6.45602 9.95298C6.12065 9.56081 5.95296 9.36472 6.01148 9.17654C6.07 8.98836 6.31597 8.9327 6.80791 8.8214L6.93518 8.7926C7.07497 8.76097 7.14487 8.74516 7.20099 8.70255C7.25711 8.65995 7.2931 8.59538 7.36509 8.46624L7.43063 8.34867Z" stroke="#FF6B78" stroke-width="1.5"/>
</g>
<defs>
<clipPath id="clip0_9235_32639">
<rect width="16" height="16" fill="white"/>
</clipPath>
</defs>
</svg>
