<svg width="41" height="40" viewBox="0 0 41 40" fill="none" xmlns="http://www.w3.org/2000/svg">
<path d="M16.5 1H24.5C32.7843 1 39.5 7.71573 39.5 16V24C39.5 32.2843 32.7843 39 24.5 39H16.5C8.21573 39 1.5 32.2843 1.5 24V16C1.5 7.71573 8.21573 1 16.5 1Z" fill="#E27B00"/>
<path d="M16.5 1H24.5C32.7843 1 39.5 7.71573 39.5 16V24C39.5 32.2843 32.7843 39 24.5 39H16.5C8.21573 39 1.5 32.2843 1.5 24V16C1.5 7.71573 8.21573 1 16.5 1Z" stroke="url(#paint0_linear_5019_18960)" stroke-width="2"/>
<path d="M19.0766 16.7042C19.7099 15.5681 20.0266 15 20.5 15C20.9734 15 21.2901 15.5681 21.9234 16.7042L22.0873 16.9981C22.2672 17.321 22.3572 17.4824 22.4975 17.5889C22.6378 17.6954 22.8126 17.735 23.1621 17.814L23.4802 17.886C24.7101 18.1643 25.325 18.3034 25.4713 18.7739C25.6176 19.2443 25.1984 19.7345 24.36 20.715L24.143 20.9686C23.9048 21.2472 23.7857 21.3865 23.7321 21.5589C23.6785 21.7312 23.6965 21.9171 23.7325 22.2888L23.7653 22.6272C23.8921 23.9353 23.9554 24.5894 23.5724 24.8801C23.1894 25.1709 22.6137 24.9058 21.4622 24.3756L21.1643 24.2384C20.837 24.0878 20.6734 24.0124 20.5 24.0124C20.3266 24.0124 20.163 24.0878 19.8357 24.2384L19.5378 24.3756C18.3863 24.9058 17.8106 25.1709 17.4276 24.8801C17.0446 24.5894 17.1079 23.9353 17.2347 22.6272L17.2675 22.2888C17.3035 21.9171 17.3215 21.7312 17.2679 21.5589C17.2143 21.3865 17.0952 21.2472 16.857 20.9686L16.64 20.715C15.8016 19.7345 15.3824 19.2443 15.5287 18.7739C15.675 18.3034 16.2899 18.1643 17.5198 17.886L17.8379 17.814C18.1874 17.735 18.3622 17.6954 18.5025 17.5889C18.6428 17.4824 18.7328 17.321 18.9127 16.9981L19.0766 16.7042Z" stroke="#F2F2F3" stroke-width="1.5"/>
<path opacity="0.5" d="M20.5 10V12" stroke="#F2F2F3" stroke-width="1.5" stroke-linecap="round"/>
<path opacity="0.5" d="M20.5 28V30" stroke="#F2F2F3" stroke-width="1.5" stroke-linecap="round"/>
<path opacity="0.5" d="M10.5 20L12.5 20" stroke="#F2F2F3" stroke-width="1.5" stroke-linecap="round"/>
<path opacity="0.5" d="M28.5 20L30.5 20" stroke="#F2F2F3" stroke-width="1.5" stroke-linecap="round"/>
<path d="M14.5001 26L14.8431 25.657" stroke="#F2F2F3" stroke-width="1.5" stroke-linecap="round"/>
<path d="M26.1569 14.3433L26.5001 14" stroke="#F2F2F3" stroke-width="1.5" stroke-linecap="round"/>
<path d="M26.4999 26L26.1568 25.657" stroke="#F2F2F3" stroke-width="1.5" stroke-linecap="round"/>
<path d="M14.8433 14.3433L14.5 14" stroke="#F2F2F3" stroke-width="1.5" stroke-linecap="round"/>
<defs>
<linearGradient id="paint0_linear_5019_18960" x1="7.35714" y1="4.14286" x2="29.6429" y2="34.2857" gradientUnits="userSpaceOnUse">
<stop stop-color="#FDAF20"/>
<stop offset="1" stop-color="#794201"/>
</linearGradient>
</defs>
</svg>
