<svg width="16" height="16" viewBox="0 0 16 16" fill="none" xmlns="http://www.w3.org/2000/svg">
<g clip-path="url(#clip0_9235_32904)">
<path d="M14.4059 9.04071L14.5587 7.41722C14.6787 6.14214 14.7387 5.5046 14.5206 5.24106C14.4026 5.09849 14.2421 5.01114 14.0706 4.99608C13.7535 4.96822 13.3552 5.42161 12.5587 6.32839C12.1467 6.79734 11.9408 7.03181 11.711 7.06812C11.5837 7.08824 11.454 7.06756 11.3364 7.0084C11.1242 6.90162 10.9828 6.61175 10.6999 6.03202L9.20863 2.97624C8.67402 1.88075 8.40672 1.33301 7.99992 1.33301C7.59312 1.33301 7.32582 1.88075 6.79121 2.97625L5.29997 6.03202C5.01705 6.61175 4.87559 6.90162 4.66342 7.0084C4.54587 7.06756 4.41615 7.08824 4.28883 7.06812C4.05906 7.03181 3.8531 6.79734 3.44117 6.32839C2.64464 5.42161 2.24638 4.96822 1.92924 4.99608C1.75769 5.01114 1.59724 5.09849 1.47924 5.24106C1.26112 5.5046 1.32112 6.14214 1.44112 7.41722L1.59392 9.04071C1.84569 11.7158 1.97157 13.0533 2.75998 13.8598C3.54839 14.6663 4.73003 14.6663 7.0933 14.6663H8.90653C11.2698 14.6663 12.4514 14.6663 13.2399 13.8598C14.0283 13.0533 14.1541 11.7158 14.4059 9.04071Z" stroke="#4DEEBD" stroke-width="1.5"/>
</g>
<defs>
<clipPath id="clip0_9235_32904">
<rect width="16" height="16" fill="white"/>
</clipPath>
</defs>
</svg>
