<svg width="35" height="34" viewBox="0 0 35 34" fill="none" xmlns="http://www.w3.org/2000/svg">
<path d="M0.5 12C0.5 5.37258 5.87258 0 12.5 0H22.5C29.1274 0 34.5 5.37258 34.5 12V22C34.5 28.6274 29.1274 34 22.5 34H12.5C5.87258 34 0.5 28.6274 0.5 22V12Z" fill="#4FA4FF" fill-opacity="0.12"/>
<path d="M22.4768 19.7526L23.7641 15.8906C24.8887 12.5168 25.451 10.8299 24.5605 9.93947C23.6701 9.04901 21.9832 9.61131 18.6094 10.7359L14.7474 12.0232C12.0244 12.9309 10.6629 13.3847 10.276 14.0502C9.90799 14.6833 9.90799 15.4653 10.276 16.0984C10.6629 16.7639 12.0244 17.2177 14.7474 18.1254C15.1846 18.2711 15.4032 18.344 15.5859 18.4663C15.763 18.5849 15.9152 18.737 16.0337 18.9141C16.156 19.0968 16.2289 19.3154 16.3746 19.7526C17.2823 22.4756 17.7361 23.8371 18.4016 24.224C19.0347 24.592 19.8167 24.592 20.4498 24.224C21.1153 23.8371 21.5691 22.4756 22.4768 19.7526Z" stroke="#007AFF" stroke-width="1.5"/>
<path opacity="0.5" d="M20.7905 14.77C21.085 14.4787 21.0877 14.0038 20.7964 13.7093C20.5051 13.4148 20.0303 13.4122 19.7358 13.7035L20.7905 14.77ZM16.1014 18.3525L16.6288 18.8858L20.7905 14.77L20.2631 14.2367L19.7358 13.7035L15.5741 17.8193L16.1014 18.3525Z" fill="#007AFF"/>
</svg>
