<svg width="36" height="36" viewBox="0 0 36 36" fill="none" xmlns="http://www.w3.org/2000/svg">
<path d="M0 12C0 5.37258 5.37258 0 12 0H24C30.6274 0 36 5.37258 36 12V24C36 30.6274 30.6274 36 24 36H12C5.37258 36 0 30.6274 0 24V12Z" fill="#E27B00" fill-opacity="0.12"/>
<g clip-path="url(#clip0_9376_30761)">
<path d="M24.6667 9.66699C24.6667 9.66699 23 13.574 23 16.8099C23 17.8459 23.355 18.7129 23.8333 19.5763C24.3838 20.57 25.0976 21.559 25.6214 22.7956C26.0372 23.777 26.3333 24.9143 26.3333 26.3337" stroke="#E27B00" stroke-width="1.5" stroke-linecap="round" stroke-linejoin="round"/>
<path d="M11.3334 9.66699C11.3334 9.66699 13 13.574 13 16.8099C13 17.8459 12.645 18.7129 12.1667 19.5763C11.6162 20.57 10.9024 21.559 10.3786 22.7956C9.96283 23.777 9.66669 24.9143 9.66669 26.3337" stroke="#E27B00" stroke-width="1.5" stroke-linecap="round" stroke-linejoin="round"/>
<path opacity="0.5" d="M13 18.833H23" stroke="#E27B00" stroke-opacity="0.4" stroke-width="1.5" stroke-linecap="round"/>
<path d="M18 26.333C18.4167 25.083 20.5 22.583 25.5 22.583" stroke="#E27B00" stroke-opacity="0.12" stroke-width="1.5" stroke-linecap="round"/>
<path d="M18 26.333C17.5833 25.083 15.5 22.583 10.5 22.583" stroke="#E27B00" stroke-opacity="0.12" stroke-width="1.5" stroke-linecap="round"/>
</g>
<defs>
<clipPath id="clip0_9376_30761">
<rect width="20" height="20" fill="white" transform="translate(8 8)"/>
</clipPath>
</defs>
</svg>
