<svg width="36" height="36" viewBox="0 0 36 36" fill="none" xmlns="http://www.w3.org/2000/svg">
<path d="M0 12C0 5.37258 5.37258 0 12 0H24C30.6274 0 36 5.37258 36 12V24C36 30.6274 30.6274 36 24 36H12C5.37258 36 0 30.6274 0 24V12Z" fill="#E27B00" fill-opacity="0.12"/>
<path d="M24.6666 25.9163L24.1254 21.3159C23.9588 19.9 22.7589 18.833 21.3333 18.833H14.6666C13.241 18.833 12.0411 19.9 11.8745 21.3159L11.3333 25.9163" stroke="#E27B00" stroke-width="1.5" stroke-linecap="round"/>
<path opacity="0.5" d="M14.6667 18.833V22.9997C14.6667 24.571 14.6667 25.3567 15.1548 25.8449C15.643 26.333 16.4287 26.333 18 26.333C19.5714 26.333 20.357 26.333 20.8452 25.8449C21.3334 25.3567 21.3334 24.571 21.3334 22.9997V18.833" stroke="#E27B00" stroke-width="1.5"/>
<circle cx="18" cy="13.0003" r="3.33333" stroke="#E27B00" stroke-opacity="0.4" stroke-width="1.5"/>
</svg>
