<svg width="30" height="30" viewBox="0 0 30 30" fill="none" xmlns="http://www.w3.org/2000/svg">
<path d="M0 12C0 5.37258 5.37258 0 12 0H18C24.6274 0 30 5.37258 30 12V18C30 24.6274 24.6274 30 18 30H12C5.37258 30 0 24.6274 0 18V12Z" fill="#E27B00" fill-opacity="0.12"/>
<g clip-path="url(#clip0_7115_32910)">
<circle cx="17.25" cy="9" r="1.5" stroke="#E27B00" stroke-width="1.5"/>
<path d="M14.25 17.9999V16.7748C14.25 16.363 14.0671 15.9725 13.7508 15.7089L13.0035 15.0861C12.4646 14.6371 12.4276 13.8223 12.9236 13.3263L14.1641 12.0858C14.5645 11.6854 14.4339 11.0073 13.9134 10.7842C12.9497 10.3712 11.8448 10.4563 10.9556 11.012L9.375 11.9999" stroke="#E27B00" stroke-width="1.5" stroke-linecap="round"/>
<path opacity="0.5" d="M11.25 16.5L11.0037 16.7463C10.5701 17.1799 10.3534 17.3966 10.0777 17.5108C9.80205 17.625 9.49549 17.625 8.88236 17.625H8.25" stroke="#E27B00" stroke-width="1.5" stroke-linecap="round"/>
<path opacity="0.5" d="M15.375 13.5H17.625" stroke="#E27B00" stroke-width="1.5" stroke-linecap="round"/>
<path d="M20.6166 22.4997H8.31513C7.86495 22.4997 7.5 22.1348 7.5 21.6846C7.5 21.2886 7.78457 20.9499 8.17462 20.8817L20.2919 18.7611C21.4444 18.5594 22.5 19.4463 22.5 20.6163C22.5 21.6565 21.6568 22.4997 20.6166 22.4997Z" stroke="#E27B00" stroke-width="1.5" stroke-linejoin="round"/>
<path opacity="0.5" d="M20.4687 12.6668L19.727 12.5555L19.727 12.5555L20.4687 12.6668ZM21.658 11.4184L21.8051 12.1538L21.658 11.4184ZM22.6471 11.9854C23.0533 11.9042 23.3167 11.5091 23.2354 11.1029C23.1542 10.6967 22.7591 10.4333 22.3529 10.5146L22.6471 11.9854ZM19.5 19.125L20.2417 19.2363L21.2104 12.778L20.4687 12.6668L19.727 12.5555L18.7583 19.0137L19.5 19.125ZM21.658 11.4184L21.8051 12.1538L22.6471 11.9854L22.5 11.25L22.3529 10.5146L21.5109 10.683L21.658 11.4184ZM20.4687 12.6668L21.2104 12.778C21.2507 12.5095 21.2728 12.3695 21.2988 12.2722C21.3198 12.1933 21.3249 12.219 21.2886 12.2571L20.7455 11.7398L20.2025 11.2225C20.0027 11.4322 19.9071 11.6697 19.8495 11.8854C19.7968 12.0829 19.7623 12.3205 19.727 12.5555L20.4687 12.6668ZM21.658 11.4184L21.5109 10.683C21.2779 10.7296 21.0422 10.7756 20.8475 10.8378C20.6348 10.9058 20.4023 11.0128 20.2025 11.2225L20.7455 11.7398L21.2886 12.2571C21.2523 12.2952 21.2263 12.2915 21.3041 12.2666C21.4 12.236 21.5388 12.2071 21.8051 12.1538L21.658 11.4184Z" fill="#E27B00"/>
</g>
<defs>
<clipPath id="clip0_7115_32910">
<rect width="18" height="18" fill="white" transform="translate(6 6)"/>
</clipPath>
</defs>
</svg>
