<svg width="25" height="24" viewBox="0 0 25 24" fill="none" xmlns="http://www.w3.org/2000/svg">
<path d="M2.03479 10.9714C2.10847 9.76255 2.14531 9.15814 2.45854 8.57679C2.74473 8.04563 3.2923 7.53042 3.83988 7.27707C4.43921 6.99979 5.12617 6.99979 6.50008 6.99979C7.01215 6.99979 7.26819 6.99979 7.5162 6.95791C7.76138 6.9165 8.00046 6.84478 8.22795 6.74438C8.45806 6.64283 8.67181 6.50189 9.09932 6.22002L9.31825 6.07566C11.8612 4.39898 13.1327 3.56063 14.2001 3.92487C14.4047 3.9947 14.6028 4.09551 14.7797 4.21984C15.7024 4.86829 15.7725 6.37699 15.9127 9.3944C15.9646 10.5117 16 11.4679 16 11.9998C16 12.5317 15.9646 13.4879 15.9127 14.6052C15.7725 17.6226 15.7024 19.1313 14.7797 19.7797C14.6028 19.9041 14.4047 20.0049 14.2001 20.0747C13.1327 20.4389 11.8612 19.6006 9.31825 17.9239L9.09932 17.7796C8.67181 17.4977 8.45806 17.3567 8.22795 17.2552C8.00046 17.1548 7.76138 17.0831 7.5162 17.0417C7.26819 16.9998 7.01215 16.9998 6.50008 16.9998C5.12617 16.9998 4.43921 16.9998 3.83988 16.7225C3.2923 16.4692 2.74473 15.9539 2.45854 15.4228C2.14531 14.8414 2.10847 14.237 2.03479 13.0282C2.01299 12.6706 2 12.3222 2 11.9998C2 11.6774 2.01299 11.329 2.03479 10.9714Z" stroke="#F2F2F3" stroke-width="1.5"/>
<path opacity="0.4" d="M20.5 6C20.5 6 22 7.8 22 12C22 16.2 20.5 18 20.5 18" stroke="#F2F2F3" stroke-width="1.5" stroke-linecap="round"/>
<path opacity="0.7" d="M18.5 9C18.5 9 19 9.9 19 12C19 14.1 18.5 15 18.5 15" stroke="#F2F2F3" stroke-width="1.5" stroke-linecap="round"/>
</svg>
