<svg width="33" height="32" viewBox="0 0 33 32" fill="none" xmlns="http://www.w3.org/2000/svg">
<path opacity="0.5" d="M4.5 13.3327C4.5 8.30437 4.5 5.79021 6.0621 4.22811C7.62419 2.66602 10.1384 2.66602 15.1667 2.66602H17.8333C22.8616 2.66602 25.3758 2.66602 26.9379 4.22811C28.5 5.79021 28.5 8.30437 28.5 13.3327V18.666C28.5 23.6943 28.5 26.2085 26.9379 27.7706C25.3758 29.3327 22.8616 29.3327 17.8333 29.3327H15.1667C10.1384 29.3327 7.62419 29.3327 6.0621 27.7706C4.5 26.2085 4.5 23.6943 4.5 18.666V13.3327Z" stroke="#696576" stroke-width="1.5"/>
<path d="M11.1666 24H21.8333" stroke="#696576" stroke-width="1.5" stroke-linecap="round"/>
<path d="M22.382 13.2944L23.2695 11.0756C23.9018 9.495 22.9112 7.73472 21.232 7.45485L20.6647 7.36031C17.9072 6.90073 15.0927 6.90073 12.3352 7.36031L11.7679 7.45485C10.0887 7.73472 9.09814 9.495 9.73039 11.0756L10.6179 13.2944C10.9323 14.0803 11.7788 14.5131 12.6 14.3078C15.1606 13.6677 17.8393 13.6677 20.3999 14.3078C21.2211 14.5131 22.0676 14.0803 22.382 13.2944Z" stroke="#F2F2F3" stroke-width="1.5" stroke-linecap="round"/>
<path d="M14.0728 13.2387L13.1729 10.7285" stroke="#F2F2F3" stroke-width="1.5" stroke-linecap="round"/>
</svg>
