<svg width="20" height="20" viewBox="0 0 20 20" fill="none" xmlns="http://www.w3.org/2000/svg">
<g clip-path="url(#clip0_7048_33218)">
<path opacity="0.5" d="M5.03711 5.90812L5.1267 5.16349L5.03711 5.90812ZM7.48759 6.20296L7.398 6.94759L7.48759 6.20296ZM8.85293 9.11666L9.4901 9.51228L8.85293 9.11666ZM6.70377 9.5704L6.79336 8.82577C6.3878 8.77698 6.01778 9.0617 5.96104 9.46622L6.70377 9.5704ZM8.10369 9.651L7.92188 8.92337L7.92188 8.92337L8.10369 9.651ZM8.55698 6.41946L8.90954 5.7575L8.90954 5.7575L8.55698 6.41946ZM9.13393 7.11338L8.41386 7.32313L8.41386 7.32313L9.13393 7.11338ZM3.19426 6.39873L2.55709 6.0031L2.55709 6.0031L3.19426 6.39873ZM3.9435 5.86438L3.76169 5.13675L3.76169 5.13675L3.9435 5.86438ZM2.91326 8.402L2.19319 8.61176L2.19319 8.61176L2.91326 8.402ZM4.8659 9.34928L5.60863 9.45346C5.63662 9.25395 5.58316 9.05157 5.4603 8.8919C5.33745 8.73224 5.15552 8.62871 4.9555 8.60465L4.8659 9.34928ZM3.49021 9.09592L3.84278 8.43395L3.84278 8.43395L3.49021 9.09592ZM5.79638 18.2598L5.70679 19.0045L5.79638 18.2598ZM3.3459 17.965L3.43549 17.2204L3.3459 17.965ZM7.873 16.7788L8.61573 16.883L7.873 16.7788ZM7.63924 17.7692L7.00208 17.3736L7.00208 17.3736L7.63924 17.7692ZM6.89 18.3036L7.07181 19.0312H7.07181L6.89 18.3036ZM5.96759 14.8187L5.22486 14.7145C5.19688 14.914 5.25034 15.1164 5.37319 15.2761C5.49605 15.4357 5.67798 15.5393 5.878 15.5633L5.96759 14.8187ZM7.34329 15.0721L7.69585 14.4101L7.69585 14.4101L7.34329 15.0721ZM7.92024 15.766L7.20017 15.9757V15.9757L7.92024 15.766ZM1.7468 16.0417L2.48953 16.1459L1.7468 16.0417ZM1.98056 15.0513L1.3434 14.6557H1.3434L1.98056 15.0513ZM4.12973 14.5976L4.04014 15.3422C4.44569 15.391 4.81572 15.1063 4.87246 14.7017L4.12973 14.5976ZM2.7298 14.517L2.548 13.7893H2.548L2.7298 14.517ZM1.69957 17.0546L0.979494 17.2643L1.69957 17.0546ZM2.27652 17.7485L1.92395 18.4105H1.92395L2.27652 17.7485ZM5.03711 5.90812L4.94752 6.65275L7.398 6.94759L7.48759 6.20296L7.57719 5.45833L5.1267 5.16349L5.03711 5.90812ZM9.0867 8.12624L8.34397 8.02206C8.30536 8.29731 8.28154 8.46375 8.25483 8.58748C8.22986 8.70318 8.2132 8.72517 8.21577 8.72103L8.85293 9.11666L9.4901 9.51228C9.61518 9.31083 9.67832 9.10197 9.72106 8.90397C9.76207 8.714 9.79387 8.48389 9.82943 8.23042L9.0867 8.12624ZM6.70377 9.5704L6.61417 10.315C6.89508 10.3488 7.20325 10.3861 7.47184 10.4065C7.70274 10.4241 8.03056 10.4423 8.2855 10.3786L8.10369 9.651L7.92188 8.92337C7.95036 8.91626 7.94011 8.92262 7.86061 8.92309C7.79146 8.92351 7.69991 8.91956 7.58583 8.91086C7.35649 8.89338 7.08335 8.86067 6.79336 8.82577L6.70377 9.5704ZM8.85293 9.11666L8.21577 8.72103C8.16115 8.80899 8.06019 8.88882 7.92188 8.92337L8.10369 9.651L8.2855 10.3786C8.77994 10.2551 9.218 9.9505 9.4901 9.51228L8.85293 9.11666ZM7.48759 6.20296L7.398 6.94759C7.69294 6.98308 7.8794 7.00587 8.01993 7.03189C8.15506 7.05691 8.19469 7.07625 8.20441 7.08143L8.55698 6.41946L8.90954 5.7575C8.70622 5.64921 8.4966 5.59465 8.29302 5.55695C8.09484 5.52026 7.85313 5.49153 7.57719 5.45833L7.48759 6.20296ZM9.0867 8.12624L9.82943 8.23042C9.86497 7.97703 9.89772 7.74692 9.9105 7.55335C9.92378 7.35216 9.9207 7.13259 9.854 6.90362L9.13393 7.11338L8.41386 7.32313C8.41118 7.31393 8.42156 7.33641 8.41376 7.45454C8.40546 7.58028 8.38259 7.74671 8.34397 8.02206L9.0867 8.12624ZM8.55698 6.41946L8.20441 7.08143C8.3209 7.14347 8.3884 7.23574 8.41386 7.32313L9.13393 7.11338L9.854 6.90362C9.70875 6.40499 9.36119 5.99805 8.90954 5.7575L8.55698 6.41946ZM2.96049 7.38914L3.70322 7.49333C3.74183 7.21806 3.76565 7.05163 3.79236 6.9279C3.81733 6.8122 3.83399 6.79022 3.83142 6.79435L3.19426 6.39873L2.55709 6.0031C2.43201 6.20455 2.36887 6.41341 2.32613 6.61141C2.28512 6.80137 2.25332 7.03149 2.21776 7.28496L2.96049 7.38914ZM5.03711 5.90812L5.1267 5.16349C4.8507 5.13029 4.60917 5.10087 4.40761 5.08946C4.20005 5.07771 3.98444 5.08109 3.76169 5.13675L3.9435 5.86438L4.1253 6.59201C4.13983 6.58838 4.18559 6.57929 4.3228 6.58706C4.466 6.59517 4.65265 6.61728 4.94752 6.65275L5.03711 5.90812ZM3.19426 6.39873L3.83142 6.79435C3.88604 6.70639 3.987 6.62657 4.1253 6.59201L3.9435 5.86438L3.76169 5.13675C3.26725 5.26029 2.82919 5.56488 2.55709 6.0031L3.19426 6.39873ZM2.96049 7.38914L2.21776 7.28496C2.18222 7.53835 2.14946 7.76847 2.13669 7.96204C2.12341 8.16322 2.12649 8.3828 2.19319 8.61176L2.91326 8.402L3.63333 8.19225C3.63601 8.20145 3.62563 8.17896 3.63343 8.06084C3.64173 7.93511 3.6646 7.76867 3.70322 7.49333L2.96049 7.38914ZM4.8659 9.34928L4.9555 8.60465C4.66548 8.56975 4.39241 8.53675 4.16594 8.49939C4.05326 8.4808 3.96388 8.46299 3.8975 8.44632C3.82059 8.427 3.81439 8.41883 3.84278 8.43395L3.49021 9.09592L3.13764 9.75788C3.37046 9.88188 3.69511 9.94199 3.92179 9.97939C4.18718 10.0232 4.49544 10.0601 4.77631 10.0939L4.8659 9.34928ZM2.91326 8.402L2.19319 8.61176C2.33844 9.11039 2.686 9.51733 3.13764 9.75788L3.49021 9.09592L3.84278 8.43395C3.72629 8.37191 3.65879 8.27964 3.63333 8.19225L2.91326 8.402ZM5.79638 18.2598L5.88598 17.5152L3.43549 17.2204L3.3459 17.965L3.25631 18.7096L5.70679 19.0045L5.79638 18.2598ZM7.873 16.7788L7.13028 16.6746C7.09167 16.9499 7.06785 17.1163 7.04114 17.2401C7.01617 17.3558 6.99951 17.3778 7.00208 17.3736L7.63924 17.7692L8.2764 18.1649C8.40149 17.9634 8.46463 17.7546 8.50737 17.5566C8.54838 17.3666 8.58018 17.1365 8.61573 16.883L7.873 16.7788ZM5.79638 18.2598L5.70679 19.0045C5.98281 19.0377 6.22433 19.0671 6.4259 19.0785C6.63345 19.0903 6.84906 19.0869 7.07181 19.0312L6.89 18.3036L6.70819 17.576C6.69366 17.5796 6.64791 17.5887 6.5107 17.5809C6.3675 17.5728 6.18085 17.5507 5.88598 17.5152L5.79638 18.2598ZM7.63924 17.7692L7.00208 17.3736C6.94746 17.4616 6.8465 17.5414 6.70819 17.576L6.89 18.3036L7.07181 19.0312C7.56625 18.9077 8.00431 18.6031 8.2764 18.1649L7.63924 17.7692ZM5.96759 14.8187L5.878 15.5633C6.16802 15.5982 6.44108 15.6312 6.66756 15.6686C6.78024 15.6872 6.86962 15.705 6.936 15.7216C7.0129 15.741 7.01911 15.7491 6.99072 15.734L7.34329 15.0721L7.69585 14.4101C7.46304 14.2861 7.13838 14.226 6.9117 14.1886C6.64632 14.1448 6.33806 14.1079 6.05719 14.0741L5.96759 14.8187ZM7.873 16.7788L8.61573 16.883C8.65128 16.6296 8.68403 16.3995 8.69681 16.2059C8.71009 16.0047 8.70701 15.7852 8.64031 15.5562L7.92024 15.766L7.20017 15.9757C7.19749 15.9665 7.20787 15.989 7.20007 16.1071C7.19177 16.2329 7.1689 16.3993 7.13028 16.6746L7.873 16.7788ZM7.34329 15.0721L6.99072 15.734C7.1072 15.7961 7.17471 15.8883 7.20017 15.9757L7.92024 15.766L8.64031 15.5562C8.49506 15.0576 8.14749 14.6506 7.69585 14.4101L7.34329 15.0721ZM1.7468 16.0417L2.48953 16.1459C2.52814 15.8707 2.55196 15.7042 2.57867 15.5805C2.60364 15.4648 2.6203 15.4428 2.61773 15.4469L1.98056 15.0513L1.3434 14.6557C1.21831 14.8571 1.15517 15.066 1.11243 15.264C1.07143 15.454 1.03962 15.6841 1.00407 15.9375L1.7468 16.0417ZM4.12973 14.5976L4.21932 13.8529C3.93842 13.8191 3.63024 13.7819 3.36166 13.7614C3.13076 13.7438 2.80294 13.7256 2.548 13.7893L2.7298 14.517L2.91161 15.2446C2.88314 15.2517 2.89338 15.2454 2.97288 15.2449C3.04204 15.2445 3.13359 15.2484 3.24767 15.2571C3.477 15.2746 3.75015 15.3073 4.04014 15.3422L4.12973 14.5976ZM1.98056 15.0513L2.61773 15.4469C2.67235 15.359 2.77331 15.2792 2.91161 15.2446L2.7298 14.517L2.548 13.7893C2.05355 13.9129 1.6155 14.2175 1.3434 14.6557L1.98056 15.0513ZM1.7468 16.0417L1.00407 15.9375C0.968528 16.1909 0.935773 16.4211 0.922994 16.6146C0.909713 16.8158 0.912799 17.0354 0.979494 17.2643L1.69957 17.0546L2.41964 16.8448C2.42232 16.854 2.41194 16.8316 2.41974 16.7134C2.42804 16.5877 2.45091 16.4213 2.48953 16.1459L1.7468 16.0417ZM3.3459 17.965L3.43549 17.2204C3.14055 17.1849 2.95409 17.1621 2.81356 17.1361C2.67844 17.1111 2.63881 17.0917 2.62908 17.0865L2.27652 17.7485L1.92395 18.4105C2.12728 18.5188 2.33689 18.5733 2.54048 18.611C2.73865 18.6477 2.98036 18.6764 3.25631 18.7096L3.3459 17.965ZM1.69957 17.0546L0.979494 17.2643C1.12474 17.763 1.47231 18.1699 1.92395 18.4105L2.27652 17.7485L2.62908 17.0865C2.5126 17.0245 2.44509 16.9322 2.41964 16.8448L1.69957 17.0546ZM4.12973 14.5976L4.87246 14.7017L5.60863 9.45346L4.8659 9.34928L4.12318 9.24509L3.387 14.4934L4.12973 14.5976ZM6.70377 9.5704L5.96104 9.46622L5.22486 14.7145L5.96759 14.8187L6.71032 14.9229L7.4465 9.67459L6.70377 9.5704Z" fill="#E27B00"/>
<path d="M14.6451 13.9849L14.4578 13.2586L14.6451 13.9849ZM16.9046 13.4021L17.0919 14.1283H17.0919L16.9046 13.4021ZM17.792 10.3959L18.3784 9.92844V9.92844L17.792 10.3959ZM15.714 10.2124L14.9915 10.4135C15.1011 10.8072 15.5056 11.0407 15.9013 10.9386L15.714 10.2124ZM17.0167 9.96508L17.111 9.22103L17.111 9.22103L17.0167 9.96508ZM17.8788 13.0621L18.3244 13.6654L17.8788 13.0621ZM18.3264 12.3158L19.0695 12.4174V12.4174L18.3264 12.3158ZM12.8496 13.7285L12.2631 14.1959L12.2631 14.1959L12.8496 13.7285ZM13.6248 14.1593L13.5305 14.9034L13.6248 14.1593ZM12.3152 11.8086L11.5721 11.707L11.5721 11.707L12.3152 11.8086ZM14.0194 10.6495L14.2067 11.3757C14.4017 11.3254 14.5683 11.1988 14.669 11.0244C14.7696 10.8499 14.7959 10.6424 14.7419 10.4483L14.0194 10.6495ZM12.7628 11.0623L12.3172 10.459L12.3172 10.459L12.7628 11.0623ZM13.6882 1.84715L13.8756 2.57338L13.6882 1.84715ZM11.4287 2.42995L11.2414 1.70372L11.2414 1.70372L11.4287 2.42995ZM15.8369 3.04133L15.1144 3.24245L15.8369 3.04133ZM15.4837 2.10358L14.8973 2.57107L15.4837 2.10358ZM14.7085 1.67272L14.8028 0.928669L14.8028 0.928669L14.7085 1.67272ZM14.314 5.18257L14.1266 4.45634C13.9316 4.50664 13.765 4.63325 13.6644 4.80767C13.5637 4.98209 13.5374 5.18967 13.5914 5.38369L14.314 5.18257ZM15.5706 4.76972L16.0162 5.37299L16.0162 5.37299L15.5706 4.76972ZM16.0182 4.02345L15.2751 3.92182V3.92182L16.0182 4.02345ZM10.1882 4.49834L9.46564 4.69946L10.1882 4.49834ZM10.5414 5.43609L11.1278 4.9686H11.1278L10.5414 5.43609ZM12.6193 5.61967L13.3418 5.41855C13.2323 5.02487 12.8277 4.79138 12.432 4.89344L12.6193 5.61967ZM11.3166 5.86695L11.4109 5.1229H11.4109L11.3166 5.86695ZM10.007 3.51622L10.75 3.61784L10.007 3.51622ZM10.4546 2.76995L10.0089 2.16668L10.0089 2.16668L10.4546 2.76995ZM14.6451 13.9849L14.8324 14.7111L17.0919 14.1283L16.9046 13.4021L16.7173 12.6758L14.4578 13.2586L14.6451 13.9849ZM18.1452 11.3337L18.8677 11.1326C18.8 10.8894 18.7393 10.6696 18.6754 10.4901C18.609 10.3034 18.5223 10.1089 18.3784 9.92844L17.792 10.3959L17.2055 10.8634C17.2055 10.8635 17.2057 10.8637 17.2061 10.8642C17.2065 10.8648 17.2071 10.8658 17.2081 10.8673C17.21 10.8703 17.2134 10.876 17.2182 10.8854C17.2282 10.9051 17.2426 10.9378 17.2622 10.9928C17.3042 11.111 17.3493 11.2713 17.4226 11.5348L18.1452 11.3337ZM15.714 10.2124L15.9013 10.9386C16.1692 10.8695 16.4194 10.8051 16.6304 10.7608C16.7352 10.7388 16.8185 10.7244 16.8807 10.7168C16.9534 10.7079 16.9576 10.7136 16.9224 10.7091L17.0167 9.96508L17.111 9.22103C16.8511 9.1881 16.5352 9.24812 16.3222 9.29284C16.0711 9.34556 15.7853 9.41943 15.5267 9.48613L15.714 10.2124ZM17.792 10.3959L18.3784 9.92844C18.0647 9.53485 17.6073 9.28393 17.111 9.22103L17.0167 9.96508L16.9224 10.7091C17.0412 10.7242 17.1416 10.7832 17.2055 10.8634L17.792 10.3959ZM16.9046 13.4021L17.0919 14.1283C17.3455 14.0629 17.571 14.0051 17.7547 13.9446C17.9441 13.8822 18.1408 13.801 18.3244 13.6654L17.8788 13.0621L17.4332 12.4588C17.4322 12.4595 17.405 12.4805 17.2851 12.52C17.1594 12.5614 16.9901 12.6055 16.7173 12.6758L16.9046 13.4021ZM18.1452 11.3337L17.4226 11.5348C17.496 11.7984 17.5402 11.9588 17.5651 12.0812C17.5887 12.1969 17.5822 12.222 17.5833 12.2142L18.3264 12.3158L19.0695 12.4174C19.1009 12.1876 19.0743 11.975 19.0349 11.7818C18.997 11.5954 18.9354 11.3757 18.8677 11.1326L18.1452 11.3337ZM17.8788 13.0621L18.3244 13.6654C18.7289 13.3666 19.0008 12.9193 19.0695 12.4174L18.3264 12.3158L17.5833 12.2142C17.571 12.3044 17.5209 12.394 17.4332 12.4588L17.8788 13.0621ZM12.4964 12.7907L11.7739 12.9918C11.8415 13.235 11.9023 13.4548 11.9661 13.6343C12.0325 13.821 12.1193 14.0155 12.2631 14.1959L12.8496 13.7285L13.4361 13.261C13.436 13.2609 13.4358 13.2607 13.4355 13.2602C13.4351 13.2596 13.4344 13.2586 13.4334 13.2571C13.4315 13.2541 13.4281 13.2484 13.4234 13.239C13.4134 13.2193 13.3989 13.1866 13.3794 13.1316C13.3373 13.0133 13.2923 12.8531 13.2189 12.5896L12.4964 12.7907ZM14.6451 13.9849L14.4578 13.2586C14.185 13.329 14.0154 13.3724 13.8849 13.397C13.7608 13.4204 13.7243 13.4159 13.7191 13.4153L13.6248 14.1593L13.5305 14.9034C13.7561 14.9319 13.9664 14.9081 14.1632 14.871C14.3536 14.835 14.5788 14.7765 14.8324 14.7111L14.6451 13.9849ZM12.8496 13.7285L12.2631 14.1959C12.5769 14.5895 13.0342 14.8405 13.5305 14.9034L13.6248 14.1593L13.7191 13.4153C13.6004 13.4002 13.5 13.3412 13.4361 13.261L12.8496 13.7285ZM12.4964 12.7907L13.2189 12.5896C13.1455 12.326 13.1014 12.1656 13.0764 12.0431C13.0528 11.9275 13.0593 11.9024 13.0583 11.9102L12.3152 11.8086L11.5721 11.707C11.5407 11.9368 11.5672 12.1494 11.6066 12.3426C11.6446 12.529 11.7062 12.7487 11.7739 12.9918L12.4964 12.7907ZM14.0194 10.6495L13.8321 9.92323C13.5735 9.98992 13.2876 10.0635 13.0427 10.1387C12.9196 10.1765 12.7951 10.2183 12.6819 10.264C12.579 10.3056 12.4403 10.3681 12.3172 10.459L12.7628 11.0623L13.2084 11.6656C13.1775 11.6884 13.1762 11.6821 13.244 11.6547C13.3015 11.6315 13.3809 11.604 13.4831 11.5726C13.6887 11.5095 13.9389 11.4448 14.2067 11.3757L14.0194 10.6495ZM12.3152 11.8086L13.0583 11.9102C13.0706 11.82 13.1207 11.7304 13.2084 11.6656L12.7628 11.0623L12.3172 10.459C11.9127 10.7578 11.6407 11.2051 11.5721 11.707L12.3152 11.8086ZM13.6882 1.84715L13.5009 1.12092L11.2414 1.70372L11.4287 2.42995L11.616 3.15618L13.8756 2.57338L13.6882 1.84715ZM15.8369 3.04133L16.5595 2.84021C16.4918 2.59703 16.4311 2.37722 16.3672 2.19769C16.3008 2.01108 16.2141 1.81654 16.0702 1.63608L15.4837 2.10358L14.8973 2.57107C14.8973 2.57109 14.8975 2.57133 14.8979 2.57187C14.8983 2.57241 14.8989 2.5734 14.8999 2.57492C14.9018 2.57795 14.9052 2.58363 14.9099 2.59302C14.9199 2.61272 14.9344 2.64547 14.9539 2.70043C14.996 2.81868 15.0411 2.97892 15.1144 3.24245L15.8369 3.04133ZM13.6882 1.84715L13.8756 2.57338C14.1483 2.50302 14.3179 2.45968 14.4484 2.43504C14.5725 2.41161 14.6091 2.41611 14.6142 2.41677L14.7085 1.67272L14.8028 0.928669C14.5773 0.90009 14.3669 0.923923 14.1701 0.961076C13.9798 0.997016 13.7545 1.0555 13.5009 1.12092L13.6882 1.84715ZM15.4837 2.10358L16.0702 1.63608C15.7565 1.24249 15.2991 0.991569 14.8028 0.928669L14.7085 1.67272L14.6142 2.41677C14.733 2.43182 14.8333 2.49086 14.8973 2.57107L15.4837 2.10358ZM14.314 5.18257L14.5013 5.9088C14.7598 5.84211 15.0457 5.76853 15.2907 5.69329C15.4137 5.6555 15.5382 5.61375 15.6514 5.56801C15.7543 5.52641 15.893 5.46395 16.0162 5.37299L15.5706 4.76972L15.125 4.16645C15.1558 4.14366 15.1571 4.14992 15.0893 4.17729C15.0319 4.20053 14.9525 4.22801 14.8502 4.25941C14.6446 4.32258 14.3945 4.38725 14.1266 4.45634L14.314 5.18257ZM15.8369 3.04133L15.1144 3.24245C15.1878 3.50606 15.232 3.66641 15.2569 3.78889C15.2805 3.90453 15.274 3.92962 15.2751 3.92182L16.0182 4.02345L16.7612 4.12508C16.7927 3.89525 16.7661 3.68264 16.7267 3.48941C16.6888 3.30301 16.6271 3.08332 16.5595 2.84021L15.8369 3.04133ZM15.5706 4.76972L16.0162 5.37299C16.4207 5.07422 16.6926 4.62696 16.7612 4.12508L16.0182 4.02345L15.2751 3.92182C15.2627 4.01204 15.2127 4.10167 15.125 4.16645L15.5706 4.76972ZM10.1882 4.49834L9.46564 4.69946C9.53333 4.94264 9.59406 5.16245 9.65793 5.34198C9.72432 5.5286 9.81105 5.72313 9.9549 5.90359L10.5414 5.43609L11.1278 4.9686C11.1278 4.96858 11.1276 4.96834 11.1272 4.9678C11.1269 4.96726 11.1262 4.96627 11.1252 4.96474C11.1233 4.96172 11.1199 4.95603 11.1152 4.94665C11.1052 4.92695 11.0907 4.8942 11.0712 4.83924C11.0291 4.72099 10.9841 4.56075 10.9107 4.29722L10.1882 4.49834ZM12.6193 5.61967L12.432 4.89344C12.1642 4.96252 11.9139 5.0269 11.703 5.07119C11.5981 5.0932 11.5148 5.10767 11.4526 5.11526C11.3799 5.12414 11.3757 5.11844 11.4109 5.1229L11.3166 5.86695L11.2223 6.611C11.4822 6.64393 11.7981 6.58391 12.0112 6.53919C12.2623 6.48647 12.5481 6.4126 12.8066 6.3459L12.6193 5.61967ZM10.5414 5.43609L9.9549 5.90359C10.2686 6.29718 10.726 6.5481 11.2223 6.611L11.3166 5.86695L11.4109 5.1229C11.2921 5.10785 11.1918 5.04881 11.1278 4.9686L10.5414 5.43609ZM10.1882 4.49834L10.9107 4.29722C10.8373 4.03361 10.7931 3.87325 10.7682 3.75078C10.7446 3.63514 10.7511 3.61005 10.75 3.61784L10.007 3.51622L9.26388 3.41459C9.23245 3.64442 9.25901 3.85703 9.29838 4.05026C9.33636 4.23666 9.39797 4.45635 9.46564 4.69946L10.1882 4.49834ZM11.4287 2.42995L11.2414 1.70372C10.9879 1.76912 10.7623 1.8269 10.5787 1.88744C10.3893 1.94988 10.1926 2.03106 10.0089 2.16668L10.4546 2.76995L10.9002 3.37322C10.9011 3.37251 10.9283 3.35158 11.0483 3.31204C11.1739 3.27061 11.3432 3.22656 11.616 3.15618L11.4287 2.42995ZM10.007 3.51622L10.75 3.61784C10.7624 3.52763 10.8125 3.438 10.9002 3.37322L10.4546 2.76995L10.0089 2.16668C9.60446 2.46545 9.33252 2.91271 9.26388 3.41459L10.007 3.51622ZM12.6193 5.61967L11.8968 5.82079L13.2969 10.8506L14.0194 10.6495L14.7419 10.4483L13.3418 5.41855L12.6193 5.61967ZM15.714 10.2124L16.4365 10.0112L15.0365 4.98145L14.314 5.18257L13.5914 5.38369L14.9915 10.4135L15.714 10.2124Z" fill="#E27B00"/>
</g>
<defs>
<clipPath id="clip0_7048_33218">
<rect width="20" height="20" fill="white"/>
</clipPath>
</defs>
</svg>
