<svg width="20" height="20" viewBox="0 0 20 20" fill="none" xmlns="http://www.w3.org/2000/svg">
<g clip-path="url(#clip0_7048_33241)">
<path d="M3.37122 15.423C2.23491 14.2866 1.66675 13.7185 1.66675 13.0125C1.66675 12.3064 2.23491 11.7383 3.37122 10.602L10.6027 3.37049C11.739 2.23417 12.3072 1.66602 13.0132 1.66602C13.7192 1.66602 14.2874 2.23417 15.4237 3.37049L16.6289 4.57574C17.7653 5.71206 18.3334 6.28022 18.3334 6.98623C18.3334 7.69225 17.7653 8.26041 16.6289 9.39673L9.39746 16.6282C8.26114 17.7645 7.69298 18.3327 6.98696 18.3327C6.28095 18.3327 5.71279 17.7645 4.57647 16.6282L3.37122 15.423Z" stroke="#E27B00" stroke-width="1.5"/>
<path opacity="0.5" d="M7.05371 7.05469L8.23222 8.2332" stroke="#E27B00" stroke-width="1.5" stroke-linecap="round"/>
<path opacity="0.5" d="M10.5894 3.51758L11.7679 4.69609" stroke="#E27B00" stroke-width="1.5" stroke-linecap="round"/>
<path opacity="0.5" d="M3.51807 10.5898L4.69658 11.7684" stroke="#E27B00" stroke-width="1.5" stroke-linecap="round"/>
<path opacity="0.5" d="M5.28589 8.82227L7.05366 10.59" stroke="#E27B00" stroke-width="1.5" stroke-linecap="round"/>
<path opacity="0.5" d="M8.82153 5.28516L10.5893 7.05292" stroke="#E27B00" stroke-width="1.5" stroke-linecap="round"/>
</g>
<defs>
<clipPath id="clip0_7048_33241">
<rect width="20" height="20" fill="white"/>
</clipPath>
</defs>
</svg>
