<svg width="16" height="16" viewBox="0 0 16 16" fill="none" xmlns="http://www.w3.org/2000/svg">
<g clip-path="url(#clip0_0_45)">
<path d="M7.05114 5.80214C7.47335 5.04472 7.68446 4.66602 8.00008 4.66602C8.3157 4.66602 8.52681 5.04472 8.94903 5.80214L9.05826 5.99809C9.17824 6.21333 9.23823 6.32094 9.33177 6.39195C9.4253 6.46296 9.5418 6.48932 9.77479 6.54203L9.9869 6.59002C10.8068 6.77553 11.2167 6.86829 11.3143 7.18193C11.4118 7.49556 11.1323 7.82237 10.5734 8.47599L10.4288 8.64509C10.2699 8.83083 10.1905 8.9237 10.1548 9.03859C10.1191 9.15348 10.1311 9.27739 10.1551 9.5252L10.1769 9.75081C10.2615 10.6229 10.3037 11.0589 10.0484 11.2528C9.79302 11.4466 9.40919 11.2699 8.64152 10.9164L8.44292 10.825C8.22477 10.7245 8.1157 10.6743 8.00008 10.6743C7.88446 10.6743 7.77539 10.7245 7.55724 10.825L7.35864 10.9164C6.59097 11.2699 6.20714 11.4466 5.9518 11.2528C5.69645 11.0589 5.73871 10.6229 5.82321 9.75081L5.84508 9.5252C5.86909 9.27739 5.8811 9.15348 5.84537 9.03859C5.80964 8.9237 5.73022 8.83083 5.57139 8.64509L5.42678 8.47599C4.86783 7.82237 4.58836 7.49556 4.68589 7.18193C4.78342 6.86829 5.19337 6.77553 6.01326 6.59003L6.22538 6.54203C6.45836 6.48932 6.57486 6.46296 6.6684 6.39195C6.76193 6.32094 6.82192 6.21333 6.9419 5.99809L7.05114 5.80214Z" stroke="#F2F2F3" stroke-width="1.5"/>
<path opacity="0.5" d="M8 1.33398V2.66732" stroke="#F2F2F3" stroke-width="1.5" stroke-linecap="round"/>
<path opacity="0.5" d="M8 13.334V14.6673" stroke="#F2F2F3" stroke-width="1.5" stroke-linecap="round"/>
<path opacity="0.5" d="M1.33325 8L2.66659 8" stroke="#F2F2F3" stroke-width="1.5" stroke-linecap="round"/>
<path opacity="0.5" d="M13.3333 8L14.6666 8" stroke="#F2F2F3" stroke-width="1.5" stroke-linecap="round"/>
<path d="M4 12L4.2287 11.7713" stroke="#F2F2F3" stroke-width="1.5" stroke-linecap="round"/>
<path d="M11.7712 4.22852L12.0001 3.99967" stroke="#F2F2F3" stroke-width="1.5" stroke-linecap="round"/>
<path d="M12 12L11.7713 11.7713" stroke="#F2F2F3" stroke-width="1.5" stroke-linecap="round"/>
<path d="M4.22876 4.22852L3.99992 3.99967" stroke="#F2F2F3" stroke-width="1.5" stroke-linecap="round"/>
</g>
<defs>
<clipPath id="clip0_0_45">
<rect width="16" height="16" fill="white"/>
</clipPath>
</defs>
</svg>
