<svg width="20" height="20" viewBox="0 0 20 20" fill="none" xmlns="http://www.w3.org/2000/svg">
<circle cx="9.99996" cy="9.99935" r="8.33333" stroke="#696576" stroke-width="1.5"/>
<circle cx="10" cy="10" r="2.5" stroke="#696576" stroke-width="1.5"/>
<path opacity="0.5" d="M1.66663 10.834C1.66663 10.834 3.50067 12.5007 4.99996 12.5007C6.00995 12.5007 7.17186 11.7443 7.82267 11.2507" stroke="#696576" stroke-width="1.5"/>
<path opacity="0.5" d="M11.6666 11.8537C12.0594 12.1998 12.5729 12.5007 13.1711 12.5007C14.5789 12.5007 14.5789 10.834 15.9868 10.834C16.8848 10.834 17.5918 11.512 17.9862 12.0031" stroke="#696576" stroke-width="1.5"/>
<path d="M12.0834 5.83268L13.3334 4.16602" stroke="#696576" stroke-width="1.5" stroke-linecap="round"/>
<path opacity="0.5" d="M15.8334 5.83333L16.6667 5" stroke="#696576" stroke-width="1.5" stroke-linecap="round"/>
<path d="M10 4.16732L9.16667 3.33398" stroke="#696576" stroke-width="1.5" stroke-linecap="round"/>
<path opacity="0.5" d="M8.75004 5.83268L7.61169 6.1377" stroke="#696576" stroke-width="1.5" stroke-linecap="round"/>
<path opacity="0.5" d="M13.8749 7.48124L13.9303 8.65845" stroke="#696576" stroke-width="1.5" stroke-linecap="round"/>
<path d="M17.2314 8.40483L15.833 9.63637" stroke="#696576" stroke-width="1.5" stroke-linecap="round"/>
<path opacity="0.5" d="M5.83337 4.16732L5.00004 3.33398" stroke="#696576" stroke-width="1.5" stroke-linecap="round"/>
<path d="M5.66041 7.62012L5.17272 6.54725" stroke="#696576" stroke-width="1.5" stroke-linecap="round"/>
<path d="M4.7208 10.5346L5.41683 9.58358" stroke="#696576" stroke-width="1.5" stroke-linecap="round"/>
<path opacity="0.5" d="M3.06894 8.62503L3.00339 7.44834" stroke="#696576" stroke-width="1.5" stroke-linecap="round"/>
</svg>
