<svg width="20" height="20" viewBox="0 0 20 20" fill="none" xmlns="http://www.w3.org/2000/svg">
<path d="M3.33325 8.33268C3.33325 5.18999 3.33325 3.61864 4.30956 2.64233C5.28587 1.66602 6.85722 1.66602 9.99992 1.66602C13.1426 1.66602 14.714 1.66602 15.6903 2.64233C16.6666 3.61864 16.6666 5.18999 16.6666 8.33268V11.666C16.6666 14.8087 16.6666 16.3801 15.6903 17.3564C14.714 18.3327 13.1426 18.3327 9.99992 18.3327C6.85722 18.3327 5.28587 18.3327 4.30956 17.3564C3.33325 16.3801 3.33325 14.8087 3.33325 11.666V8.33268Z" stroke="#E27B00" stroke-width="1.5"/>
<path opacity="0.5" d="M12.5 15.834H7.5" stroke="#E27B00" stroke-width="1.5" stroke-linecap="round"/>
<path opacity="0.5" d="M13.9569 1.98047L13.8868 2.08561C13.2568 3.03068 12.9417 3.50323 12.4816 3.78916C12.3901 3.84601 12.295 3.89689 12.197 3.94148C11.7038 4.16573 11.1359 4.16573 10.0001 4.16573C8.86421 4.16573 8.29628 4.16573 7.80315 3.94148C7.70509 3.89689 7.61001 3.84601 7.51852 3.78916C7.05839 3.50323 6.74336 3.03069 6.11331 2.08561L6.04321 1.98047" stroke="#E27B00" stroke-width="1.5" stroke-linecap="round"/>
</svg>
