<svg width="20" height="20" viewBox="0 0 20 20" fill="none" xmlns="http://www.w3.org/2000/svg">
<path d="M3.27027 15.5054L3.8006 14.9751L3.8006 14.9751L3.27027 15.5054ZM4.49384 16.729L3.96351 17.2593L4.49384 16.729ZM7.55277 16.729L7.02244 17.2593V17.2593L7.55277 16.729ZM8.16456 17.3408L8.69489 16.8105L8.16456 17.3408ZM12.1712 16.1472L11.4467 15.9531L11.4467 15.9531L12.1712 16.1472ZM11.2235 14.2819L10.6932 14.8122V14.8122L11.2235 14.2819ZM12.1712 15.4754L11.4467 15.6695L11.4467 15.6695L12.1712 15.4754ZM10.0299 18.2885L9.8358 17.564L9.83581 17.564L10.0299 18.2885ZM9.35813 18.2885L9.55225 17.564L9.35813 18.2885ZM1.7108 9.96935L2.43525 10.1635V10.1635L1.7108 9.96935ZM2.65849 11.8347L2.12815 12.365L2.65849 11.8347ZM1.7108 10.6411L0.986361 10.8352V10.8352L1.7108 10.6411ZM3.85206 7.8281L4.04617 8.55254H4.04617L3.85206 7.8281ZM5.71742 8.77578L5.18709 9.30611H5.18709L5.71742 8.77578ZM4.52385 7.8281L4.71796 7.10365H4.71796L4.52385 7.8281ZM16.1478 12.1706L15.9537 11.4462L15.9537 11.4462L16.1478 12.1706ZM14.2824 11.2229L13.7521 11.7533L13.7521 11.7533L14.2824 11.2229ZM15.476 12.1706L15.6701 11.4462L15.6701 11.4462L15.476 12.1706ZM18.289 10.0293L17.5646 9.83524L17.5646 9.83523L18.289 10.0293ZM18.289 9.35756L17.5646 9.55168L17.5646 9.55168L18.289 9.35756ZM9.96992 1.71024L9.7758 0.985793V0.985792L9.96992 1.71024ZM11.8353 2.65792L11.3049 3.18825L11.8353 2.65792ZM10.6417 1.71024L10.4476 2.43468L10.4476 2.43468L10.6417 1.71024ZM7.82867 3.85149L7.10422 3.65737V3.65737L7.82867 3.85149ZM8.77635 5.71685L8.24602 6.24718H8.24602L8.77635 5.71685ZM7.82867 4.52328L8.55311 4.32916V4.32916L7.82867 4.52328ZM5.94185 14.0574C6.23475 14.3503 6.23475 14.8252 5.94185 15.1181C5.64896 15.411 5.17409 15.411 4.88119 15.1181L5.94185 14.0574ZM15.1186 4.88062C15.4115 5.17352 15.4115 5.64839 15.1186 5.94128C14.8258 6.23418 14.3509 6.23418 14.058 5.94128L15.1186 4.88062ZM10.3058 13.3642L10.8361 12.8338H10.8361L10.3058 13.3642ZM13.3647 10.3052L13.8951 9.77491L13.3647 10.3052ZM6.6351 9.69346L7.16543 9.16313V9.16313L6.6351 9.69346ZM9.69403 6.63453L10.2244 6.1042V6.1042L9.69403 6.63453ZM3.27027 15.5054L3.8006 14.9751L5.02417 16.1987L4.49384 16.729L3.96351 17.2593L2.73994 16.0358L3.27027 15.5054ZM16.7296 4.49327L16.1992 5.0236L14.9757 3.80003L15.506 3.2697L16.0363 2.73937L17.2599 3.96294L16.7296 4.49327ZM16.7296 6.94042L16.1992 6.41009C16.5026 6.1067 16.6757 5.93138 16.7822 5.79179C16.8755 5.66951 16.8448 5.66612 16.8448 5.71685H17.5948L18.3448 5.71685C18.3448 6.12595 18.1698 6.44595 17.9747 6.70166C17.7928 6.94006 17.5333 7.19734 17.2599 7.47075L16.7296 6.94042ZM16.7296 4.49327L17.2599 3.96294C17.5333 4.23635 17.7928 4.49363 17.9747 4.73203C18.1698 4.98774 18.3448 5.30774 18.3448 5.71685L17.5948 5.71685H16.8448C16.8448 5.76758 16.8755 5.76419 16.7822 5.6419C16.6757 5.50232 16.5026 5.327 16.1992 5.0236L16.7296 4.49327ZM4.49384 16.729L5.02417 16.1987C5.32756 16.5021 5.50288 16.6751 5.64247 16.7816C5.76476 16.8749 5.76815 16.8442 5.71742 16.8442L5.71741 17.5942L5.71741 18.3442C5.30831 18.3442 4.98831 18.1693 4.7326 17.9742C4.4942 17.7923 4.23692 17.5327 3.96351 17.2593L4.49384 16.729ZM6.94099 16.729L7.47132 17.2593C7.19791 17.5327 6.94063 17.7923 6.70223 17.9742C6.44652 18.1693 6.12652 18.3442 5.71741 18.3442L5.71741 17.5942L5.71742 16.8442C5.66668 16.8442 5.67007 16.8749 5.79236 16.7816C5.93195 16.6751 6.10727 16.5021 6.41066 16.1987L6.94099 16.729ZM3.27027 13.0583L3.8006 13.5886C3.49721 13.892 3.32414 14.0673 3.21764 14.2069C3.12434 14.3292 3.15508 14.3326 3.15508 14.2819L2.40508 14.2819L1.65508 14.2819C1.65508 13.8727 1.83001 13.5527 2.02511 13.297C2.207 13.0586 2.46654 12.8014 2.73994 12.5279L3.27027 13.0583ZM3.27027 15.5054L2.73994 16.0358C2.46654 15.7623 2.207 15.5051 2.02511 15.2667C1.83001 15.011 1.65508 14.691 1.65508 14.2819L2.40508 14.2819L3.15508 14.2819C3.15508 14.2311 3.12434 14.2345 3.21764 14.3568C3.32414 14.4964 3.49721 14.6717 3.8006 14.9751L3.27027 15.5054ZM13.0588 3.2697L12.5285 2.73937C12.8019 2.46597 13.0592 2.20643 13.2976 2.02454C13.5533 1.82944 13.8733 1.65451 14.2824 1.65451L14.2824 2.40451V3.15451C14.3332 3.15451 14.3298 3.12377 14.2075 3.21707C14.0679 3.32358 13.8926 3.49664 13.5892 3.80003L13.0588 3.2697ZM15.506 3.2697L14.9757 3.80003C14.6723 3.49664 14.497 3.32358 14.3574 3.21707C14.2351 3.12377 14.2317 3.15451 14.2824 3.15451V2.40451L14.2824 1.65451C14.6915 1.65451 15.0115 1.82944 15.2672 2.02454C15.5056 2.20644 15.7629 2.46597 16.0363 2.73937L15.506 3.2697ZM7.55277 16.729L8.0831 16.1987L8.69489 16.8105L8.16456 17.3408L7.63423 17.8711L7.02244 17.2593L7.55277 16.729ZM11.2235 17.3408L10.6932 16.8105C10.9888 16.5148 11.1746 16.328 11.302 16.1752C11.4227 16.0304 11.4415 15.9725 11.4467 15.9531L12.1712 16.1472L12.8956 16.3413C12.8108 16.6578 12.6417 16.9108 12.454 17.1358C12.273 17.3529 12.03 17.595 11.7538 17.8711L11.2235 17.3408ZM11.2235 14.2819L11.7538 13.7515C12.03 14.0277 12.273 14.2697 12.454 14.4868C12.6417 14.7119 12.8108 14.9648 12.8956 15.2813L12.1712 15.4754L11.4467 15.6695C11.4415 15.6501 11.4227 15.5922 11.302 15.4474C11.1746 15.2946 10.9888 15.1078 10.6932 14.8122L11.2235 14.2819ZM12.1712 16.1472L11.4467 15.9531C11.4716 15.8602 11.4716 15.7624 11.4467 15.6695L12.1712 15.4754L12.8956 15.2813C12.9886 15.6285 12.9887 15.9941 12.8956 16.3413L12.1712 16.1472ZM11.2235 17.3408L11.7538 17.8711C11.4777 18.1472 11.2356 18.3903 11.0185 18.5713C10.7935 18.759 10.5405 18.9281 10.224 19.0129L10.0299 18.2885L9.83581 17.564C9.85521 17.5588 9.91313 17.54 10.0579 17.4193C10.2107 17.2919 10.3975 17.1061 10.6932 16.8105L11.2235 17.3408ZM8.16456 17.3408L8.69489 16.8105C8.99054 17.1061 9.17733 17.2919 9.3301 17.4193C9.47492 17.54 9.53284 17.5588 9.55225 17.564L9.35813 18.2885L9.16402 19.0129C8.84753 18.9281 8.59456 18.759 8.36951 18.5713C8.15241 18.3903 7.91036 18.1472 7.63423 17.8711L8.16456 17.3408ZM10.0299 18.2885L10.224 19.0129C9.87682 19.1059 9.51123 19.1059 9.16402 19.0129L9.35813 18.2885L9.55225 17.564C9.64513 17.5889 9.74292 17.5889 9.8358 17.564L10.0299 18.2885ZM2.65849 8.77578L3.18882 9.30611C2.89316 9.60176 2.70739 9.78855 2.58001 9.94132C2.45926 10.0861 2.44045 10.1441 2.43525 10.1635L1.7108 9.96935L0.986361 9.77523C1.07116 9.45875 1.2403 9.20578 1.42794 8.98073C1.60896 8.76363 1.85202 8.52158 2.12815 8.24545L2.65849 8.77578ZM2.65849 11.8347L2.12815 12.365C1.85202 12.0889 1.60896 11.8469 1.42794 11.6298C1.2403 11.4047 1.07116 11.1517 0.986361 10.8352L1.7108 10.6411L2.43525 10.447C2.44045 10.4664 2.45926 10.5244 2.58001 10.6692C2.70739 10.8219 2.89316 11.0087 3.18882 11.3044L2.65849 11.8347ZM1.7108 9.96935L2.43525 10.1635C2.41036 10.2563 2.41036 10.3541 2.43525 10.447L1.7108 10.6411L0.986361 10.8352C0.893326 10.488 0.893324 10.1224 0.986361 9.77523L1.7108 9.96935ZM2.65849 8.77578L2.12815 8.24545C2.40429 7.96931 2.64634 7.72625 2.86343 7.54523C3.08848 7.35759 3.34146 7.18845 3.65794 7.10365L3.85206 7.8281L4.04617 8.55254C4.02676 8.55774 3.96884 8.57656 3.82403 8.6973C3.67126 8.82468 3.48447 9.01045 3.18882 9.30611L2.65849 8.77578ZM5.71742 8.77578L5.18709 9.30611C4.89143 9.01045 4.70464 8.82468 4.55188 8.6973C4.40706 8.57656 4.34914 8.55774 4.32973 8.55254L4.52385 7.8281L4.71796 7.10365C5.03444 7.18845 5.28742 7.35759 5.51247 7.54523C5.72956 7.72625 5.97161 7.96932 6.24775 8.24545L5.71742 8.77578ZM3.85206 7.8281L3.65794 7.10365C4.00516 7.01062 4.37075 7.01062 4.71796 7.10365L4.52385 7.8281L4.32973 8.55254C4.23685 8.52765 4.13905 8.52765 4.04617 8.55254L3.85206 7.8281ZM16.7296 7.55221L17.2599 7.02187L17.8717 7.63366L17.3414 8.16399L16.811 8.69432L16.1992 8.08254L16.7296 7.55221ZM17.3414 11.2229L17.8717 11.7533C17.5955 12.0294 17.3535 12.2724 17.1364 12.4535C16.9114 12.6411 16.6584 12.8102 16.3419 12.895L16.1478 12.1706L15.9537 11.4462C15.9731 11.441 16.031 11.4221 16.1758 11.3014C16.3286 11.174 16.5154 10.9882 16.811 10.6926L17.3414 11.2229ZM14.2824 11.2229L14.8128 10.6926C15.1084 10.9882 15.2952 11.174 15.448 11.3014C15.5928 11.4221 15.6507 11.441 15.6701 11.4462L15.476 12.1706L15.2819 12.895C14.9654 12.8102 14.7124 12.6411 14.4874 12.4535C14.2703 12.2724 14.0282 12.0294 13.7521 11.7533L14.2824 11.2229ZM16.1478 12.1706L16.3419 12.895C15.9947 12.9881 15.6291 12.9881 15.2819 12.895L15.476 12.1706L15.6701 11.4462C15.763 11.471 15.8608 11.471 15.9537 11.4462L16.1478 12.1706ZM17.3414 11.2229L16.811 10.6926C17.1067 10.3969 17.2924 10.2101 17.4198 10.0574C17.5406 9.91256 17.5594 9.85465 17.5646 9.83524L18.289 10.0293L19.0135 10.2235C18.9287 10.5399 18.7595 10.7929 18.5719 11.018C18.3909 11.2351 18.1478 11.4771 17.8717 11.7533L17.3414 11.2229ZM17.3414 8.16399L17.8717 7.63366C18.1478 7.90979 18.3909 8.15184 18.5719 8.36894C18.7595 8.59399 18.9287 8.84696 19.0135 9.16345L18.289 9.35756L17.5646 9.55168C17.5594 9.53227 17.5406 9.47435 17.4198 9.32953C17.2924 9.17676 17.1067 8.98997 16.811 8.69432L17.3414 8.16399ZM18.289 10.0293L17.5646 9.83523C17.5895 9.74235 17.5895 9.64456 17.5646 9.55168L18.289 9.35756L19.0135 9.16345C19.1065 9.51066 19.1065 9.87625 19.0135 10.2235L18.289 10.0293ZM8.77635 2.65792L8.24602 2.12759C8.52215 1.85145 8.7642 1.60839 8.9813 1.42737C9.20635 1.23973 9.45932 1.07059 9.7758 0.985793L9.96992 1.71024L10.164 2.43468C10.1446 2.43988 10.0867 2.4587 9.94189 2.57944C9.78912 2.70682 9.60233 2.89259 9.30668 3.18825L8.77635 2.65792ZM11.8353 2.65792L11.3049 3.18825C11.0093 2.89259 10.8225 2.70682 10.6697 2.57944C10.5249 2.4587 10.467 2.43988 10.4476 2.43468L10.6417 1.71024L10.8358 0.985793C11.1523 1.07059 11.4053 1.23973 11.6303 1.42737C11.8474 1.60839 12.0895 1.85145 12.3656 2.12759L11.8353 2.65792ZM9.96992 1.71024L9.7758 0.985792C10.123 0.892757 10.4886 0.892757 10.8358 0.985793L10.6417 1.71024L10.4476 2.43468C10.3547 2.40979 10.2569 2.40979 10.164 2.43468L9.96992 1.71024ZM8.77635 2.65792L9.30668 3.18825C9.01102 3.4839 8.82525 3.67069 8.69787 3.82346C8.57712 3.96827 8.55831 4.02619 8.55311 4.0456L7.82867 3.85149L7.10422 3.65737C7.18902 3.34089 7.35816 3.08792 7.5458 2.86287C7.72682 2.64577 7.96988 2.40372 8.24602 2.12759L8.77635 2.65792ZM8.77635 5.71685L8.24602 6.24718C7.96988 5.97104 7.72682 5.729 7.5458 5.5119C7.35816 5.28685 7.18902 5.03387 7.10422 4.71739L7.82867 4.52328L8.55311 4.32916C8.55831 4.34857 8.57713 4.40649 8.69787 4.55131C8.82525 4.70407 9.01102 4.89086 9.30668 5.18652L8.77635 5.71685ZM7.82867 3.85149L8.55311 4.0456C8.52822 4.13848 8.52822 4.23628 8.55311 4.32916L7.82867 4.52328L7.10422 4.71739C7.01119 4.37018 7.01118 4.00459 7.10422 3.65737L7.82867 3.85149ZM2.65849 11.8347L3.18882 11.3044L5.94185 14.0574L5.41152 14.5877L4.88119 15.1181L2.12815 12.365L2.65849 11.8347ZM11.8353 2.65792L12.3656 2.12759L15.1186 4.88062L14.5883 5.41095L14.058 5.94128L11.3049 3.18825L11.8353 2.65792ZM11.2235 14.2819L10.6932 14.8122L9.77548 13.8945L10.3058 13.3642L10.8361 12.8338L11.7538 13.7515L11.2235 14.2819ZM14.2824 11.2229L13.7521 11.7533L12.8344 10.8356L13.3647 10.3052L13.8951 9.77491L14.8128 10.6926L14.2824 11.2229ZM10.3058 13.3642L9.77548 13.8945L6.10476 10.2238L6.6351 9.69346L7.16543 9.16313L10.8361 12.8338L10.3058 13.3642ZM6.6351 9.69346L6.10476 10.2238L5.18709 9.30611L5.71742 8.77578L6.24775 8.24545L7.16543 9.16313L6.6351 9.69346ZM13.3647 10.3052L12.8344 10.8356L9.1637 7.16486L9.69403 6.63453L10.2244 6.1042L13.8951 9.77491L13.3647 10.3052ZM9.69403 6.63453L9.1637 7.16486L8.24602 6.24718L8.77635 5.71685L9.30668 5.18652L10.2244 6.1042L9.69403 6.63453ZM16.7296 7.55221L16.1992 8.08254C15.7374 7.6207 15.7374 6.87192 16.1992 6.41009L16.7296 6.94042L17.2599 7.47075C17.3838 7.3468 17.3838 7.14583 17.2599 7.02187L16.7296 7.55221ZM7.55277 16.729L7.02244 17.2593C7.1464 17.3833 7.34736 17.3833 7.47132 17.2593L6.94099 16.729L6.41066 16.1987C6.87249 15.7368 7.62127 15.7368 8.0831 16.1987L7.55277 16.729Z" fill="#696576"/>
<path opacity="0.5" d="M10.3058 13.3644L13.3647 10.3055M6.6351 9.6937L9.69403 6.63477" stroke="#696576" stroke-width="1.5" stroke-linecap="round"/>
</svg>
